<?xml version="1.0" standalone="no"?>
<!DOCTYPE svg PUBLIC "-//W3C//DTD SVG 1.1//EN" "http://www.w3.org/Graphics/SVG/1.1/DTD/svg11.dtd" >
<svg xmlns="http://www.w3.org/2000/svg" xmlns:xlink="http://www.w3.org/1999/xlink" version="1.1">
<metadata>
Created by FontForge 20161003 at Sun May 27 12:57:16 2018
 By www-data
Copyright (c) 2014 by NORM, Dimitri Bruni + Manuel Krebs. All rights reserved.
</metadata>
<defs>
<font id="Riforma_Medium_A_Italic" horiz-adv-x="620" >
  <font-face 
    font-family="Riforma_Medium_A_Italic"
    font-weight="400"
    font-style="italic"
    font-stretch="normal"
    units-per-em="1000"
    panose-1="2 0 5 3 3 0 0 2 0 4"
    ascent="700"
    descent="-300"
    x-height="520"
    cap-height="700"
    bbox="-323 -260 1241 925"
    underline-thickness="40"
    underline-position="-140"
    unicode-range="U+000D-FB04"
  />
<missing-glyph horiz-adv-x="680" 
d="M482 0h-520l149 700h520zM144 660l-131 -620h437l131 620h-437z" />
    <glyph glyph-name="interrobang" unicode="&#x21;&#x3f;" horiz-adv-x="526" 
d="M214 535h-130q21 81 87 130.5t161 49.5q92 0 147.5 -51t55.5 -121q0 -48 -16.5 -83.5t-41 -54.5t-55 -38t-57.5 -34t-49.5 -41.5t-29.5 -61.5h-113q0 3 2 9l60 281h113l-21 -98q3 3 21.5 17t27.5 24t19 31.5t10 46.5q0 30 -20.5 49.5t-59.5 19.5q-42 0 -71 -21t-40 -54z
M104 0l32 150h153l-32 -150h-153z" />
    <glyph glyph-name="uniFB00" unicode="ff" horiz-adv-x="731" 
d="M356 420h-71l-89 -420h-127l89 420h-124l21 100h124l11 50q15 70 56.5 100t115.5 30h81l17 -95h-96q-22 0 -33 -10.5t-16 -34.5l-9 -40h203l11 50q15 70 56.5 100t115.5 30h81l17 -95h-96q-22 0 -33 -10.5t-16 -34.5l-9 -40h136l-21 -100h-136l-89 -420h-127l92 435z" />
    <glyph glyph-name="fi" unicode="fi" horiz-adv-x="655" 
d="M397 0l93 435l-134 -15h-71l-89 -420h-127l89 420h-124l21 100h124l11 50q15 70 56.5 100t115.5 30h81l17 -95h-96q-22 0 -33 -10.5t-16 -34.5l-9 -40h329l-111 -520h-127zM523 590l23 110h127l-23 -110h-127z" />
    <glyph glyph-name="fl" unicode="fl" horiz-adv-x="655" 
d="M397 0l93 435l-134 -15h-71l-89 -420h-127l89 420h-124l21 100h124l11 50q15 70 56.5 100t115.5 30h81l17 -95h-96q-22 0 -33 -10.5t-16 -34.5l-9 -40h202l38 180h127l-149 -700h-127z" />
    <glyph glyph-name="uniFB03" unicode="ffi" horiz-adv-x="985" 
d="M727 0l93 435l-134 -15h-71l-89 -420h-127l92 435l-135 -15h-71l-89 -420h-127l89 420h-124l21 100h124l11 50q15 70 56.5 100t115.5 30h81l17 -95h-96q-22 0 -33 -10.5t-16 -34.5l-9 -40h203l11 50q15 70 56.5 100t115.5 30h81l17 -95h-96q-22 0 -33 -10.5t-16 -34.5
l-9 -40h329l-111 -520h-127zM853 590l23 110h127l-23 -110h-127z" />
    <glyph glyph-name="uniFB04" unicode="ffl" horiz-adv-x="985" 
d="M727 0l93 435l-134 -15h-71l-89 -420h-127l92 435l-135 -15h-71l-89 -420h-127l89 420h-124l21 100h124l11 50q15 70 56.5 100t115.5 30h81l17 -95h-96q-22 0 -33 -10.5t-16 -34.5l-9 -40h203l11 50q15 70 56.5 100t115.5 30h81l17 -95h-96q-22 0 -33 -10.5t-16 -34.5
l-9 -40h202l38 180h127l-149 -700h-127z" />
    <glyph glyph-name="t_t" unicode="tt" horiz-adv-x="743" 
d="M488 435l-136 -15h-70l-61 -285q-2 -12 -2 -16q0 -24 34 -24h95l-58 -95h-62q-138 0 -138 101q0 16 5 39l60 280h-125l21 100h125l26 120h127l-26 -120h203l26 120h127l-26 -120h135l-21 -100h-135l-61 -285q-2 -12 -2 -16q0 -24 34 -24h95l-58 -95h-62q-138 0 -138 101
q0 16 5 39z" />
    <glyph glyph-name=".notdef" horiz-adv-x="680" 
d="M482 0h-520l149 700h520zM144 660l-131 -620h437l131 620h-437z" />
    <glyph glyph-name=".null" horiz-adv-x="0" 
 />
    <glyph glyph-name=".null" horiz-adv-x="0" 
 />
    <glyph glyph-name="nonmarkingreturn" horiz-adv-x="333" 
 />
    <glyph glyph-name="CR" unicode="&#xd;" horiz-adv-x="0" 
 />
    <glyph glyph-name="space" unicode=" " horiz-adv-x="248" 
 />
    <glyph glyph-name="exclam" unicode="!" horiz-adv-x="307" 
d="M253 450l-72 -220h-83l22 220l53 250h133zM14 0l32 150h153l-32 -150h-153z" />
    <glyph glyph-name="quotedbl" unicode="&#x22;" horiz-adv-x="435" 
d="M80 370l70 330h128l-42 -202zM275 370l70 330h128l-42 -202z" />
    <glyph glyph-name="numbersign" unicode="#" horiz-adv-x="730" 
d="M280 0l83 180h-129l-83 -180h-127l83 180h-98l46 100h98l65 140h-98l46 100h98l84 180h127l-84 -180h129l84 180h127l-84 -180h98l-46 -100h-98l-65 -140h98l-46 -100h-98l-83 -180h-127zM345 420l-65 -140h129l65 140h-129z" />
    <glyph glyph-name="dollar" unicode="$" horiz-adv-x="636" 
d="M183 -90l17 79q-93 13 -141.5 59t-48.5 111q0 12 1 21h126v-6q0 -71 84 -85l47 221q-74 20 -123.5 66t-49.5 121q0 91 65 150t194 67l16 76h103l-17 -80q82 -14 124 -57t42 -102q0 -9 -1 -16h-125v4q0 57 -61 71l-42 -196q81 -17 133 -63.5t52 -127.5
q0 -104 -68.5 -166.5t-207.5 -70.5l-16 -76h-103zM453 211q0 33 -19.5 52t-66.5 29l-43 -204q129 18 129 123zM220 506q0 -56 74 -75l38 180q-57 -10 -84.5 -39t-27.5 -66z" />
    <glyph glyph-name="percent" unicode="%" horiz-adv-x="923" 
d="M154 0l533 700h106l-533 -700h-106zM229 355q39 0 66 32.5t37 74.5t10 88q0 85 -63 85q-39 0 -66 -32.5t-37 -74.5t-10 -88q0 -85 63 -85zM224 280q-67 0 -108 40.5t-41 119.5q0 132 58.5 201t150.5 69q67 0 108 -40.5t41 -119.5q0 -132 -58.5 -201t-150.5 -69zM667 65
q39 0 66 32.5t37 74.5t10 88q0 85 -63 85q-39 0 -66 -32.5t-37 -74.5t-10 -88q0 -85 63 -85zM662 -10q-67 0 -108 40.5t-41 119.5q0 132 58.5 201t150.5 69q67 0 108 -40.5t41 -119.5q0 -132 -58.5 -201t-150.5 -69z" />
    <glyph glyph-name="ampersand" unicode="&#x26;" horiz-adv-x="765" 
d="M578 152l120 -152h-155l-52 66q-101 -81 -226 -81q-105 0 -171 57.5t-66 137.5q0 85 51.5 138.5t142.5 88.5q-44 61 -44 123q0 80 59 132.5t163 52.5q85 0 132 -44.5t47 -100.5q0 -72 -45.5 -118.5t-126.5 -81.5l100 -127l99 107h157zM153 181q0 -40 30 -65.5t89 -25.5
q79 0 150 64l-131 165q-71 -30 -104.5 -59.5t-33.5 -78.5zM394 615q-42 0 -66.5 -23t-24.5 -54q0 -36 39 -86q57 22 86 46.5t29 63.5q0 22 -15 37.5t-48 15.5z" />
    <glyph glyph-name="quotesingle" unicode="'" horiz-adv-x="240" 
d="M80 370l70 330h128l-42 -202z" />
    <glyph glyph-name="parenleft" unicode="(" horiz-adv-x="320" 
d="M152 180q0 -90 21 -235l18 -125h-105l-26 125q-37 174 -37 245q0 94 32 171t122 214l82 125h116l-100 -170q-40 -68 -55.5 -95.5t-35.5 -74t-26 -87t-6 -93.5z" />
    <glyph glyph-name="parenright" unicode=")" horiz-adv-x="320" 
d="M153 340q0 90 -21 235l-18 125h105l26 -125q37 -174 37 -245q0 -94 -32 -171t-122 -214l-82 -125h-116l100 170q40 68 55.5 95.5t35.5 74t26 87t6 93.5z" />
    <glyph glyph-name="asterisk" unicode="*" horiz-adv-x="496" 
d="M194 678l85 -132l33 154l39 -9l-32 -153l131 85l22 -33l-132 -85l154 -33l-9 -39l-153 32l85 -131l-33 -22l-85 132l-33 -154l-39 9l32 153l-131 -85l-22 33l132 85l-154 33l9 39l153 -32l-85 131z" />
    <glyph glyph-name="plus" unicode="+" horiz-adv-x="571" 
d="M8 210l21 100h208l45 210h104l-45 -210h208l-21 -100h-208l-45 -210h-104l45 210h-208z" />
    <glyph glyph-name="comma" unicode="," horiz-adv-x="271" 
d="M-3 0l32 150h153l-32 -150l-122 -150h-63l92 150h-60z" />
    <glyph glyph-name="hyphen" unicode="-" horiz-adv-x="416" 
d="M40 210l21 100h300l-21 -100h-300z" />
    <glyph glyph-name="period" unicode="." horiz-adv-x="271" 
d="M-3 0l32 150h153l-32 -150h-153z" />
    <glyph glyph-name="slash" unicode="/" horiz-adv-x="600" 
d="M-35 0l547 700h146l-547 -700h-146z" />
    <glyph glyph-name="zero" unicode="0" horiz-adv-x="652" 
d="M280 95q57 0 101.5 38t69 97.5t37 121t12.5 118.5q0 135 -105 135q-57 0 -101.5 -38t-69 -97.5t-37 -121t-12.5 -118.5q0 -135 105 -135zM400 715q104 0 167 -59t63 -181q0 -64 -11.5 -129.5t-39 -131t-67 -116t-101 -82t-136.5 -31.5q-104 0 -167 59t-63 181
q0 64 11.5 129.5t39 131t67 116t101 82t136.5 31.5z" />
    <glyph glyph-name="one" unicode="1" horiz-adv-x="415" 
d="M257 0h-133l83 392q21 94 38 150h-2q-52 -55 -119 -112l-80 -68l38 178l191 160h133z" />
    <glyph glyph-name="two" unicode="2" horiz-adv-x="577" 
d="M231 520h-138q26 91 95.5 143t169.5 52q104 0 157 -51t53 -134q0 -63 -34.5 -120t-125.5 -130l-212 -170h300l-23 -110h-490l23 110l321 260q65 52 88 85.5t23 74.5q0 36 -21 58t-64 22q-45 0 -79 -24.5t-43 -65.5z" />
    <glyph glyph-name="three" unicode="3" horiz-adv-x="597" 
d="M239 320l22 105h55q57 0 93.5 30.5t36.5 79.5q0 35 -22 55t-63 20q-45 0 -75.5 -22.5t-40.5 -52.5h-140q24 77 92.5 128.5t168.5 51.5q93 0 151.5 -47.5t58.5 -116.5q0 -114 -119 -171q38 -20 58.5 -59.5t20.5 -85.5q0 -111 -79.5 -180.5t-215.5 -69.5q-111 0 -172 51.5
t-61 125.5q0 10 1 18h129q0 -90 108 -90q75 0 117.5 41.5t42.5 98.5q0 41 -26.5 65.5t-80.5 24.5h-60z" />
    <glyph glyph-name="four" unicode="4" horiz-adv-x="621" 
d="M12 240l423 460h140l-98 -460h100l-23 -110h-100l-28 -130h-133l28 130h-332zM158 240h186l18 85q29 139 54 220h-2q-58 -89 -169 -210z" />
    <glyph glyph-name="five" unicode="5" horiz-adv-x="598" 
d="M16 180h130q0 -40 25.5 -62.5t76.5 -22.5q80 0 127.5 53t47.5 132q0 49 -26 77t-74 28q-97 0 -145 -95l-116 50l100 360h435l-23 -110h-312l-43 -155q53 55 139 55q90 0 142.5 -59.5t52.5 -145.5q0 -130 -85 -215t-225 -85q-102 0 -164.5 52t-62.5 136v7z" />
    <glyph glyph-name="six" unicode="6" horiz-adv-x="623" 
d="M396 715q97 0 154 -44t59 -116h-129q-9 55 -89 55q-136 0 -185 -205q26 34 69.5 54.5t95.5 20.5q94 0 149.5 -59.5t55.5 -145.5q0 -123 -85.5 -206.5t-209.5 -83.5q-113 0 -171.5 72.5t-58.5 182.5q0 121 27.5 214t76 149t109.5 84t132 28zM286 90q66 0 113 52t47 123
q0 48 -26 79t-74 31q-68 0 -116.5 -48.5t-48.5 -121.5q0 -50 28 -82.5t77 -32.5z" />
    <glyph glyph-name="seven" unicode="7" horiz-adv-x="537" 
d="M580 590l-432 -590h-148l432 590h-342l24 110h490z" />
    <glyph glyph-name="eight" unicode="8" horiz-adv-x="618" 
d="M262 -15q-102 0 -171 55t-69 135q0 153 155 205q-65 36 -65 115q0 95 75.5 157.5t194.5 62.5q97 0 158.5 -47.5t61.5 -122.5q0 -113 -125 -170q80 -41 80 -140q0 -108 -82.5 -179t-212.5 -71zM152 185q0 -43 31.5 -69t83.5 -26q69 0 114.5 38t45.5 97q0 42 -31.5 68.5
t-83.5 26.5q-68 0 -114 -39t-46 -96zM237 498q0 -36 27.5 -57t71.5 -21q58 0 99.5 32t41.5 83q0 36 -27 55.5t-73 19.5q-61 0 -100.5 -31t-39.5 -81z" />
    <glyph glyph-name="nine" unicode="9" horiz-adv-x="623" 
d="M250 -15q-90 0 -149 44.5t-60 115.5h131q9 -55 83 -55q136 0 183 205q-63 -75 -163 -75q-94 0 -149.5 60t-55.5 150q0 126 83 205.5t212 79.5q117 0 173.5 -68t56.5 -177q0 -239 -96.5 -362t-248.5 -123zM360 610q-67 0 -113.5 -51.5t-46.5 -123.5q0 -49 25.5 -79.5
t73.5 -30.5q67 0 116.5 51t49.5 124q0 49 -28 79.5t-77 30.5z" />
    <glyph glyph-name="colon" unicode=":" horiz-adv-x="270" 
d="M-5 0l32 150h153l-32 -150h-153zM74 370l32 150h153l-32 -150h-153z" />
    <glyph glyph-name="semicolon" unicode=";" horiz-adv-x="271" 
d="M75 370l31 150h153l-31 -150h-153zM-4 0l32 150h153l-32 -150l-122 -150h-63l92 150h-60z" />
    <glyph glyph-name="less" unicode="&#x3c;" horiz-adv-x="530" 
d="M26 310l505 210l-24 -116l-377 -150l313 -150l-23 -104l-415 210z" />
    <glyph glyph-name="equal" unicode="=" horiz-adv-x="577" 
d="M64 320l21 100h460l-21 -100h-460zM17 100l21 100h460l-21 -100h-460z" />
    <glyph glyph-name="greater" unicode="&#x3e;" horiz-adv-x="530" 
d="M489 210l-505 -210l25 118l377 150l-313 150l22 102l415 -210z" />
    <glyph glyph-name="question" unicode="?" horiz-adv-x="525" 
d="M104 0l32 150h153l-32 -150h-153zM214 535h-130q21 81 87 130.5t161 49.5q92 0 147.5 -51t55.5 -121q0 -48 -16.5 -83.5t-41 -54.5t-55 -38t-57.5 -34t-49.5 -41.5t-29.5 -61.5h-113q10 48 32.5 85t47.5 56.5t52.5 39t49.5 34t36 39.5t14 57q0 30 -20.5 49.5t-59.5 19.5
q-42 0 -71 -21t-40 -54z" />
    <glyph glyph-name="at" unicode="@" horiz-adv-x="927" 
d="M364 -160q-144 0 -242 106t-98 254q0 132 68 242.5t184 174t253 63.5q161 0 258 -100.5t97 -249.5q0 -144 -58.5 -214.5t-148.5 -70.5q-81 0 -100 65q-67 -70 -170 -70q-77 0 -127.5 54t-50.5 136q0 111 71 180.5t174 69.5q47 0 78.5 -18.5t45.5 -39.5l10 43h112
l-57 -270q-7 -34 -0.5 -47t29.5 -13q42 0 69.5 57.5t27.5 137.5q0 113 -72 186.5t-193 73.5q-165 0 -285 -117t-120 -273q0 -115 72.5 -192.5t192.5 -77.5q87 0 165 25l-58 -97q-64 -18 -127 -18zM426 130q62 0 102 47.5t40 114.5q0 44 -22 71t-64 27q-60 0 -101.5 -45
t-41.5 -115q0 -46 23.5 -73t63.5 -27z" />
    <glyph glyph-name="A" unicode="A" horiz-adv-x="702" 
d="M509 0l-28 155h-305l-94 -155h-144l434 700h130l136 -700h-129zM314 382l-71 -117h217l-21 117q-17 95 -22 183h-2q-30 -66 -101 -183z" />
    <glyph glyph-name="B" unicode="B" horiz-adv-x="711" 
d="M383 0h-365l149 700h341q82 0 132 -42.5t50 -112.5q0 -115 -108 -175q68 -41 68 -134q0 -103 -75.5 -169.5t-191.5 -66.5zM174 110h219q61 0 94 34t33 84q0 34 -20.5 55.5t-61.5 21.5h-222zM239 415h202q54 0 86.5 30.5t32.5 78.5q0 66 -82 66h-202z" />
    <glyph glyph-name="C" unicode="C" horiz-adv-x="713" 
d="M345 -15q-136 0 -218 85.5t-82 214.5q0 177 122.5 303.5t297.5 126.5q113 0 186 -52.5t84 -142.5h-135q-10 41 -46.5 63t-93.5 22q-79 0 -146 -47t-103 -119t-36 -149q0 -85 45 -140t130 -55q56 0 100.5 25t68.5 70h146q-49 -97 -130 -151t-190 -54z" />
    <glyph glyph-name="D" unicode="D" horiz-adv-x="729" 
d="M289 0h-270l148 700h262q132 0 206 -68.5t74 -191.5q0 -119 -50 -218t-147 -160.5t-223 -61.5zM175 110h119q130 0 207.5 96.5t77.5 233.5q0 76 -41.5 113t-133.5 37h-127z" />
    <glyph glyph-name="E" unicode="E" horiz-adv-x="642" 
d="M19 0l148 700h510l-23 -110h-377l-37 -175h357l-24 -110h-357l-41 -195h377l-23 -110h-510z" />
    <glyph glyph-name="F" unicode="F" horiz-adv-x="637" 
d="M19 0l148 700h510l-23 -110h-377l-39 -185h357l-24 -110h-357l-62 -295h-133z" />
    <glyph glyph-name="G" unicode="G" horiz-adv-x="751" 
d="M345 -15q-136 0 -218 85.5t-82 214.5q0 177 122.5 303.5t297.5 126.5q113 0 186 -52.5t84 -142.5h-135q-10 41 -46.5 63t-93.5 22q-79 0 -146 -47t-103 -119t-36 -149q0 -85 45 -140t130 -55q81 0 139.5 45.5t79.5 129.5h-202l67 110h287l-81 -380h-103l5 70
q-35 -39 -87 -62t-110 -23z" />
    <glyph glyph-name="H" unicode="H" horiz-adv-x="763" 
d="M767 700l-148 -700h-133l64 305h-334l-64 -305h-133l148 700h133l-60 -285h334l60 285h133z" />
    <glyph glyph-name="I" unicode="I" horiz-adv-x="296" 
d="M152 0h-133l148 700h133z" />
    <glyph glyph-name="J" unicode="J" horiz-adv-x="497" 
d="M-28 110h157q120 0 147 125l99 465h133l-102 -480q-47 -220 -292 -220h-121z" />
    <glyph glyph-name="K" unicode="K" horiz-adv-x="670" 
d="M464 0l-244 322l-68 -322h-133l148 700h133l-58 -275l330 275h180l-412 -340l284 -360h-160z" />
    <glyph glyph-name="L" unicode="L" horiz-adv-x="584" 
d="M19 0l148 700h133l-125 -590h357l-23 -110h-490z" />
    <glyph glyph-name="M" unicode="M" horiz-adv-x="903" 
d="M392 0l-95 305q-32 101 -47 190h-2q-11 -93 -34 -200l-62 -295h-133l148 700h138l80 -266q32 -106 49 -189q45 74 129 189l192 266h152l-148 -700h-133l62 295q22 103 53 200h-2q-64 -109 -124 -190z" />
    <glyph glyph-name="N" unicode="N" horiz-adv-x="773" 
d="M582 405l62 295h133l-148 -700h-134l-146 305q-73 154 -93 210h-2q-9 -70 -40 -220l-62 -295h-133l148 700h135l144 -305q70 -148 92 -210h2q10 75 42 220z" />
    <glyph glyph-name="O" unicode="O" horiz-adv-x="787" 
d="M350 95q80 0 146.5 46.5t102.5 118.5t36 150q0 86 -46 140.5t-129 54.5q-80 0 -146.5 -46.5t-102.5 -118.5t-36 -150q0 -86 46 -140.5t129 -54.5zM345 -15q-136 0 -218 85t-82 215q0 177 122.5 303.5t297.5 126.5q136 0 218 -85t82 -215q0 -177 -122.5 -303.5
t-297.5 -126.5z" />
    <glyph glyph-name="P" unicode="P" horiz-adv-x="700" 
d="M448 280h-237l-60 -280h-133l149 700h351q92 0 146 -51t54 -129q0 -107 -74.5 -173.5t-195.5 -66.5zM234 390h229q53 0 89 34t36 86q0 36 -22.5 58t-62.5 22h-227z" />
    <glyph glyph-name="Q" unicode="Q" horiz-adv-x="777" 
d="M332 -15q-134 0 -212 78t-78 207q0 113 52 214.5t151 166t222 64.5q134 0 212 -78t78 -207q0 -94 -38 -182t-105 -152l76 -96h-142l-24 32q-91 -47 -192 -47zM337 95q60 0 114 28l-112 142h142l58 -73q88 99 88 233q0 79 -43 129.5t-122 50.5q-82 0 -149.5 -49.5
t-104 -124.5t-36.5 -156q0 -79 43 -129.5t122 -50.5z" />
    <glyph glyph-name="R" unicode="R" horiz-adv-x="710" 
d="M255 280h-44l-60 -280h-133l149 700h351q92 0 146 -51t54 -129q0 -107 -74.5 -173.5t-195.5 -66.5h-40l220 -280h-158zM234 390h229q53 0 89 34t36 86q0 36 -22.5 58t-62.5 22h-227z" />
    <glyph glyph-name="S" unicode="S" horiz-adv-x="652" 
d="M337 303q-122 15 -183.5 60.5t-61.5 141.5q0 87 80 148.5t220 61.5q128 0 189.5 -54.5t61.5 -131.5v-9h-132q2 90 -124 90q-73 0 -119 -28.5t-46 -76.5q0 -38 30 -56t105 -24q133 -11 189 -62.5t56 -142.5q0 -101 -88 -168t-237 -67q-128 0 -197.5 52.5t-69.5 134.5
q0 11 1 23h130v-8q0 -97 141 -97q92 0 141 35.5t49 84.5t-29 66t-106 27z" />
    <glyph glyph-name="T" unicode="T" horiz-adv-x="629" 
d="M694 700l-23 -110h-228l-125 -590h-133l125 590h-229l23 110h590z" />
    <glyph glyph-name="U" unicode="U" horiz-adv-x="727" 
d="M65 260l93 440h133l-95 -450q-6 -26 -6 -47q0 -52 31 -80t89 -28q77 0 132 45t71 120l93 440h133l-95 -450q-25 -116 -116.5 -190.5t-222.5 -74.5q-117 0 -182 60t-65 155q0 25 7 60z" />
    <glyph glyph-name="V" unicode="V" horiz-adv-x="658" 
d="M392 342l202 358h143l-409 -700h-125l-111 700h129l50 -357q17 -114 18 -198h1q36 80 102 197z" />
    <glyph glyph-name="W" unicode="W" horiz-adv-x="972" 
d="M537 530h-2q-33 -87 -83 -186l-169 -344h-130l-51 700h125l19 -332q5 -86 1 -198h2q42 105 89 199l162 331h132l22 -331q6 -95 3 -199h2q50 125 85 198l160 332h138l-349 -700h-130l-23 344q-7 99 -3 186z" />
    <glyph glyph-name="X" unicode="X" horiz-adv-x="649" 
d="M716 700l-304 -338l181 -362h-141l-128 263l-231 -263h-160l336 375l-163 325h141l110 -227l199 227h160z" />
    <glyph glyph-name="Y" unicode="Y" horiz-adv-x="614" 
d="M178 0l59 279l-145 421h131l94 -310l226 310h149l-322 -421l-59 -279h-133z" />
    <glyph glyph-name="Z" unicode="Z" horiz-adv-x="618" 
d="M546 110l-23 -110h-550l23 110l464 480h-352l23 110h525l-23 -110l-464 -480h377z" />
    <glyph glyph-name="bracketleft" unicode="[" horiz-adv-x="367" 
d="M-11 -180l187 880h247l-21 -100h-120l-145 -680h120l-21 -100h-247z" />
    <glyph glyph-name="backslash" unicode="\" horiz-adv-x="593" 
d="M241 700l264 -700h-131l-264 700h131z" />
    <glyph glyph-name="bracketright" unicode="]" horiz-adv-x="366" 
d="M363 700l-187 -880h-247l21 100h120l145 680h-120l21 100h247z" />
    <glyph glyph-name="asciicircum" unicode="^" horiz-adv-x="548" 
d="M28 260l284 440h100l96 -440h-104l-62 320l-198 -320h-116z" />
    <glyph glyph-name="underscore" unicode="_" horiz-adv-x="639" 
d="M-19 -80l17 80h520l-17 -80h-520z" />
    <glyph glyph-name="grave" unicode="`" horiz-adv-x="290" 
d="M206 700l54 -120h-110l-94 120h150z" />
    <glyph glyph-name="a" unicode="a" horiz-adv-x="580" 
d="M208 385h-132q54 150 248 150q93 0 151.5 -38t58.5 -116q0 -25 -7 -55l-69 -326h-126l12 55q-56 -70 -171 -70q-71 0 -122.5 42t-51.5 108q0 88 54.5 132t163.5 53l186 16l2 9q4 22 4 31q0 64 -90 64q-86 0 -111 -55zM198 80q67 0 117.5 38t64.5 107l4 19l-167 -15
q-45 -4 -69.5 -27t-24.5 -62q0 -60 75 -60z" />
    <glyph glyph-name="b" unicode="b" horiz-adv-x="632" 
d="M174 218q0 -61 28 -97t80 -36q83 0 135 63t52 158q0 62 -28.5 95.5t-84.5 33.5q-76 0 -129 -63.5t-53 -153.5zM144 71l-15 -71h-127l149 700h127l-51 -239q23 32 65.5 53t95.5 21q99 0 152 -64t53 -159q0 -134 -82.5 -230.5t-214.5 -96.5q-54 0 -94.5 25.5t-57.5 60.5z
" />
    <glyph glyph-name="c" unicode="c" horiz-adv-x="560" 
d="M248 -15q-104 0 -164 68t-60 167q0 138 87 226.5t224 88.5q94 0 152 -44.5t65 -120.5h-125q-4 29 -28 47t-70 18q-81 0 -131 -66.5t-50 -148.5q0 -57 26.5 -96t79.5 -39q83 0 117 70h135q-76 -170 -258 -170z" />
    <glyph glyph-name="d" unicode="d" horiz-adv-x="632" 
d="M443 302q0 61 -30 97t-83 36q-81 0 -131.5 -62t-50.5 -159q0 -61 31 -95t86 -34q74 0 126 62.5t52 154.5zM377 0l12 57q-59 -72 -165 -72q-92 0 -146 67t-54 161q0 133 81.5 227.5t210.5 94.5q61 0 101.5 -25.5t54.5 -63.5l54 254h127l-149 -700h-127z" />
    <glyph glyph-name="e" unicode="e" horiz-adv-x="591" 
d="M374 135h147q-90 -150 -264 -150q-107 0 -170.5 66.5t-63.5 163.5q0 133 89 226.5t227 93.5q100 0 162 -52t62 -149q0 -44 -15 -119h-400q-7 -53 22 -91.5t93 -38.5q68 0 111 50zM334 440q-57 0 -101.5 -37t-64.5 -93h270q8 55 -19 92.5t-85 37.5z" />
    <glyph glyph-name="f" unicode="f" horiz-adv-x="401" 
d="M34 420l21 100h124l11 50q15 70 56.5 100t115.5 30h81l17 -95h-96q-22 0 -33 -10.5t-16 -34.5l-9 -40h136l-21 -100h-136l-89 -420h-127l89 420h-124z" />
    <glyph glyph-name="g" unicode="g" horiz-adv-x="628" 
d="M441 310q0 57 -29 91t-82 34q-72 0 -125 -56.5t-53 -138.5q0 -56 30 -90.5t80 -34.5q76 0 127.5 56t51.5 139zM236 15q-92 0 -150 63t-58 159q0 124 81.5 211t206.5 87q64 0 102 -24.5t52 -53.5l13 63h128l-100 -468q-26 -122 -103 -184.5t-192 -62.5q-96 0 -155 41
t-59 114h124q9 -60 96 -60q130 0 164 160l4 19q-21 -26 -61 -45t-93 -19z" />
    <glyph glyph-name="h" unicode="h" horiz-adv-x="613" 
d="M278 700l-52 -245q60 80 163 80q83 0 129 -44t46 -120q0 -31 -8 -65l-65 -306h-127l66 311q5 25 5 40q0 80 -87 80q-57 0 -100.5 -40t-58.5 -110l-60 -281h-127l149 700h127z" />
    <glyph glyph-name="i" unicode="i" horiz-adv-x="262" 
d="M4 0l111 520h127l-111 -520h-127zM130 590l23 110h127l-23 -110h-127z" />
    <glyph glyph-name="j" unicode="j" horiz-adv-x="260" 
d="M130 590l23 110h127l-23 -110h-127zM-5 -45l120 565h127l-122 -574q-30 -141 -189 -141h-51l-19 100h73q50 0 61 50z" />
    <glyph glyph-name="k" unicode="k" horiz-adv-x="552" 
d="M293 270l213 -270h-153l-174 235l-50 -235h-127l149 700h127l-78 -368l224 188h173z" />
    <glyph glyph-name="l" unicode="l" horiz-adv-x="262" 
d="M4 0l149 700h127l-149 -700h-127z" />
    <glyph glyph-name="m" unicode="m" horiz-adv-x="938" 
d="M336 430q-50 0 -89.5 -31.5t-53.5 -98.5l-64 -300h-127l111 520h127l-12 -56q25 34 66 52.5t84 18.5q115 0 154 -90q67 90 191 90q73 0 120 -43t47 -119q0 -23 -8 -63l-66 -310h-127l66 311q7 30 7 49q0 70 -82 70q-50 0 -90 -31.5t-54 -98.5l-64 -300h-127l66 311
q7 30 7 49q0 70 -82 70z" />
    <glyph glyph-name="n" unicode="n" horiz-adv-x="613" 
d="M240 520l-14 -65q27 36 70 58t93 22q83 0 129 -44t46 -120q0 -30 -8 -64l-65 -307h-127l65 307q6 30 6 45q0 79 -87 79q-57 0 -100.5 -40t-58.5 -110l-60 -281h-127l111 520h127z" />
    <glyph glyph-name="o" unicode="o" 
d="M265 85q90 0 141.5 67t51.5 148q0 58 -29 96.5t-89 38.5q-90 0 -141.5 -67t-51.5 -148q0 -58 29 -96.5t89 -38.5zM260 -15q-104 0 -170.5 68t-66.5 167q0 132 92 223.5t230 91.5q104 0 170.5 -68t66.5 -167q0 -132 -92 -223.5t-230 -91.5z" />
    <glyph glyph-name="p" unicode="p" horiz-adv-x="633" 
d="M174 218q0 -61 30 -97t83 -36q81 0 131.5 62t50.5 159q0 61 -31 95t-86 34q-74 0 -126 -62.5t-52 -154.5zM240 520l-12 -57q59 72 165 72q92 0 146 -67t54 -161q0 -133 -81.5 -227.5t-210.5 -94.5q-61 0 -101.5 25.5t-54.5 63.5l-54 -254h-127l149 700h127z" />
    <glyph glyph-name="q" unicode="q" horiz-adv-x="632" 
d="M442 302q0 61 -28 97t-80 36q-83 0 -135 -63t-52 -158q0 -62 28.5 -95.5t84.5 -33.5q76 0 129 63.5t53 153.5zM472 449l15 71h127l-149 -700h-127l51 239q-23 -32 -65.5 -53t-95.5 -21q-99 0 -152 64t-53 159q0 134 82.5 230.5t214.5 96.5q54 0 94.5 -25.5t57.5 -60.5z
" />
    <glyph glyph-name="r" unicode="r" horiz-adv-x="387" 
d="M413 410h-85q-112 0 -138 -125l-61 -285h-127l111 520h127l-13 -60q24 35 57 52.5t90 17.5h18z" />
    <glyph glyph-name="s" unicode="s" horiz-adv-x="520" 
d="M247 211q-81 9 -134.5 45t-53.5 105q0 79 58.5 126.5t172.5 47.5q102 0 151.5 -41.5t49.5 -97.5v-6h-125v3q0 52 -80 52q-52 0 -77.5 -18.5t-25.5 -46.5q0 -22 16.5 -35t68.5 -18q196 -19 196 -150q0 -90 -65 -141t-191 -51q-100 0 -157 42.5t-57 105.5q0 5 1 12h124v-6
q0 -64 93 -64q127 0 127 82q0 24 -20 36t-72 18z" />
    <glyph glyph-name="t" unicode="t" horiz-adv-x="413" 
d="M282 420l-61 -285q-2 -12 -2 -16q0 -24 34 -24h95l-58 -95h-62q-138 0 -138 101q0 16 5 39l60 280h-125l21 100h125l26 120h127l-26 -120h135l-21 -100h-135z" />
    <glyph glyph-name="u" unicode="u" horiz-adv-x="608" 
d="M352 0l11 52q-52 -67 -154 -67q-83 0 -129.5 45t-46.5 121q0 30 8 64l65 305h127l-67 -315q-6 -24 -6 -45q0 -70 86 -70q58 0 99.5 37.5t56.5 107.5l61 285h127l-111 -520h-127z" />
    <glyph glyph-name="v" unicode="v" horiz-adv-x="548" 
d="M148 0l-89 520h125l30 -200q14 -90 17 -185h2q51 108 96 185l115 200h139l-311 -520h-124z" />
    <glyph glyph-name="w" unicode="w" horiz-adv-x="798" 
d="M418 380h-2q-31 -81 -85 -184l-102 -196h-120l-44 520h122l8 -204q3 -106 -3 -186h2q41 102 83 185l105 205h120l18 -205q8 -96 4 -185h2q30 88 75 186l94 204h134l-266 -520h-119l-19 196q-9 86 -7 184z" />
    <glyph glyph-name="x" unicode="x" horiz-adv-x="531" 
d="M331 0l-85 173l-153 -173h-152l252 276l-126 244h133l75 -153l135 153h151l-234 -256l138 -264h-134z" />
    <glyph glyph-name="y" unicode="y" horiz-adv-x="536" 
d="M143 11l-83 509h125l29 -200q11 -73 13 -175h1q32 75 89 175l114 200h139l-323 -552q-41 -70 -86.5 -101.5t-133.5 -31.5h-47l-18 95h65q43 0 65.5 16.5t50.5 64.5z" />
    <glyph glyph-name="z" unicode="z" horiz-adv-x="528" 
d="M163 100h289l-21 -100h-460l21 100l347 320h-269l22 100h440l-22 -100z" />
    <glyph glyph-name="braceleft" unicode="{" horiz-adv-x="382" 
d="M30 310h15q43 0 66.5 16t30.5 64l23 159q12 84 60 117.5t125 33.5h65l9 -100h-58q-35 0 -54 -14.5t-24 -50.5l-24 -165q-8 -53 -35.5 -76.5t-79.5 -33.5q42 -11 59 -50t1 -95l-37 -130q-10 -36 2 -50.5t47 -14.5h58l-51 -100h-35q-76 0 -121.5 47.5t-21.5 131.5l37 131
q14 48 -3 64t-60 16h-15z" />
    <glyph glyph-name="bar" unicode="|" horiz-adv-x="306" 
d="M-11 -180l187 880h127l-187 -880h-127z" />
    <glyph glyph-name="braceright" unicode="}" horiz-adv-x="382" 
d="M337 210h-15q-43 0 -66.5 -16t-30.5 -64l-23 -159q-12 -84 -60 -117.5t-125 -33.5h-65l-9 100h58q35 0 54 14.5t24 50.5l24 165q8 53 35.5 76.5t79.5 33.5q-42 11 -59 50t-1 95l37 130q10 36 -2 50.5t-47 14.5h-58l51 100h35q76 0 121.5 -47.5t21.5 -131.5l-37 -131
q-14 -48 3 -64t60 -16h15z" />
    <glyph glyph-name="asciitilde" unicode="~" horiz-adv-x="611" 
d="M123 190h-90q15 73 62 116.5t117 43.5q43 0 79 -21.5t63.5 -42.5t49.5 -21q24 0 43 16.5t26 48.5h90q-15 -73 -62 -116.5t-117 -43.5q-34 0 -64.5 13.5t-48.5 29t-39.5 29t-39.5 13.5q-24 0 -43 -16.5t-26 -48.5z" />
    <glyph glyph-name="uni00A0" unicode="&#xa0;" horiz-adv-x="248" 
 />
    <glyph glyph-name="exclamdown" unicode="&#xa1;" horiz-adv-x="293" 
d="M32 70l72 220h83l-22 -220l-53 -250h-133zM271 520l-32 -150h-153l32 150h153z" />
    <glyph glyph-name="cent" unicode="&#xa2;" horiz-adv-x="600" 
d="M182 -80l16 74q-78 20 -122.5 81t-44.5 141q0 126 77 215t204 102l14 67h102l-15 -70q72 -13 115.5 -57t49.5 -108h-126q-9 50 -60 64l-72 -337q45 16 73 63h140q-77 -155 -235 -169l-14 -66h-102zM155 219q0 -92 64 -123l70 329q-63 -21 -98.5 -81.5t-35.5 -124.5z" />
    <glyph glyph-name="sterling" unicode="&#xa3;" horiz-adv-x="598" 
d="M40 250l21 100h78q-21 63 -21 114q0 116 79.5 183.5t191.5 67.5q98 0 154.5 -50t56.5 -122v-8h-126q0 37 -25 56t-68 19q-57 0 -97 -36.5t-40 -104.5q0 -35 26 -119h231l-21 -100h-192q0 -93 -81 -145h312l-22 -105h-479l-19 105q71 0 119.5 39.5t46.5 105.5h-125z" />
    <glyph glyph-name="currency" unicode="&#xa4;" horiz-adv-x="628" 
d="M281 40q-65 0 -117 35l-90 -75l-67 83l87 72q-19 41 -19 83q0 86 61 152l-62 78l83 67l64 -81q52 26 110 26q64 0 117 -35l91 75l67 -83l-88 -73q19 -40 19 -82q0 -84 -60 -152l62 -78l-83 -67l-64 81q-54 -26 -111 -26zM282 150q55 0 93.5 39.5t38.5 92.5q0 38 -22.5 63
t-61.5 25q-55 0 -93.5 -39.5t-38.5 -92.5q0 -38 22.5 -63t61.5 -25z" />
    <glyph glyph-name="yen" unicode="&#xa5;" horiz-adv-x="643" 
d="M480 150h-128l-32 -150h-128l32 150h-129l21 100h129l7 31l-10 29h-163l21 100h111l-94 290h127l83 -290h15l207 290h143l-217 -290h110l-21 -100h-164l-19 -26l-8 -34h128z" />
    <glyph glyph-name="brokenbar" unicode="&#xa6;" horiz-adv-x="301" 
d="M-14 -180l74 350h127l-74 -350h-127zM99 350l74 350h127l-74 -350h-127z" />
    <glyph glyph-name="section" unicode="&#xa7;" horiz-adv-x="646" 
d="M241 -195q-104 0 -165 44.5t-61 120.5q0 6 1 15h125q-2 -39 23.5 -59.5t82.5 -20.5q62 0 97.5 24t35.5 63q0 35 -28 50t-95 27q-226 39 -226 182q0 63 34.5 108t88.5 70q-28 37 -28 91q0 91 69.5 143t190.5 52q104 0 166 -44.5t62 -120.5q0 -6 -1 -15h-125
q2 39 -23.5 59.5t-83.5 20.5q-61 0 -96 -24t-35 -63q0 -34 28 -49.5t93 -27.5q229 -40 229 -182q0 -64 -35 -109.5t-89 -69.5q28 -40 28 -90q0 -90 -70 -142.5t-193 -52.5zM311 181q50 -11 80 -25q33 11 59 35.5t26 61.5q0 14 -4 25t-14 19t-18.5 13.5t-26 10t-28 6.5t-33 6
t-32.5 6q-47 8 -82 25q-33 -11 -58 -36t-25 -61q0 -14 4 -25t13.5 -19t18.5 -13t26 -9.5t28.5 -7t33 -6.5t32.5 -6z" />
    <glyph glyph-name="dieresis" unicode="&#xa8;" horiz-adv-x="440" 
d="M54 590l23 110h127l-23 -110h-127zM273 590l23 110h127l-23 -110h-127z" />
    <glyph glyph-name="copyright" unicode="&#xa9;" horiz-adv-x="823" 
d="M58 350q0 151 107 258t258 107t258 -107t107 -258t-107 -258t-258 -107t-258 107t-107 258zM123 350q0 -126 88 -215.5t212 -89.5t212 89.5t88 215.5t-88 215.5t-212 89.5t-212 -89.5t-88 -215.5zM293 350q0 -65 35 -109t100 -44q37 0 64 16t36 42h75
q-17 -57 -62.5 -88.5t-112.5 -31.5q-94 0 -149.5 60t-55.5 155t55.5 155t149.5 60q67 0 112.5 -30.5t62.5 -84.5h-75q-9 23 -36 38t-64 15q-65 0 -100 -44t-35 -109z" />
    <glyph glyph-name="ordfeminine" unicode="&#xaa;" horiz-adv-x="469" 
d="M217 590h-95q46 120 191 120q70 0 113.5 -30.5t43.5 -88.5q0 -20 -5 -40l-55 -261h-93l8 40q-50 -50 -128 -50q-58 0 -97 31t-39 84q0 133 174 148l138 12l2 8q4 16 4 26q0 48 -72 48q-71 0 -90 -47zM212 353q51 0 91.5 29.5t50.5 80.5l4 20l-123 -11q-82 -7 -82 -71
q0 -48 59 -48z" />
    <glyph glyph-name="guillemotleft" unicode="&#xab;" horiz-adv-x="645" 
d="M9 260l201 170h155l-216 -175l144 -165h-140zM264 260l201 170h155l-216 -175l144 -165h-140z" />
    <glyph glyph-name="logicalnot" unicode="&#xac;" 
d="M420 140l30 140h-397l21 100h500l-51 -240h-103z" />
    <glyph glyph-name="uni00AD" unicode="&#xad;" horiz-adv-x="416" 
d="M40 210l21 100h300l-21 -100h-300z" />
    <glyph glyph-name="registered" unicode="&#xae;" horiz-adv-x="823" 
d="M58 350q0 151 107 258t258 107t258 -107t107 -258t-107 -258t-258 -107t-258 107t-107 258zM366 309h-23v-164h-70v410h206q59 0 94 -34t35 -89t-35 -89t-94 -34h-34q24 -15 50 -41l123 -123h-91zM343 371h136q29 0 44 17t15 44t-15 44t-44 17h-136v-122zM123 350
q0 -126 88 -215.5t212 -89.5t212 89.5t88 215.5t-88 215.5t-212 89.5t-212 -89.5t-88 -215.5z" />
    <glyph glyph-name="macron" unicode="&#xaf;" horiz-adv-x="440" 
d="M55 600l19 90h350l-19 -90h-350z" />
    <glyph glyph-name="degree" unicode="&#xb0;" horiz-adv-x="520" 
d="M275 375q62 0 108.5 43t46.5 107q0 45 -28.5 72.5t-71.5 27.5q-62 0 -108.5 -43t-46.5 -107q0 -45 28.5 -72.5t71.5 -27.5zM270 285q-90 0 -142.5 55.5t-52.5 134.5q0 102 76 171t184 69q90 0 142.5 -55.5t52.5 -134.5q0 -102 -76 -171t-184 -69z" />
    <glyph glyph-name="plusminus" unicode="&#xb1;" horiz-adv-x="570" 
d="M58 300l21 100h179l26 120h103l-26 -120h178l-21 -100h-178l-26 -120h-103l26 120h-179zM-6 0l21 100h460l-21 -100h-460z" />
    <glyph glyph-name="twosuperior" unicode="&#xb2;" horiz-adv-x="384" 
d="M200 595h-94q34 115 153 115q66 0 102 -32t36 -78t-24.5 -80.5t-72.5 -69.5l-114 -85h171l-16 -75h-300l16 75l186 145q36 28 49 46t13 39q0 40 -46 40t-59 -40z" />
    <glyph glyph-name="threesuperior" unicode="&#xb3;" horiz-adv-x="386" 
d="M55 400h90q0 -45 55 -45q38 0 58 19t20 47q0 19 -13.5 31.5t-40.5 12.5h-35l15 70h35q30 0 48 18t18 41q0 17 -11.5 29t-33.5 12q-47 0 -58 -40h-96q11 51 53 83t107 32q61 0 96.5 -32t35.5 -78q0 -37 -22.5 -63t-54.5 -37q22 -9 35 -31t13 -51q0 -64 -48.5 -101
t-126.5 -37q-63 0 -101 32.5t-38 80.5v7z" />
    <glyph glyph-name="acute" unicode="&#xb4;" horiz-adv-x="290" 
d="M30 580l106 120h170l-146 -120h-130z" />
    <glyph glyph-name="uni00B5" unicode="&#xb5;" 
d="M364 0l8 33q-47 -48 -123 -48q-77 0 -110 55l-47 -220h-127l149 700h127l-66 -310q-5 -20 -5 -40q0 -85 95 -85q56 0 93.5 33t49.5 87l67 315h127l-111 -520h-127z" />
    <glyph glyph-name="paragraph" unicode="&#xb6;" horiz-adv-x="715" 
d="M270 -180h-127l102 480q-77 0 -124.5 47.5t-47.5 121.5q0 103 75 167t182 64h424l-23 -105h-76l-164 -775h-127l164 775h-94z" />
    <glyph glyph-name="periodcentered" unicode="&#xb7;" horiz-adv-x="269" 
d="M34 185l32 150h153l-32 -150h-153z" />
    <glyph glyph-name="cedilla" unicode="&#xb8;" horiz-adv-x="280" 
d="M-117 -140h69q2 -20 30 -20q20 0 32.5 12.5t12.5 28.5q0 12 -8 20.5t-21 8.5q-14 0 -27 -11l-38 48l82 68h97l-73 -60q27 -1 42.5 -21.5t15.5 -48.5q0 -45 -34 -75t-82 -30q-41 0 -69.5 23t-28.5 57z" />
    <glyph glyph-name="onesuperior" unicode="&#xb9;" horiz-adv-x="306" 
d="M226 290h-93l63 295l-120 -105l25 120l120 100h93z" />
    <glyph glyph-name="ordmasculine" unicode="&#xba;" horiz-adv-x="498" 
d="M166 461q0 -46 23 -76t71 -30q72 0 113.5 54t41.5 120q0 46 -23.5 76t-71.5 30q-67 0 -110.5 -54t-43.5 -120zM506 530q0 -108 -71 -179t-180 -71q-86 0 -133.5 51t-47.5 129q0 108 74 179t177 71q86 0 133.5 -51t47.5 -129z" />
    <glyph glyph-name="guillemotright" unicode="&#xbb;" horiz-adv-x="647" 
d="M622 260l-201 -170h-155l216 175l-144 165h140zM367 260l-201 -170h-155l216 175l-144 165h140z" />
    <glyph glyph-name="onequarter" unicode="&#xbc;" horiz-adv-x="833" 
d="M97 0l533 700h106l-533 -700h-106zM224 290h-93l63 295l-120 -105l25 120l120 100h93zM423 150l240 260h102l-55 -260h58l-16 -75h-58l-16 -75h-93l16 75h-194zM516 150h101l14 65q12 53 29 100h-1q-26 -39 -70 -86z" />
    <glyph glyph-name="onehalf" unicode="&#xbd;" horiz-adv-x="858" 
d="M97 0l533 700h106l-533 -700h-106zM224 290h-93l63 295l-120 -105l25 120l120 100h93zM616 305h-94q34 115 153 115q66 0 102 -32t36 -78t-24.5 -80.5t-72.5 -69.5l-114 -85h171l-16 -75h-300l16 75l186 145q36 28 49 46t13 39q0 40 -46 40t-59 -40z" />
    <glyph glyph-name="threequarters" unicode="&#xbe;" horiz-adv-x="875" 
d="M139 0l533 700h106l-533 -700h-106zM465 150l240 260h102l-55 -260h58l-16 -75h-58l-16 -75h-93l16 75h-194zM558 150h101l14 65q12 53 29 100h-1q-26 -39 -70 -86zM59 400h90q0 -45 55 -45q38 0 58 19t20 47q0 19 -13.5 31.5t-40.5 12.5h-35l15 70h35q30 0 48 18t18 41
q0 17 -11.5 29t-33.5 12q-47 0 -58 -40h-96q11 51 53 83t107 32q61 0 96.5 -32t35.5 -78q0 -37 -22.5 -63t-54.5 -37q22 -9 35 -31t13 -51q0 -64 -48.5 -101t-126.5 -37q-63 0 -101 32.5t-38 80.5v7z" />
    <glyph glyph-name="questiondown" unicode="&#xbf;" horiz-adv-x="476" 
d="M383 520l-32 -150h-153l32 150h153zM273 -15h130q-21 -81 -87 -130.5t-161 -49.5q-92 0 -147.5 51t-55.5 121q0 48 16.5 83.5t41 54.5t55 38t57.5 34t49.5 41.5t29.5 61.5h113q-10 -48 -32.5 -85t-47.5 -56.5t-52.5 -39t-49.5 -34t-36 -39.5t-14 -57q0 -30 20.5 -49.5
t59.5 -19.5q42 0 71 21t40 54z" />
    <glyph glyph-name="Agrave" unicode="&#xc0;" horiz-adv-x="702" 
d="M509 0l-28 155h-305l-94 -155h-144l434 700h130l136 -700h-129zM314 382l-71 -117h217l-21 117q-17 95 -22 183h-2q-30 -66 -101 -183zM490 880l54 -120h-110l-94 120h150z" />
    <glyph glyph-name="Aacute" unicode="&#xc1;" horiz-adv-x="702" 
d="M509 0l-28 155h-305l-94 -155h-144l434 700h130l136 -700h-129zM314 382l-71 -117h217l-21 117q-17 95 -22 183h-2q-30 -66 -101 -183zM345 760l106 120h170l-146 -120h-130z" />
    <glyph glyph-name="Acircumflex" unicode="&#xc2;" horiz-adv-x="702" 
d="M509 0l-28 155h-305l-94 -155h-144l434 700h130l136 -700h-129zM314 382l-71 -117h217l-21 117q-17 95 -22 183h-2q-30 -66 -101 -183zM497 760l-28 55l-52 -55h-157l146 120h140l94 -120h-143z" />
    <glyph glyph-name="Atilde" unicode="&#xc3;" horiz-adv-x="702" 
d="M509 0l-28 155h-305l-94 -155h-144l434 700h130l136 -700h-129zM314 382l-71 -117h217l-21 117q-17 95 -22 183h-2q-30 -66 -101 -183zM352 765h-85q13 60 49.5 95t88.5 35q30 0 58 -15t49 -30t35 -15q30 0 38 40h85q-13 -61 -49 -95.5t-88 -34.5q-30 0 -58 15t-49 30
t-35 15q-31 0 -39 -40z" />
    <glyph glyph-name="Adieresis" unicode="&#xc4;" horiz-adv-x="702" 
d="M509 0l-28 155h-305l-94 -155h-144l434 700h130l136 -700h-129zM314 382l-71 -117h217l-21 117q-17 95 -22 183h-2q-30 -66 -101 -183zM279 770l23 110h127l-23 -110h-127zM498 770l23 110h127l-23 -110h-127z" />
    <glyph glyph-name="Aring" unicode="&#xc5;" horiz-adv-x="702" 
d="M509 0l-28 155h-305l-94 -155h-144l419 676q-46 32 -46 85q0 56 46 95t117 39q54 0 88 -31t34 -75q0 -39 -23.5 -71t-64.5 -49l130 -669h-129zM314 382l-71 -117h217l-21 117q-17 95 -22 183h-2q-30 -66 -101 -183zM442 720q33 0 55.5 19t22.5 45q0 20 -15 33t-40 13
q-33 0 -55.5 -19t-22.5 -45q0 -20 15 -33t40 -13z" />
    <glyph glyph-name="AE" unicode="&#xc6;" horiz-adv-x="1077" 
d="M964 0h-490l33 155h-283l-130 -155h-160l599 700h580l-24 -110h-357l-37 -175h337l-23 -110h-337l-42 -195h357zM590 590l-273 -325h213l69 325h-9z" />
    <glyph glyph-name="Ccedilla" unicode="&#xc7;" horiz-adv-x="713" 
d="M196 -140h69q2 -20 30 -20q20 0 32.5 12.5t12.5 28.5q0 12 -8 20.5t-21 8.5q-14 0 -27 -11l-38 48l50 42q-115 15 -183 97t-68 199q0 177 122.5 303.5t297.5 126.5q113 0 186 -52.5t84 -142.5h-135q-10 41 -46.5 63t-93.5 22q-79 0 -146 -47t-103 -119t-36 -149
q0 -85 45 -140t130 -55q56 0 100.5 25t68.5 70h146q-90 -180 -273 -202l-40 -33q27 -1 42.5 -21.5t15.5 -48.5q0 -45 -34 -75t-82 -30q-41 0 -69.5 23t-28.5 57z" />
    <glyph glyph-name="Egrave" unicode="&#xc8;" horiz-adv-x="642" 
d="M19 0l148 700h510l-23 -110h-377l-37 -175h357l-24 -110h-357l-41 -195h377l-23 -110h-510zM476 880l54 -120h-110l-94 120h150z" />
    <glyph glyph-name="Eacute" unicode="&#xc9;" horiz-adv-x="642" 
d="M19 0l148 700h510l-23 -110h-377l-37 -175h357l-24 -110h-357l-41 -195h377l-23 -110h-510zM330 760l106 120h170l-146 -120h-130z" />
    <glyph glyph-name="Ecircumflex" unicode="&#xca;" horiz-adv-x="642" 
d="M19 0l148 700h510l-23 -110h-377l-37 -175h357l-24 -110h-357l-41 -195h377l-23 -110h-510zM482 760l-28 55l-52 -55h-157l146 120h140l94 -120h-143z" />
    <glyph glyph-name="Edieresis" unicode="&#xcb;" horiz-adv-x="642" 
d="M19 0l148 700h510l-23 -110h-377l-37 -175h357l-24 -110h-357l-41 -195h377l-23 -110h-510zM264 770l23 110h127l-23 -110h-127zM483 770l23 110h127l-23 -110h-127z" />
    <glyph glyph-name="Igrave" unicode="&#xcc;" horiz-adv-x="296" 
d="M152 0h-133l148 700h133zM286 880l54 -120h-110l-94 120h150z" />
    <glyph glyph-name="Iacute" unicode="&#xcd;" horiz-adv-x="296" 
d="M152 0h-133l148 700h133zM140 760l106 120h170l-146 -120h-130z" />
    <glyph glyph-name="Icircumflex" unicode="&#xce;" horiz-adv-x="296" 
d="M152 0h-133l148 700h133zM292 760l-28 55l-52 -55h-157l146 120h140l94 -120h-143z" />
    <glyph glyph-name="Idieresis" unicode="&#xcf;" horiz-adv-x="296" 
d="M152 0h-133l148 700h133zM74 770l23 110h127l-23 -110h-127zM293 770l23 110h127l-23 -110h-127z" />
    <glyph glyph-name="Eth" unicode="&#xd0;" horiz-adv-x="747" 
d="M307 0h-270l63 300h-99l22 105h99l63 295h262q132 0 206 -68.5t74 -191.5q0 -119 -50 -218t-147 -160.5t-223 -61.5zM193 110h119q130 0 207.5 96.5t77.5 233.5q0 76 -41.5 113t-133.5 37h-127l-39 -185h197l-22 -105h-198z" />
    <glyph glyph-name="Ntilde" unicode="&#xd1;" horiz-adv-x="773" 
d="M582 405l62 295h133l-148 -700h-134l-146 305q-73 154 -93 210h-2q-9 -70 -40 -220l-62 -295h-133l148 700h135l144 -305q70 -148 92 -210h2q10 75 42 220zM382 765h-85q13 60 49.5 95t88.5 35q30 0 58 -15t49 -30t35 -15q30 0 38 40h85q-13 -61 -49 -95.5t-88 -34.5
q-30 0 -58 15t-49 30t-35 15q-31 0 -39 -40z" />
    <glyph glyph-name="Ograve" unicode="&#xd2;" horiz-adv-x="787" 
d="M350 95q80 0 146.5 46.5t102.5 118.5t36 150q0 86 -46 140.5t-129 54.5q-80 0 -146.5 -46.5t-102.5 -118.5t-36 -150q0 -86 46 -140.5t129 -54.5zM345 -15q-136 0 -218 85t-82 215q0 177 122.5 303.5t297.5 126.5q136 0 218 -85t82 -215q0 -177 -122.5 -303.5
t-297.5 -126.5zM532 880l54 -120h-110l-94 120h150z" />
    <glyph glyph-name="Oacute" unicode="&#xd3;" horiz-adv-x="787" 
d="M350 95q80 0 146.5 46.5t102.5 118.5t36 150q0 86 -46 140.5t-129 54.5q-80 0 -146.5 -46.5t-102.5 -118.5t-36 -150q0 -86 46 -140.5t129 -54.5zM345 -15q-136 0 -218 85t-82 215q0 177 122.5 303.5t297.5 126.5q136 0 218 -85t82 -215q0 -177 -122.5 -303.5
t-297.5 -126.5zM386 760l106 120h170l-146 -120h-130z" />
    <glyph glyph-name="Ocircumflex" unicode="&#xd4;" horiz-adv-x="787" 
d="M350 95q80 0 146.5 46.5t102.5 118.5t36 150q0 86 -46 140.5t-129 54.5q-80 0 -146.5 -46.5t-102.5 -118.5t-36 -150q0 -86 46 -140.5t129 -54.5zM345 -15q-136 0 -218 85t-82 215q0 177 122.5 303.5t297.5 126.5q136 0 218 -85t82 -215q0 -177 -122.5 -303.5
t-297.5 -126.5zM538 760l-28 55l-52 -55h-157l146 120h140l94 -120h-143z" />
    <glyph glyph-name="Otilde" unicode="&#xd5;" horiz-adv-x="787" 
d="M350 95q80 0 146.5 46.5t102.5 118.5t36 150q0 86 -46 140.5t-129 54.5q-80 0 -146.5 -46.5t-102.5 -118.5t-36 -150q0 -86 46 -140.5t129 -54.5zM345 -15q-136 0 -218 85t-82 215q0 177 122.5 303.5t297.5 126.5q136 0 218 -85t82 -215q0 -177 -122.5 -303.5
t-297.5 -126.5zM387 765h-85q13 60 49.5 95t88.5 35q30 0 58 -15t49 -30t35 -15q30 0 38 40h85q-13 -61 -49 -95.5t-88 -34.5q-30 0 -58 15t-49 30t-35 15q-31 0 -39 -40z" />
    <glyph glyph-name="Odieresis" unicode="&#xd6;" horiz-adv-x="787" 
d="M350 95q80 0 146.5 46.5t102.5 118.5t36 150q0 86 -46 140.5t-129 54.5q-80 0 -146.5 -46.5t-102.5 -118.5t-36 -150q0 -86 46 -140.5t129 -54.5zM345 -15q-136 0 -218 85t-82 215q0 177 122.5 303.5t297.5 126.5q136 0 218 -85t82 -215q0 -177 -122.5 -303.5
t-297.5 -126.5zM321 770l23 110h127l-23 -110h-127zM540 770l23 110h127l-23 -110h-127z" />
    <glyph glyph-name="multiply" unicode="&#xd7;" horiz-adv-x="562" 
d="M404 15l-138 174l-212 -174l-62 77l212 175l-138 175l78 63l138 -175l212 175l62 -77l-213 -175l139 -175z" />
    <glyph glyph-name="Oslash" unicode="&#xd8;" horiz-adv-x="786" 
d="M344 -15q-105 0 -183 54l-40 -39h-147l116 114q-46 74 -46 171q0 177 122.5 303.5t297.5 126.5q106 0 182 -54l40 39h147l-116 -114q47 -75 47 -171q0 -177 -122.5 -303.5t-297.5 -126.5zM349 95q80 0 146.5 46.5t102.5 118.5t36 150q0 46 -13 81l-374 -367
q41 -29 102 -29zM174 290q0 -45 12 -81l374 367q-44 29 -101 29q-80 0 -146.5 -46.5t-102.5 -118.5t-36 -150z" />
    <glyph glyph-name="Ugrave" unicode="&#xd9;" horiz-adv-x="727" 
d="M65 260l93 440h133l-95 -450q-6 -26 -6 -47q0 -52 31 -80t89 -28q77 0 132 45t71 120l93 440h133l-95 -450q-25 -116 -116.5 -190.5t-222.5 -74.5q-117 0 -182 60t-65 155q0 25 7 60zM502 880l54 -120h-110l-94 120h150z" />
    <glyph glyph-name="Uacute" unicode="&#xda;" horiz-adv-x="727" 
d="M65 260l93 440h133l-95 -450q-6 -26 -6 -47q0 -52 31 -80t89 -28q77 0 132 45t71 120l93 440h133l-95 -450q-25 -116 -116.5 -190.5t-222.5 -74.5q-117 0 -182 60t-65 155q0 25 7 60zM356 760l106 120h170l-146 -120h-130z" />
    <glyph glyph-name="Ucircumflex" unicode="&#xdb;" horiz-adv-x="727" 
d="M65 260l93 440h133l-95 -450q-6 -26 -6 -47q0 -52 31 -80t89 -28q77 0 132 45t71 120l93 440h133l-95 -450q-25 -116 -116.5 -190.5t-222.5 -74.5q-117 0 -182 60t-65 155q0 25 7 60zM508 760l-28 55l-52 -55h-157l146 120h140l94 -120h-143z" />
    <glyph glyph-name="Udieresis" unicode="&#xdc;" horiz-adv-x="727" 
d="M65 260l93 440h133l-95 -450q-6 -26 -6 -47q0 -52 31 -80t89 -28q77 0 132 45t71 120l93 440h133l-95 -450q-25 -116 -116.5 -190.5t-222.5 -74.5q-117 0 -182 60t-65 155q0 25 7 60zM290 770l23 110h127l-23 -110h-127zM509 770l23 110h127l-23 -110h-127z" />
    <glyph glyph-name="Yacute" unicode="&#xdd;" horiz-adv-x="614" 
d="M178 0l59 279l-145 421h131l94 -310l226 310h149l-322 -421l-59 -279h-133zM301 760l106 120h170l-146 -120h-130z" />
    <glyph glyph-name="Thorn" unicode="&#xde;" horiz-adv-x="697" 
d="M421 150h-237l-32 -150h-133l148 700h134l-29 -130h219q92 0 146 -51t54 -129q0 -107 -74.5 -173.5t-195.5 -66.5zM207 260h229q53 0 89 34t36 86q0 36 -22.5 58t-62.5 22h-227z" />
    <glyph glyph-name="germandbls" unicode="&#xdf;" horiz-adv-x="615" 
d="M460 390q53 -15 79.5 -56.5t26.5 -93.5q0 -103 -76.5 -171.5t-210.5 -68.5h-55l-19 100h75q76 0 119 40t43 102q0 44 -27 68.5t-80 24.5h-50l20 95h35q60 0 88.5 34t28.5 78q0 33 -22 53t-65 20q-110 0 -136 -120l-105 -495h-127l107 504q45 211 267 211q93 0 149 -48
t56 -115q0 -116 -121 -162z" />
    <glyph glyph-name="agrave" unicode="&#xe0;" horiz-adv-x="580" 
d="M208 385h-132q54 150 248 150q93 0 151.5 -38t58.5 -116q0 -25 -7 -55l-69 -326h-126l12 55q-56 -70 -171 -70q-71 0 -122.5 42t-51.5 108q0 88 54.5 132t163.5 53l187 16l2 9q4 22 4 31q0 64 -91 64q-86 0 -111 -55zM198 80q67 0 117.5 38t64.5 107l4 19l-167 -15
q-45 -4 -69.5 -27t-24.5 -62q0 -60 75 -60zM394 700l54 -120h-110l-94 120h150z" />
    <glyph glyph-name="aacute" unicode="&#xe1;" horiz-adv-x="580" 
d="M208 385h-132q54 150 248 150q93 0 151.5 -38t58.5 -116q0 -25 -7 -55l-69 -326h-126l12 55q-56 -70 -171 -70q-71 0 -122.5 42t-51.5 108q0 88 54.5 132t163.5 53l187 16l2 9q4 22 4 31q0 64 -91 64q-86 0 -111 -55zM198 80q67 0 117.5 38t64.5 107l4 19l-167 -15
q-45 -4 -69.5 -27t-24.5 -62q0 -60 75 -60zM248 580l106 120h170l-146 -120h-130z" />
    <glyph glyph-name="acircumflex" unicode="&#xe2;" horiz-adv-x="580" 
d="M208 385h-132q54 150 248 150q93 0 151.5 -38t58.5 -116q0 -25 -7 -55l-69 -326h-126l12 55q-56 -70 -171 -70q-71 0 -122.5 42t-51.5 108q0 88 54.5 132t163.5 53l187 16l2 9q4 22 4 31q0 64 -91 64q-86 0 -111 -55zM198 80q67 0 117.5 38t64.5 107l4 19l-167 -15
q-45 -4 -69.5 -27t-24.5 -62q0 -60 75 -60zM400 580l-28 55l-52 -55h-157l146 120h140l94 -120h-143z" />
    <glyph glyph-name="atilde" unicode="&#xe3;" horiz-adv-x="580" 
d="M208 385h-132q54 150 248 150q93 0 151.5 -38t58.5 -116q0 -25 -7 -55l-69 -326h-126l12 55q-56 -70 -171 -70q-71 0 -122.5 42t-51.5 108q0 88 54.5 132t163.5 53l187 16l2 9q4 22 4 31q0 64 -91 64q-86 0 -111 -55zM198 80q67 0 117.5 38t64.5 107l4 19l-167 -15
q-45 -4 -69.5 -27t-24.5 -62q0 -60 75 -60zM249 585h-85q13 60 49.5 95t88.5 35q30 0 58 -15t49 -30t35 -15q30 0 38 40h85q-13 -61 -49 -95.5t-88 -34.5q-30 0 -58 15t-49 30t-35 15q-31 0 -39 -40z" />
    <glyph glyph-name="adieresis" unicode="&#xe4;" horiz-adv-x="580" 
d="M208 385h-132q54 150 248 150q93 0 151.5 -38t58.5 -116q0 -25 -7 -55l-69 -326h-126l12 55q-56 -70 -171 -70q-71 0 -122.5 42t-51.5 108q0 88 54.5 132t163.5 53l187 16l2 9q4 22 4 31q0 64 -91 64q-86 0 -111 -55zM198 80q67 0 117.5 38t64.5 107l4 19l-167 -15
q-45 -4 -69.5 -27t-24.5 -62q0 -60 75 -60zM182 590l23 110h127l-23 -110h-127zM401 590l23 110h127l-23 -110h-127z" />
    <glyph glyph-name="aring" unicode="&#xe5;" horiz-adv-x="580" 
d="M208 385h-132q54 150 248 150q93 0 151.5 -38t58.5 -116q0 -25 -7 -55l-69 -326h-126l12 55q-56 -70 -171 -70q-71 0 -122.5 42t-51.5 108q0 88 54.5 132t163.5 53l187 16l2 9q4 22 4 31q0 64 -91 64q-86 0 -111 -55zM198 80q67 0 117.5 38t64.5 107l4 19l-167 -15
q-45 -4 -69.5 -27t-24.5 -62q0 -60 75 -60zM364 630q33 0 55.5 19t22.5 45q0 20 -15 33t-40 13q-33 0 -55.5 -19t-22.5 -45q0 -20 15 -33t40 -13zM355 565q-54 0 -88 31.5t-34 74.5q0 56 46 95t117 39q54 0 88 -31t34 -75q0 -56 -46 -95t-117 -39z" />
    <glyph glyph-name="ae" unicode="&#xe6;" horiz-adv-x="946" 
d="M404 336l2 9q4 22 4 31q0 64 -92 64q-86 0 -111 -55h-132q55 150 248 150q123 0 180 -64q82 64 191 64q100 0 162 -52t62 -149q0 -44 -15 -119h-400q-7 -53 22 -91.5t93 -38.5q68 0 111 50h147q-90 -150 -264 -150q-129 0 -193 97q-35 -39 -96.5 -68t-140.5 -29
q-78 0 -131 41.5t-53 108.5q0 88 55 132t165 53zM196 80q67 0 119 38t66 107l4 19l-167 -15q-45 -4 -70.5 -27t-25.5 -62q0 -60 74 -60zM689 440q-57 0 -101.5 -37t-64.5 -93h270q9 55 -18.5 92.5t-85.5 37.5z" />
    <glyph glyph-name="ccedilla" unicode="&#xe7;" horiz-adv-x="560" 
d="M102 -140h69q2 -20 30 -20q20 0 32.5 12.5t12.5 28.5q0 12 -8 20.5t-21 8.5q-14 0 -27 -11l-38 48l50 42q-83 15 -130.5 79.5t-47.5 151.5q0 138 87 226.5t224 88.5q94 0 152 -44.5t65 -120.5h-125q-4 29 -28 47t-70 18q-81 0 -131 -66.5t-50 -148.5q0 -57 26.5 -96
t79.5 -39q83 0 117 70h135q-66 -147 -207 -166l-41 -34q27 -1 42.5 -21.5t15.5 -48.5q0 -45 -34 -75t-82 -30q-41 0 -69.5 23t-28.5 57z" />
    <glyph glyph-name="egrave" unicode="&#xe8;" horiz-adv-x="591" 
d="M374 135h147q-90 -150 -264 -150q-107 0 -170.5 66.5t-63.5 163.5q0 133 89 226.5t227 93.5q100 0 162 -52t62 -149q0 -44 -15 -119h-400q-7 -53 22 -91.5t93 -38.5q68 0 111 50zM334 440q-57 0 -101.5 -37t-64.5 -93h270q8 55 -19 92.5t-85 37.5zM404 700l54 -120h-110
l-94 120h150z" />
    <glyph glyph-name="eacute" unicode="&#xe9;" horiz-adv-x="591" 
d="M374 135h147q-90 -150 -264 -150q-107 0 -170.5 66.5t-63.5 163.5q0 133 89 226.5t227 93.5q100 0 162 -52t62 -149q0 -44 -15 -119h-400q-7 -53 22 -91.5t93 -38.5q68 0 111 50zM334 440q-57 0 -101.5 -37t-64.5 -93h270q8 55 -19 92.5t-85 37.5zM258 580l106 120h170
l-146 -120h-130z" />
    <glyph glyph-name="ecircumflex" unicode="&#xea;" horiz-adv-x="591" 
d="M374 135h147q-90 -150 -264 -150q-107 0 -170.5 66.5t-63.5 163.5q0 133 89 226.5t227 93.5q100 0 162 -52t62 -149q0 -44 -15 -119h-400q-7 -53 22 -91.5t93 -38.5q68 0 111 50zM334 440q-57 0 -101.5 -37t-64.5 -93h270q8 55 -19 92.5t-85 37.5zM410 580l-28 55
l-52 -55h-157l146 120h140l94 -120h-143z" />
    <glyph glyph-name="edieresis" unicode="&#xeb;" horiz-adv-x="591" 
d="M374 135h147q-90 -150 -264 -150q-107 0 -170.5 66.5t-63.5 163.5q0 133 89 226.5t227 93.5q100 0 162 -52t62 -149q0 -44 -15 -119h-400q-7 -53 22 -91.5t93 -38.5q68 0 111 50zM334 440q-57 0 -101.5 -37t-64.5 -93h270q8 55 -19 92.5t-85 37.5zM192 590l23 110h127
l-23 -110h-127zM411 590l23 110h127l-23 -110h-127z" />
    <glyph glyph-name="igrave" unicode="&#xec;" horiz-adv-x="262" 
d="M4 0l111 520h127l-111 -520h-127zM231 700l54 -120h-110l-94 120h150z" />
    <glyph glyph-name="iacute" unicode="&#xed;" horiz-adv-x="261" 
d="M4 0l111 520h127l-111 -520h-127zM85 580l106 120h170l-146 -120h-130z" />
    <glyph glyph-name="icircumflex" unicode="&#xee;" horiz-adv-x="261" 
d="M4 0l111 520h127l-111 -520h-127zM237 580l-28 55l-52 -55h-157l146 120h140l94 -120h-143z" />
    <glyph glyph-name="idieresis" unicode="&#xef;" horiz-adv-x="261" 
d="M4 0l111 520h127l-111 -520h-127zM19 590l23 110h127l-23 -110h-127zM238 590l23 110h127l-23 -110h-127z" />
    <glyph glyph-name="eth" unicode="&#xf0;" horiz-adv-x="586" 
d="M160 580l130 42l-61 78h143l31 -42l175 57l-21 -100l-99 -32q87 -118 87 -268q0 -146 -83 -238t-224 -92q-94 0 -157 61.5t-63 153.5q0 117 78 196t199 79q83 0 123 -50q-17 55 -70 123l-210 -68zM245 85q68 0 117.5 52.5t49.5 123.5q0 51 -28 82.5t-78 31.5
q-72 0 -117 -52t-45 -122q0 -50 27 -83t74 -33z" />
    <glyph glyph-name="ntilde" unicode="&#xf1;" horiz-adv-x="613" 
d="M240 520l-14 -65q27 36 70 58t93 22q83 0 129 -44t46 -120q0 -30 -8 -64l-65 -307h-127l65 307q6 30 6 45q0 79 -87 79q-57 0 -100.5 -40t-58.5 -110l-60 -281h-127l111 520h127zM263 585h-85q13 60 49.5 95t88.5 35q30 0 58 -15t49 -30t35 -15q30 0 38 40h85
q-13 -61 -49 -95.5t-88 -34.5q-30 0 -58 15t-49 30t-35 15q-31 0 -39 -40z" />
    <glyph glyph-name="ograve" unicode="&#xf2;" 
d="M265 85q90 0 141.5 67t51.5 148q0 58 -29 96.5t-89 38.5q-90 0 -141.5 -67t-51.5 -148q0 -58 29 -96.5t89 -38.5zM260 -15q-104 0 -170.5 68t-66.5 167q0 132 92 223.5t230 91.5q104 0 170.5 -68t66.5 -167q0 -132 -92 -223.5t-230 -91.5zM412 700l54 -120h-110l-94 120
h150z" />
    <glyph glyph-name="oacute" unicode="&#xf3;" 
d="M265 85q90 0 141.5 67t51.5 148q0 58 -29 96.5t-89 38.5q-90 0 -141.5 -67t-51.5 -148q0 -58 29 -96.5t89 -38.5zM260 -15q-104 0 -170.5 68t-66.5 167q0 132 92 223.5t230 91.5q104 0 170.5 -68t66.5 -167q0 -132 -92 -223.5t-230 -91.5zM266 580l106 120h170l-146 -120
h-130z" />
    <glyph glyph-name="ocircumflex" unicode="&#xf4;" 
d="M265 85q90 0 141.5 67t51.5 148q0 58 -29 96.5t-89 38.5q-90 0 -141.5 -67t-51.5 -148q0 -58 29 -96.5t89 -38.5zM260 -15q-104 0 -170.5 68t-66.5 167q0 132 92 223.5t230 91.5q104 0 170.5 -68t66.5 -167q0 -132 -92 -223.5t-230 -91.5zM418 580l-28 55l-52 -55h-157
l146 120h140l94 -120h-143z" />
    <glyph glyph-name="otilde" unicode="&#xf5;" 
d="M265 85q90 0 141.5 67t51.5 148q0 58 -29 96.5t-89 38.5q-90 0 -141.5 -67t-51.5 -148q0 -58 29 -96.5t89 -38.5zM260 -15q-104 0 -170.5 68t-66.5 167q0 132 92 223.5t230 91.5q104 0 170.5 -68t66.5 -167q0 -132 -92 -223.5t-230 -91.5zM267 585h-85q13 60 49.5 95
t88.5 35q30 0 58 -15t49 -30t35 -15q30 0 38 40h85q-13 -61 -49 -95.5t-88 -34.5q-30 0 -58 15t-49 30t-35 15q-31 0 -39 -40z" />
    <glyph glyph-name="odieresis" unicode="&#xf6;" 
d="M265 85q90 0 141.5 67t51.5 148q0 58 -29 96.5t-89 38.5q-90 0 -141.5 -67t-51.5 -148q0 -58 29 -96.5t89 -38.5zM260 -15q-104 0 -170.5 68t-66.5 167q0 132 92 223.5t230 91.5q104 0 170.5 -68t66.5 -167q0 -132 -92 -223.5t-230 -91.5zM200 590l23 110h127l-23 -110
h-127zM419 590l23 110h127l-23 -110h-127z" />
    <glyph glyph-name="divide" unicode="&#xf7;" horiz-adv-x="578" 
d="M21 210l21 100h501l-21 -100h-501zM231 380l30 140h153l-30 -140h-153zM150 0l30 140h153l-30 -140h-153z" />
    <glyph glyph-name="oslash" unicode="&#xf8;" 
d="M260 -15q-76 0 -132 36l-22 -21h-128l85 85q-40 58 -40 135q0 132 92 223.5t230 91.5q74 0 133 -38l23 23h128l-87 -86q40 -58 40 -134q0 -132 -92 -223.5t-230 -91.5zM147 220q0 -25 5 -47l248 247q-27 15 -60 15q-90 0 -141.5 -67t-51.5 -148zM265 85q90 0 141.5 67
t51.5 148q0 20 -5 45l-247 -246q25 -14 59 -14z" />
    <glyph glyph-name="ugrave" unicode="&#xf9;" horiz-adv-x="608" 
d="M352 0l11 52q-52 -67 -154 -67q-83 0 -129.5 45t-46.5 121q0 30 8 64l65 305h127l-67 -315q-6 -24 -6 -45q0 -70 86 -70q58 0 99.5 37.5t56.5 107.5l61 285h127l-111 -520h-127zM401 700l54 -120h-110l-94 120h150z" />
    <glyph glyph-name="uacute" unicode="&#xfa;" horiz-adv-x="608" 
d="M352 0l11 52q-52 -67 -154 -67q-83 0 -129.5 45t-46.5 121q0 30 8 64l65 305h127l-67 -315q-6 -24 -6 -45q0 -70 86 -70q58 0 99.5 37.5t56.5 107.5l61 285h127l-111 -520h-127zM255 580l106 120h170l-146 -120h-130z" />
    <glyph glyph-name="ucircumflex" unicode="&#xfb;" horiz-adv-x="608" 
d="M352 0l11 52q-52 -67 -154 -67q-83 0 -129.5 45t-46.5 121q0 30 8 64l65 305h127l-67 -315q-6 -24 -6 -45q0 -70 86 -70q58 0 99.5 37.5t56.5 107.5l61 285h127l-111 -520h-127zM407 580l-28 55l-52 -55h-157l146 120h140l94 -120h-143z" />
    <glyph glyph-name="udieresis" unicode="&#xfc;" horiz-adv-x="608" 
d="M352 0l11 52q-52 -67 -154 -67q-83 0 -129.5 45t-46.5 121q0 30 8 64l65 305h127l-67 -315q-6 -24 -6 -45q0 -70 86 -70q58 0 99.5 37.5t56.5 107.5l61 285h127l-111 -520h-127zM189 590l23 110h127l-23 -110h-127zM408 590l23 110h127l-23 -110h-127z" />
    <glyph glyph-name="yacute" unicode="&#xfd;" horiz-adv-x="536" 
d="M143 11l-83 509h125l29 -200q11 -73 13 -175h1q32 75 89 175l114 200h139l-323 -552q-41 -70 -86.5 -101.5t-133.5 -31.5h-47l-18 95h65q43 0 65.5 16.5t50.5 64.5zM225 580l106 120h170l-146 -120h-130z" />
    <glyph glyph-name="thorn" unicode="&#xfe;" horiz-adv-x="632" 
d="M174 218q0 -61 28 -97t80 -36q83 0 135 63t52 158q0 62 -28.5 95.5t-84.5 33.5q-76 0 -129 -63.5t-53 -153.5zM144 71l-53 -251h-127l187 880h127l-51 -239q23 32 65.5 53t95.5 21q99 0 152 -64t53 -159q0 -134 -82.5 -230.5t-214.5 -96.5q-54 0 -94.5 25.5t-57.5 60.5z
" />
    <glyph glyph-name="ydieresis" unicode="&#xff;" horiz-adv-x="536" 
d="M143 11l-83 509h125l29 -200q11 -73 13 -175h1q32 75 89 175l114 200h139l-323 -552q-41 -70 -86.5 -101.5t-133.5 -31.5h-47l-18 95h65q43 0 65.5 16.5t50.5 64.5zM156 590l23 110h127l-23 -110h-127zM375 590l23 110h127l-23 -110h-127z" />
    <glyph glyph-name="Amacron" unicode="&#x100;" horiz-adv-x="702" 
d="M509 0l-28 155h-305l-94 -155h-144l434 700h130l136 -700h-129zM314 382l-71 -117h217l-21 117q-17 95 -22 183h-2q-30 -66 -101 -183zM279 780l19 90h350l-19 -90h-350z" />
    <glyph glyph-name="amacron" unicode="&#x101;" horiz-adv-x="580" 
d="M208 385h-132q54 150 248 150q93 0 151.5 -38t58.5 -116q0 -25 -7 -55l-69 -326h-126l12 55q-56 -70 -171 -70q-71 0 -122.5 42t-51.5 108q0 88 54.5 132t163.5 53l187 16l2 9q4 22 4 31q0 64 -91 64q-86 0 -111 -55zM198 80q67 0 117.5 38t64.5 107l4 19l-167 -15
q-45 -4 -69.5 -27t-24.5 -62q0 -60 75 -60zM183 600l19 90h350l-19 -90h-350z" />
    <glyph glyph-name="Abreve" unicode="&#x102;" horiz-adv-x="702" 
d="M509 0l-28 155h-305l-94 -155h-144l434 700h130l136 -700h-129zM314 382l-71 -117h217l-21 117q-17 95 -22 183h-2q-30 -66 -101 -183zM460 750q-69 0 -111 39.5t-42 94.5v11h86q0 -28 20.5 -41.5t50.5 -13.5q63 0 89 55h94q-22 -64 -68 -104.5t-119 -40.5z" />
    <glyph glyph-name="abreve" unicode="&#x103;" horiz-adv-x="580" 
d="M208 385h-132q54 150 248 150q93 0 151.5 -38t58.5 -116q0 -25 -7 -55l-69 -326h-126l12 55q-56 -70 -171 -70q-71 0 -122.5 42t-51.5 108q0 88 54.5 132t163.5 53l187 16l2 9q4 22 4 31q0 64 -91 64q-86 0 -111 -55zM198 80q67 0 117.5 38t64.5 107l4 19l-167 -15
q-45 -4 -69.5 -27t-24.5 -62q0 -60 75 -60zM365 570q-69 0 -111 39.5t-42 94.5v11h86q0 -28 20.5 -41.5t50.5 -13.5q63 0 89 55h94q-22 -64 -68 -104.5t-119 -40.5z" />
    <glyph glyph-name="Aogonek" unicode="&#x104;" horiz-adv-x="701" 
d="M565 -135q27 0 52 7l-52 -86q-30 -6 -58 -6q-45 0 -74.5 30t-29.5 71q0 85 104 125l-27 149h-305l-94 -155h-144l434 700h130l136 -700q-60 -26 -89.5 -50t-29.5 -51q0 -34 47 -34zM313 382l-71 -117h217l-21 117q-17 95 -22 183h-2q-30 -66 -101 -183z" />
    <glyph glyph-name="aogonek" unicode="&#x105;" horiz-adv-x="580" 
d="M386 -135q27 0 52 7l-52 -86q-30 -6 -58 -6q-45 0 -74.5 30t-29.5 71q0 88 110 127l10 47q-56 -70 -171 -70q-71 0 -122.5 42t-51.5 108q0 88 54.5 132t163.5 53l187 16l2 9q4 22 4 31q0 64 -91 64q-86 0 -111 -55h-132q54 150 248 150q93 0 151.5 -38t58.5 -116
q0 -25 -7 -55l-69 -326q-60 -26 -89.5 -50t-29.5 -51q0 -34 47 -34zM198 80q67 0 117.5 38t64.5 107l4 19l-167 -15q-45 -4 -69.5 -27t-24.5 -62q0 -60 75 -60z" />
    <glyph glyph-name="Cacute" unicode="&#x106;" horiz-adv-x="713" 
d="M345 -15q-136 0 -218 85.5t-82 214.5q0 177 122.5 303.5t297.5 126.5q113 0 186 -52.5t84 -142.5h-135q-10 41 -46.5 63t-93.5 22q-79 0 -146 -47t-103 -119t-36 -149q0 -85 45 -140t130 -55q56 0 100.5 25t68.5 70h146q-49 -97 -130 -151t-190 -54zM381 760l106 120h170
l-146 -120h-130z" />
    <glyph glyph-name="cacute" unicode="&#x107;" horiz-adv-x="560" 
d="M248 -15q-104 0 -164 68t-60 167q0 138 87 226.5t224 88.5q94 0 152 -44.5t65 -120.5h-125q-4 29 -28 47t-70 18q-81 0 -131 -66.5t-50 -148.5q0 -57 26.5 -96t79.5 -39q83 0 117 70h135q-76 -170 -258 -170zM254 580l106 120h170l-146 -120h-130z" />
    <glyph glyph-name="Ccircumflex" unicode="&#x108;" horiz-adv-x="713" 
d="M345 -15q-136 0 -218 85.5t-82 214.5q0 177 122.5 303.5t297.5 126.5q113 0 186 -52.5t84 -142.5h-135q-10 41 -46.5 63t-93.5 22q-79 0 -146 -47t-103 -119t-36 -149q0 -85 45 -140t130 -55q56 0 100.5 25t68.5 70h146q-49 -97 -130 -151t-190 -54zM533 760l-28 55
l-52 -55h-157l146 120h140l94 -120h-143z" />
    <glyph glyph-name="ccircumflex" unicode="&#x109;" horiz-adv-x="560" 
d="M248 -15q-104 0 -164 68t-60 167q0 138 87 226.5t224 88.5q94 0 152 -44.5t65 -120.5h-125q-4 29 -28 47t-70 18q-81 0 -131 -66.5t-50 -148.5q0 -57 26.5 -96t79.5 -39q83 0 117 70h135q-76 -170 -258 -170zM406 580l-28 55l-52 -55h-157l146 120h140l94 -120h-143z" />
    <glyph glyph-name="Cdotaccent" unicode="&#x10a;" horiz-adv-x="713" 
d="M345 -15q-136 0 -218 85.5t-82 214.5q0 177 122.5 303.5t297.5 126.5q113 0 186 -52.5t84 -142.5h-135q-10 41 -46.5 63t-93.5 22q-79 0 -146 -47t-103 -119t-36 -149q0 -85 45 -140t130 -55q56 0 100.5 25t68.5 70h146q-49 -97 -130 -151t-190 -54zM425 770l23 110h127
l-23 -110h-127z" />
    <glyph glyph-name="cdotaccent" unicode="&#x10b;" horiz-adv-x="560" 
d="M248 -15q-104 0 -164 68t-60 167q0 138 87 226.5t224 88.5q94 0 152 -44.5t65 -120.5h-125q-4 29 -28 47t-70 18q-81 0 -131 -66.5t-50 -148.5q0 -57 26.5 -96t79.5 -39q83 0 117 70h135q-76 -170 -258 -170zM293 590l23 110h127l-23 -110h-127z" />
    <glyph glyph-name="Ccaron" unicode="&#x10c;" horiz-adv-x="713" 
d="M345 -15q-136 0 -218 85.5t-82 214.5q0 177 122.5 303.5t297.5 126.5q113 0 186 -52.5t84 -142.5h-135q-10 41 -46.5 63t-93.5 22q-79 0 -146 -47t-103 -119t-36 -149q0 -85 45 -140t130 -55q56 0 100.5 25t68.5 70h146q-49 -97 -130 -151t-190 -54zM465 880l28 -55
l52 55h157l-146 -120h-140l-94 120h143z" />
    <glyph glyph-name="ccaron" unicode="&#x10d;" horiz-adv-x="560" 
d="M248 -15q-104 0 -164 68t-60 167q0 138 87 226.5t224 88.5q94 0 152 -44.5t65 -120.5h-125q-4 29 -28 47t-70 18q-81 0 -131 -66.5t-50 -148.5q0 -57 26.5 -96t79.5 -39q83 0 117 70h135q-76 -170 -258 -170zM338 700l28 -55l52 55h157l-146 -120h-140l-94 120h143z" />
    <glyph glyph-name="Dcaron" unicode="&#x10e;" horiz-adv-x="729" 
d="M289 0h-270l148 700h262q132 0 206 -68.5t74 -191.5q0 -119 -50 -218t-147 -160.5t-223 -61.5zM175 110h119q130 0 207.5 96.5t77.5 233.5q0 76 -41.5 113t-133.5 37h-127zM430 880l28 -55l52 55h157l-146 -120h-140l-94 120h143z" />
    <glyph glyph-name="dcaron" unicode="&#x10f;" horiz-adv-x="700" 
d="M648 500l73 200h132l-103 -200h-102zM443 302q0 61 -30 97t-83 36q-81 0 -131.5 -62t-50.5 -159q0 -61 31 -95t86 -34q74 0 126 62.5t52 154.5zM377 0l12 57q-59 -72 -165 -72q-92 0 -146 67t-54 161q0 133 81.5 227.5t210.5 94.5q61 0 101.5 -25.5t54.5 -63.5l54 254
h127l-149 -700h-127z" />
    <glyph glyph-name="Dcroat" unicode="&#x110;" horiz-adv-x="747" 
d="M307 0h-270l63 300h-99l22 105h99l63 295h262q132 0 206 -68.5t74 -191.5q0 -119 -50 -218t-147 -160.5t-223 -61.5zM193 110h119q130 0 207.5 96.5t77.5 233.5q0 76 -41.5 113t-133.5 37h-127l-39 -185h197l-22 -105h-198z" />
    <glyph glyph-name="dcroat" unicode="&#x111;" horiz-adv-x="605" 
d="M433 394l26 126h-210l20 95h210l18 85h127l-18 -85h70l-20 -95h-70l-110 -520h-127l9 45q-58 -60 -143 -60q-90 0 -143.5 63.5t-53.5 143.5q0 106 75.5 189.5t198.5 83.5q52 0 88.5 -20t52.5 -51zM405 255q0 47 -24 78.5t-75 31.5q-72 0 -117 -51t-45 -119
q0 -48 26.5 -79t76.5 -31q74 0 116 52t42 118z" />
    <glyph glyph-name="Emacron" unicode="&#x112;" horiz-adv-x="642" 
d="M19 0l148 700h510l-23 -110h-377l-37 -175h357l-24 -110h-357l-41 -195h377l-23 -110h-510zM265 780l19 90h350l-19 -90h-350z" />
    <glyph glyph-name="emacron" unicode="&#x113;" horiz-adv-x="591" 
d="M374 135h147q-90 -150 -264 -150q-107 0 -170.5 66.5t-63.5 163.5q0 133 89 226.5t227 93.5q100 0 162 -52t62 -149q0 -44 -15 -119h-400q-7 -53 22 -91.5t93 -38.5q68 0 111 50zM334 440q-57 0 -101.5 -37t-64.5 -93h270q8 55 -19 92.5t-85 37.5zM193 600l19 90h350
l-19 -90h-350z" />
    <glyph glyph-name="Ebreve" unicode="&#x114;" horiz-adv-x="642" 
d="M19 0l148 700h510l-23 -110h-377l-37 -175h357l-24 -110h-357l-41 -195h377l-23 -110h-510zM447 750q-69 0 -111 39.5t-42 94.5v11h86q0 -28 20.5 -41.5t50.5 -13.5q63 0 89 55h94q-22 -64 -68 -104.5t-119 -40.5z" />
    <glyph glyph-name="ebreve" unicode="&#x115;" horiz-adv-x="591" 
d="M374 135h147q-90 -150 -264 -150q-107 0 -170.5 66.5t-63.5 163.5q0 133 89 226.5t227 93.5q100 0 162 -52t62 -149q0 -44 -15 -119h-400q-7 -53 22 -91.5t93 -38.5q68 0 111 50zM334 440q-57 0 -101.5 -37t-64.5 -93h270q8 55 -19 92.5t-85 37.5zM375 570
q-69 0 -111 39.5t-42 94.5v11h86q0 -28 20.5 -41.5t50.5 -13.5q63 0 89 55h94q-22 -64 -68 -104.5t-119 -40.5z" />
    <glyph glyph-name="Edotaccent" unicode="&#x116;" horiz-adv-x="642" 
d="M19 0l148 700h510l-23 -110h-377l-37 -175h357l-24 -110h-357l-41 -195h377l-23 -110h-510zM374 770l23 110h127l-23 -110h-127z" />
    <glyph glyph-name="edotaccent" unicode="&#x117;" horiz-adv-x="591" 
d="M374 135h147q-90 -150 -264 -150q-107 0 -170.5 66.5t-63.5 163.5q0 133 89 226.5t227 93.5q100 0 162 -52t62 -149q0 -44 -15 -119h-400q-7 -53 22 -91.5t93 -38.5q68 0 111 50zM334 440q-57 0 -101.5 -37t-64.5 -93h270q8 55 -19 92.5t-85 37.5zM302 590l23 110h127
l-23 -110h-127z" />
    <glyph glyph-name="Eogonek" unicode="&#x118;" horiz-adv-x="642" 
d="M19 0l148 700h510l-23 -110h-377l-37 -175h357l-24 -110h-357l-41 -195h377l-23 -110q-60 -26 -89.5 -50t-29.5 -51q0 -34 47 -34q27 0 52 7l-52 -86q-30 -6 -58 -6q-45 0 -74.5 30t-29.5 71q0 79 90 119h-366z" />
    <glyph glyph-name="eogonek" unicode="&#x119;" horiz-adv-x="591" 
d="M334 440q-57 0 -101.5 -37t-64.5 -93h270q8 55 -19 92.5t-85 37.5zM341 -135q27 0 52 7l-52 -86q-30 -6 -58 -6q-45 0 -74.5 30t-29.5 71q0 66 62 105q-101 5 -159.5 70t-58.5 159q0 133 89 226.5t227 93.5q100 0 162 -52t62 -149q0 -44 -15 -119h-400q-7 -53 22 -91.5
t93 -38.5q68 0 111 50h147q-25 -44 -67 -82.5t-75.5 -59.5t-59 -45.5t-25.5 -48.5q0 -34 47 -34z" />
    <glyph glyph-name="Ecaron" unicode="&#x11a;" horiz-adv-x="642" 
d="M19 0l148 700h510l-23 -110h-377l-37 -175h357l-24 -110h-357l-41 -195h377l-23 -110h-510zM414 880l28 -55l52 55h157l-146 -120h-140l-94 120h143z" />
    <glyph glyph-name="ecaron" unicode="&#x11b;" horiz-adv-x="591" 
d="M374 135h147q-90 -150 -264 -150q-107 0 -170.5 66.5t-63.5 163.5q0 133 89 226.5t227 93.5q100 0 162 -52t62 -149q0 -44 -15 -119h-400q-7 -53 22 -91.5t93 -38.5q68 0 111 50zM334 440q-57 0 -101.5 -37t-64.5 -93h270q8 55 -19 92.5t-85 37.5zM342 700l28 -55l52 55
h157l-146 -120h-140l-94 120h143z" />
    <glyph glyph-name="Gcircumflex" unicode="&#x11c;" horiz-adv-x="751" 
d="M345 -15q-136 0 -218 85.5t-82 214.5q0 177 122.5 303.5t297.5 126.5q113 0 186 -52.5t84 -142.5h-135q-10 41 -46.5 63t-93.5 22q-79 0 -146 -47t-103 -119t-36 -149q0 -85 45 -140t130 -55q81 0 139.5 45.5t79.5 129.5h-202l67 110h287l-81 -380h-103l5 70
q-35 -39 -87 -62t-110 -23zM533 760l-28 55l-52 -55h-157l146 120h140l94 -120h-143z" />
    <glyph glyph-name="gcircumflex" unicode="&#x11d;" horiz-adv-x="628" 
d="M441 310q0 57 -29 91t-82 34q-72 0 -125 -56.5t-53 -138.5q0 -56 30 -90.5t80 -34.5q76 0 127.5 56t51.5 139zM236 15q-92 0 -150 63t-58 159q0 124 81.5 211t206.5 87q64 0 102 -24.5t52 -53.5l13 63h128l-100 -468q-26 -122 -103 -184.5t-192 -62.5q-96 0 -155 41
t-59 114h124q9 -60 96 -60q130 0 164 160l4 19q-21 -26 -61 -45t-93 -19zM418 580l-28 55l-52 -55h-157l146 120h140l94 -120h-143z" />
    <glyph glyph-name="Gbreve" unicode="&#x11e;" horiz-adv-x="751" 
d="M345 -15q-136 0 -218 85.5t-82 214.5q0 177 122.5 303.5t297.5 126.5q113 0 186 -52.5t84 -142.5h-135q-10 41 -46.5 63t-93.5 22q-79 0 -146 -47t-103 -119t-36 -149q0 -85 45 -140t130 -55q81 0 139.5 45.5t79.5 129.5h-202l67 110h287l-81 -380h-103l5 70
q-35 -39 -87 -62t-110 -23zM498 750q-69 0 -111 39.5t-42 94.5v11h86q0 -28 20.5 -41.5t50.5 -13.5q63 0 89 55h94q-22 -64 -68 -104.5t-119 -40.5z" />
    <glyph glyph-name="gbreve" unicode="&#x11f;" horiz-adv-x="628" 
d="M441 310q0 57 -29 91t-82 34q-72 0 -125 -56.5t-53 -138.5q0 -56 30 -90.5t80 -34.5q76 0 127.5 56t51.5 139zM236 15q-92 0 -150 63t-58 159q0 124 81.5 211t206.5 87q64 0 102 -24.5t52 -53.5l13 63h128l-100 -468q-26 -122 -103 -184.5t-192 -62.5q-96 0 -155 41
t-59 114h124q9 -60 96 -60q130 0 164 160l4 19q-21 -26 -61 -45t-93 -19zM383 570q-69 0 -111 39.5t-42 94.5v11h86q0 -28 20.5 -41.5t50.5 -13.5q63 0 89 55h94q-22 -64 -68 -104.5t-119 -40.5z" />
    <glyph glyph-name="Gdotaccent" unicode="&#x120;" horiz-adv-x="751" 
d="M345 -15q-136 0 -218 85.5t-82 214.5q0 177 122.5 303.5t297.5 126.5q113 0 186 -52.5t84 -142.5h-135q-10 41 -46.5 63t-93.5 22q-79 0 -146 -47t-103 -119t-36 -149q0 -85 45 -140t130 -55q81 0 139.5 45.5t79.5 129.5h-202l67 110h287l-81 -380h-103l5 70
q-35 -39 -87 -62t-110 -23zM425 770l23 110h127l-23 -110h-127z" />
    <glyph glyph-name="gdotaccent" unicode="&#x121;" horiz-adv-x="628" 
d="M441 310q0 57 -29 91t-82 34q-72 0 -125 -56.5t-53 -138.5q0 -56 30 -90.5t80 -34.5q76 0 127.5 56t51.5 139zM236 15q-92 0 -150 63t-58 159q0 124 81.5 211t206.5 87q64 0 102 -24.5t52 -53.5l13 63h128l-100 -468q-26 -122 -103 -184.5t-192 -62.5q-96 0 -155 41
t-59 114h124q9 -60 96 -60q130 0 164 160l4 19q-21 -26 -61 -45t-93 -19zM310 590l23 110h127l-23 -110h-127z" />
    <glyph glyph-name="Gcommaaccent" unicode="&#x122;" horiz-adv-x="751" 
d="M345 -15q-136 0 -218 85.5t-82 214.5q0 177 122.5 303.5t297.5 126.5q113 0 186 -52.5t84 -142.5h-135q-10 41 -46.5 63t-93.5 22q-79 0 -146 -47t-103 -119t-36 -149q0 -85 45 -140t130 -55q81 0 139.5 45.5t79.5 129.5h-202l67 110h287l-81 -380h-103l5 70
q-35 -39 -87 -62t-110 -23zM228 -155l23 105h127l-23 -105l-92 -105h-52l67 105h-50z" />
    <glyph glyph-name="gcommaaccent" unicode="&#x123;" horiz-adv-x="628" 
d="M441 310q0 57 -29 91t-82 34q-72 0 -125 -56.5t-53 -138.5q0 -56 30 -90.5t80 -34.5q76 0 127.5 56t51.5 139zM236 15q-92 0 -150 63t-58 159q0 124 81.5 211t206.5 87q64 0 102 -24.5t52 -53.5l13 63h128l-100 -468q-26 -122 -103 -184.5t-192 -62.5q-96 0 -155 41
t-59 114h124q9 -60 96 -60q130 0 164 160l4 19q-21 -26 -61 -45t-93 -19zM457 685l-23 -105h-127l23 105l92 105h52l-67 -105h50z" />
    <glyph glyph-name="Hcircumflex" unicode="&#x124;" horiz-adv-x="763" 
d="M767 700l-148 -700h-133l64 305h-334l-64 -305h-133l148 700h133l-60 -285h334l60 285h133zM527 760l-28 55l-52 -55h-157l146 120h140l94 -120h-143z" />
    <glyph glyph-name="hcircumflex" unicode="&#x125;" horiz-adv-x="613" 
d="M278 700l-52 -245q60 80 163 80q83 0 129 -44t46 -120q0 -31 -8 -65l-65 -306h-127l66 311q5 25 5 40q0 80 -87 80q-57 0 -100.5 -40t-58.5 -110l-60 -281h-127l149 700h127zM272 760l-28 55l-52 -55h-157l146 120h140l94 -120h-143z" />
    <glyph glyph-name="Hbar" unicode="&#x126;" horiz-adv-x="775" 
d="M773 700l-19 -90h70l-22 -105h-70l-107 -505h-133l64 305h-334l-64 -305h-133l107 505h-70l22 105h70l19 90h133l-19 -90h334l19 90h133zM246 415h334l19 90h-334z" />
    <glyph glyph-name="hbar" unicode="&#x127;" horiz-adv-x="614" 
d="M280 700l-18 -85h210l-20 -95h-210l-29 -135q60 80 163 80q83 0 129 -44t46 -120q0 -31 -8 -65l-50 -236h-127l51 241q5 25 5 40q0 80 -87 80q-57 0 -100.5 -40t-58.5 -110l-45 -211h-127l111 520h-70l20 95h70l18 85h127z" />
    <glyph glyph-name="Itilde" unicode="&#x128;" horiz-adv-x="296" 
d="M152 0h-133l148 700h133zM141 765h-85q13 60 49.5 95t88.5 35q30 0 58 -15t49 -30t35 -15q30 0 38 40h85q-13 -61 -49 -95.5t-88 -34.5q-30 0 -58 15t-49 30t-35 15q-31 0 -39 -40z" />
    <glyph glyph-name="itilde" unicode="&#x129;" horiz-adv-x="261" 
d="M4 0l111 520h127l-111 -520h-127zM86 585h-85q13 60 49.5 95t88.5 35q30 0 58 -15t49 -30t35 -15q30 0 38 40h85q-13 -61 -49 -95.5t-88 -34.5q-30 0 -58 15t-49 30t-35 15q-31 0 -39 -40z" />
    <glyph glyph-name="Imacron" unicode="&#x12a;" horiz-adv-x="296" 
d="M152 0h-133l148 700h133zM75 780l19 90h350l-19 -90h-350z" />
    <glyph glyph-name="imacron" unicode="&#x12b;" horiz-adv-x="261" 
d="M4 0l111 520h127l-111 -520h-127zM20 600l19 90h350l-19 -90h-350z" />
    <glyph glyph-name="Ibreve" unicode="&#x12c;" horiz-adv-x="296" 
d="M152 0h-133l148 700h133zM257 750q-69 0 -111 39.5t-42 94.5v11h86q0 -28 20.5 -41.5t50.5 -13.5q63 0 89 55h94q-22 -64 -68 -104.5t-119 -40.5z" />
    <glyph glyph-name="ibreve" unicode="&#x12d;" horiz-adv-x="261" 
d="M4 0l111 520h127l-111 -520h-127zM202 570q-69 0 -111 39.5t-42 94.5v11h86q0 -28 20.5 -41.5t50.5 -13.5q63 0 89 55h94q-22 -64 -68 -104.5t-119 -40.5z" />
    <glyph glyph-name="Iogonek" unicode="&#x12e;" horiz-adv-x="296" 
d="M80 -135q27 0 52 7l-52 -86q-30 -6 -58 -6q-45 0 -74.5 30t-29.5 71q0 84 102 124l147 695h133l-148 -700q-60 -26 -89.5 -50t-29.5 -51q0 -34 47 -34z" />
    <glyph glyph-name="iogonek" unicode="&#x12f;" horiz-adv-x="262" 
d="M59 -135q27 0 52 7l-52 -86q-30 -6 -58 -6q-45 0 -74.5 30t-29.5 71q0 84 109 128l109 511h127l-111 -520q-60 -26 -89.5 -50t-29.5 -51q0 -34 47 -34zM130 590l23 110h127l-23 -110h-127z" />
    <glyph glyph-name="Idotaccent" unicode="&#x130;" horiz-adv-x="296" 
d="M152 0h-133l148 700h133zM184 770l23 110h127l-23 -110h-127z" />
    <glyph glyph-name="dotlessi" unicode="&#x131;" horiz-adv-x="262" 
d="M4 0l111 520h127l-111 -520h-127z" />
    <glyph glyph-name="IJ" unicode="&#x132;" horiz-adv-x="682" 
d="M152 0h-133l148 700h133zM209 0h77q120 0 147 125l122 575h133l-125 -590q-47 -220 -292 -220h-41z" />
    <glyph glyph-name="ij" unicode="&#x133;" horiz-adv-x="512" 
d="M4 0l111 520h127l-111 -520h-127zM130 590l23 110h127l-23 -110h-127zM382 590l23 110h127l-23 -110h-127zM247 -45l120 565h127l-122 -574q-30 -141 -191 -141h-142l-19 100h166q50 0 61 50z" />
    <glyph glyph-name="Jcircumflex" unicode="&#x134;" horiz-adv-x="497" 
d="M-28 110h157q120 0 147 125l99 465h133l-102 -480q-47 -220 -292 -220h-121zM502 760l-28 55l-52 -55h-157l146 120h140l94 -120h-143z" />
    <glyph glyph-name="jcircumflex" unicode="&#x135;" horiz-adv-x="260" 
d="M-5 -45l120 565h127l-122 -574q-30 -141 -189 -141h-51l-19 100h73q50 0 61 50zM237 580l-28 55l-52 -55h-157l146 120h140l94 -120h-143z" />
    <glyph glyph-name="Kcommaaccent" unicode="&#x136;" horiz-adv-x="670" 
d="M464 0l-244 322l-68 -322h-133l148 700h133l-58 -275l330 275h180l-412 -340l284 -360h-160zM202 -155l23 105h127l-23 -105l-92 -105h-52l67 105h-50z" />
    <glyph glyph-name="kcommaaccent" unicode="&#x137;" horiz-adv-x="552" 
d="M293 270l213 -270h-153l-174 235l-50 -235h-127l149 700h127l-78 -368l224 188h173zM135 -155l23 105h127l-23 -105l-92 -105h-52l67 105h-50z" />
    <glyph glyph-name="kgreenlandic" unicode="&#x138;" horiz-adv-x="552" 
d="M293 270l213 -270h-153l-174 235l-50 -235h-127l111 520h127l-40 -188l224 188h173z" />
    <glyph glyph-name="Lacute" unicode="&#x139;" horiz-adv-x="584" 
d="M19 0l148 700h133l-125 -590h357l-23 -110h-490zM140 760l106 120h170l-146 -120h-130z" />
    <glyph glyph-name="lacute" unicode="&#x13a;" horiz-adv-x="262" 
d="M4 0l149 700h127l-149 -700h-127zM131 760l106 120h170l-146 -120h-130z" />
    <glyph glyph-name="Lcommaaccent" unicode="&#x13b;" horiz-adv-x="584" 
d="M19 0l148 700h133l-125 -590h357l-23 -110h-490zM167 -155l23 105h127l-23 -105l-92 -105h-52l67 105h-50z" />
    <glyph glyph-name="lcommaaccent" unicode="&#x13c;" horiz-adv-x="262" 
d="M4 0l149 700h127l-149 -700h-127zM-31 -155l23 105h127l-23 -105l-92 -105h-52l67 105h-50z" />
    <glyph glyph-name="Lcaron" unicode="&#x13d;" horiz-adv-x="584" 
d="M19 0l148 700h133l-125 -590h357l-23 -110h-490zM338 500l73 200h132l-103 -200h-102z" />
    <glyph glyph-name="lcaron" unicode="&#x13e;" horiz-adv-x="326" 
d="M273 500l73 200h132l-103 -200h-102zM4 0l149 700h127l-149 -700h-127z" />
    <glyph glyph-name="Ldot" unicode="&#x13f;" horiz-adv-x="584" 
d="M19 0l148 700h133l-125 -590h357l-23 -110h-490zM381 300l25 120h123l-25 -120h-123z" />
    <glyph glyph-name="ldot" unicode="&#x140;" horiz-adv-x="395" 
d="M4 0l149 700h127l-149 -700h-127zM263 290l25 120h127l-25 -120h-127z" />
    <glyph glyph-name="Lslash" unicode="&#x141;" horiz-adv-x="611" 
d="M47 0l43 205l-113 -65l28 130l113 65l77 365h133l-59 -278l197 113l-28 -130l-197 -113l-38 -182h357l-23 -110h-490z" />
    <glyph glyph-name="lslash" unicode="&#x142;" horiz-adv-x="395" 
d="M69 0l51 241l-116 -66l30 139l116 65l68 321h127l-51 -240l132 75l-30 -139l-132 -75l-68 -321h-127z" />
    <glyph glyph-name="Nacute" unicode="&#x143;" horiz-adv-x="773" 
d="M582 405l62 295h133l-148 -700h-134l-146 305q-73 154 -93 210h-2q-9 -70 -40 -220l-62 -295h-133l148 700h135l144 -305q70 -148 92 -210h2q10 75 42 220zM380 760l106 120h170l-146 -120h-130z" />
    <glyph glyph-name="nacute" unicode="&#x144;" horiz-adv-x="613" 
d="M240 520l-14 -65q27 36 70 58t93 22q83 0 129 -44t46 -120q0 -30 -8 -64l-65 -307h-127l65 307q6 30 6 45q0 79 -87 79q-57 0 -100.5 -40t-58.5 -110l-60 -281h-127l111 520h127zM262 580l106 120h170l-146 -120h-130z" />
    <glyph glyph-name="Ncommaaccent" unicode="&#x145;" horiz-adv-x="773" 
d="M582 405l62 295h133l-148 -700h-134l-146 305q-73 154 -93 210h-2q-9 -70 -40 -220l-62 -295h-133l148 700h135l144 -305q70 -148 92 -210h2q10 75 42 220zM227 -155l23 105h127l-23 -105l-92 -105h-52l67 105h-50z" />
    <glyph glyph-name="ncommaaccent" unicode="&#x146;" horiz-adv-x="613" 
d="M240 520l-14 -65q27 36 70 58t93 22q83 0 129 -44t46 -120q0 -30 -8 -64l-65 -307h-127l65 307q6 30 6 45q0 79 -87 79q-57 0 -100.5 -40t-58.5 -110l-60 -281h-127l111 520h127zM151 -155l23 105h127l-23 -105l-92 -105h-52l67 105h-50z" />
    <glyph glyph-name="Ncaron" unicode="&#x147;" horiz-adv-x="773" 
d="M582 405l62 295h133l-148 -700h-134l-146 305q-73 154 -93 210h-2q-9 -70 -40 -220l-62 -295h-133l148 700h135l144 -305q70 -148 92 -210h2q10 75 42 220zM464 880l28 -55l52 55h157l-146 -120h-140l-94 120h143z" />
    <glyph glyph-name="ncaron" unicode="&#x148;" horiz-adv-x="613" 
d="M240 520l-14 -65q27 36 70 58t93 22q83 0 129 -44t46 -120q0 -30 -8 -64l-65 -307h-127l65 307q6 30 6 45q0 79 -87 79q-57 0 -100.5 -40t-58.5 -110l-60 -281h-127l111 520h127zM346 700l28 -55l52 55h157l-146 -120h-140l-94 120h143z" />
    <glyph glyph-name="napostrophe" unicode="&#x149;" horiz-adv-x="662" 
d="M45 570l27 130h123l-27 -130l-98 -130h-48l73 130h-50zM289 520l-14 -65q27 36 70 58t93 22q83 0 129 -44t46 -120q0 -30 -8 -64l-65 -307h-127l65 307q6 30 6 45q0 79 -87 79q-57 0 -100.5 -40t-58.5 -110l-60 -281h-127l111 520h127z" />
    <glyph glyph-name="Eng" unicode="&#x14a;" horiz-adv-x="773" 
d="M582 405l62 295h133l-151 -715q-21 -100 -79.5 -140t-158.5 -40h-91l-21 110h122q45 0 65.5 18.5t31.5 66.5l-146 305q-71 149 -93 210h-2q-9 -70 -40 -220l-62 -295h-133l148 700h135l144 -305q70 -148 92 -210h2q8 57 42 220z" />
    <glyph glyph-name="eng" unicode="&#x14b;" horiz-adv-x="613" 
d="M556 307l-77 -361q-19 -73 -65 -107t-124 -34h-51l-19 100h73q50 0 61 50l75 352q6 30 6 45q0 79 -87 79q-57 0 -100.5 -40t-58.5 -110l-60 -281h-127l111 520h127l-14 -65q27 36 70 58t93 22q83 0 129 -44t46 -120q0 -30 -8 -64z" />
    <glyph glyph-name="Omacron" unicode="&#x14c;" horiz-adv-x="787" 
d="M350 95q80 0 146.5 46.5t102.5 118.5t36 150q0 86 -46 140.5t-129 54.5q-80 0 -146.5 -46.5t-102.5 -118.5t-36 -150q0 -86 46 -140.5t129 -54.5zM345 -15q-136 0 -218 85t-82 215q0 177 122.5 303.5t297.5 126.5q136 0 218 -85t82 -215q0 -177 -122.5 -303.5
t-297.5 -126.5zM321 780l19 90h350l-19 -90h-350z" />
    <glyph glyph-name="omacron" unicode="&#x14d;" 
d="M265 85q90 0 141.5 67t51.5 148q0 58 -29 96.5t-89 38.5q-90 0 -141.5 -67t-51.5 -148q0 -58 29 -96.5t89 -38.5zM260 -15q-104 0 -170.5 68t-66.5 167q0 132 92 223.5t230 91.5q104 0 170.5 -68t66.5 -167q0 -132 -92 -223.5t-230 -91.5zM201 600l19 90h350l-19 -90
h-350z" />
    <glyph glyph-name="Obreve" unicode="&#x14e;" horiz-adv-x="787" 
d="M350 95q80 0 146.5 46.5t102.5 118.5t36 150q0 86 -46 140.5t-129 54.5q-80 0 -146.5 -46.5t-102.5 -118.5t-36 -150q0 -86 46 -140.5t129 -54.5zM345 -15q-136 0 -218 85t-82 215q0 177 122.5 303.5t297.5 126.5q136 0 218 -85t82 -215q0 -177 -122.5 -303.5
t-297.5 -126.5zM503 750q-69 0 -111 39.5t-42 94.5v11h86q0 -28 20.5 -41.5t50.5 -13.5q63 0 89 55h94q-22 -64 -68 -104.5t-119 -40.5z" />
    <glyph glyph-name="obreve" unicode="&#x14f;" 
d="M265 85q90 0 141.5 67t51.5 148q0 58 -29 96.5t-89 38.5q-90 0 -141.5 -67t-51.5 -148q0 -58 29 -96.5t89 -38.5zM260 -15q-104 0 -170.5 68t-66.5 167q0 132 92 223.5t230 91.5q104 0 170.5 -68t66.5 -167q0 -132 -92 -223.5t-230 -91.5zM383 570q-69 0 -111 39.5
t-42 94.5v11h86q0 -28 20.5 -41.5t50.5 -13.5q63 0 89 55h94q-22 -64 -68 -104.5t-119 -40.5z" />
    <glyph glyph-name="Ohungarumlaut" unicode="&#x150;" horiz-adv-x="787" 
d="M350 95q80 0 146.5 46.5t102.5 118.5t36 150q0 86 -46 140.5t-129 54.5q-80 0 -146.5 -46.5t-102.5 -118.5t-36 -150q0 -86 46 -140.5t129 -54.5zM345 -15q-136 0 -218 85t-82 215q0 177 122.5 303.5t297.5 126.5q136 0 218 -85t82 -215q0 -177 -122.5 -303.5
t-297.5 -126.5zM316 760l91 120h145l-116 -120h-120zM496 760l91 120h145l-116 -120h-120z" />
    <glyph glyph-name="ohungarumlaut" unicode="&#x151;" 
d="M265 85q90 0 141.5 67t51.5 148q0 58 -29 96.5t-89 38.5q-90 0 -141.5 -67t-51.5 -148q0 -58 29 -96.5t89 -38.5zM260 -15q-104 0 -170.5 68t-66.5 167q0 132 92 223.5t230 91.5q104 0 170.5 -68t66.5 -167q0 -132 -92 -223.5t-230 -91.5zM196 580l91 120h145l-116 -120
h-120zM376 580l91 120h145l-116 -120h-120z" />
    <glyph glyph-name="OE" unicode="&#x152;" horiz-adv-x="1130" 
d="M526 0l12 55q-44 -33 -91.5 -51.5t-118.5 -18.5q-126 0 -204 86t-78 214q0 184 115 307t295 123q132 0 204 -86l15 71h490l-23 -110h-357l-38 -175h337l-23 -110h-337l-41 -195h357l-24 -110h-490zM176 290q0 -84 42 -139.5t123 -55.5t145 47.5t96 118.5t32 150
q0 84 -41 139t-122 55t-145.5 -47t-97 -118.5t-32.5 -149.5z" />
    <glyph glyph-name="oe" unicode="&#x153;" horiz-adv-x="1014" 
d="M797 135h147q-90 -150 -264 -150q-65 0 -116 26t-79 70q-91 -96 -225 -96q-104 0 -170.5 68t-66.5 167q0 132 92 223.5t230 91.5q63 0 114 -26.5t78 -72.5q82 99 225 99q100 0 162 -52t62 -149q0 -44 -15 -119h-400q-7 -53 22 -91.5t93 -38.5q68 0 111 50zM265 85
q90 0 141.5 67t51.5 148q0 58 -29 96.5t-89 38.5q-90 0 -141.5 -67t-51.5 -148q0 -58 29 -96.5t89 -38.5zM757 440q-57 0 -101.5 -37t-64.5 -93h270q8 55 -19 92.5t-85 37.5z" />
    <glyph glyph-name="Racute" unicode="&#x154;" horiz-adv-x="710" 
d="M255 280h-44l-60 -280h-133l149 700h351q92 0 146 -51t54 -129q0 -107 -74.5 -173.5t-195.5 -66.5h-40l220 -280h-158zM234 390h229q53 0 89 34t36 86q0 36 -22.5 58t-62.5 22h-227zM349 760l106 120h170l-146 -120h-130z" />
    <glyph glyph-name="racute" unicode="&#x155;" horiz-adv-x="387" 
d="M413 410h-85q-112 0 -138 -125l-61 -285h-127l111 520h127l-13 -60q24 35 57 52.5t90 17.5h18zM154 580l106 120h170l-146 -120h-130z" />
    <glyph glyph-name="Rcommaaccent" unicode="&#x156;" horiz-adv-x="710" 
d="M255 280h-44l-60 -280h-133l149 700h351q92 0 146 -51t54 -129q0 -107 -74.5 -173.5t-195.5 -66.5h-40l220 -280h-158zM234 390h229q53 0 89 34t36 86q0 36 -22.5 58t-62.5 22h-227zM207 -155l23 105h127l-23 -105l-92 -105h-52l67 105h-50z" />
    <glyph glyph-name="rcommaaccent" unicode="&#x157;" horiz-adv-x="387" 
d="M413 410h-85q-112 0 -138 -125l-61 -285h-127l111 520h127l-13 -60q24 35 57 52.5t90 17.5h18zM-30 -155l23 105h127l-23 -105l-92 -105h-52l67 105h-50z" />
    <glyph glyph-name="Rcaron" unicode="&#x158;" horiz-adv-x="710" 
d="M255 280h-44l-60 -280h-133l149 700h351q92 0 146 -51t54 -129q0 -107 -74.5 -173.5t-195.5 -66.5h-40l220 -280h-158zM234 390h229q53 0 89 34t36 86q0 36 -22.5 58t-62.5 22h-227zM428 880l28 -55l52 55h157l-146 -120h-140l-94 120h143z" />
    <glyph glyph-name="rcaron" unicode="&#x159;" horiz-adv-x="387" 
d="M413 410h-85q-112 0 -138 -125l-61 -285h-127l111 520h127l-13 -60q24 35 57 52.5t90 17.5h18zM243 700l28 -55l52 55h157l-146 -120h-140l-94 120h143z" />
    <glyph glyph-name="Sacute" unicode="&#x15a;" horiz-adv-x="652" 
d="M337 303q-122 15 -183.5 60.5t-61.5 141.5q0 87 80 148.5t220 61.5q128 0 189.5 -54.5t61.5 -131.5v-9h-132q2 90 -124 90q-73 0 -119 -28.5t-46 -76.5q0 -38 30 -56t105 -24q133 -11 189 -62.5t56 -142.5q0 -101 -88 -168t-237 -67q-128 0 -197.5 52.5t-69.5 134.5
q0 11 1 23h130v-8q0 -97 141 -97q92 0 141 35.5t49 84.5t-29 66t-106 27zM319 760l106 120h170l-146 -120h-130z" />
    <glyph glyph-name="sacute" unicode="&#x15b;" horiz-adv-x="520" 
d="M247 211q-81 9 -134.5 45t-53.5 105q0 79 58.5 126.5t172.5 47.5q102 0 151.5 -41.5t49.5 -97.5v-6h-125v3q0 52 -80 52q-52 0 -77.5 -18.5t-25.5 -46.5q0 -22 16.5 -35t68.5 -18q196 -19 196 -150q0 -90 -65 -141t-191 -51q-100 0 -157 42.5t-57 105.5q0 5 1 12h124v-6
q0 -64 93 -64q127 0 127 82q0 24 -20 36t-72 18zM214 580l106 120h170l-146 -120h-130z" />
    <glyph glyph-name="Scircumflex" unicode="&#x15c;" horiz-adv-x="652" 
d="M337 303q-122 15 -183.5 60.5t-61.5 141.5q0 87 80 148.5t220 61.5q128 0 189.5 -54.5t61.5 -131.5v-9h-132q2 90 -124 90q-73 0 -119 -28.5t-46 -76.5q0 -38 30 -56t105 -24q133 -11 189 -62.5t56 -142.5q0 -101 -88 -168t-237 -67q-128 0 -197.5 52.5t-69.5 134.5
q0 11 1 23h130v-8q0 -97 141 -97q92 0 141 35.5t49 84.5t-29 66t-106 27zM470 760l-28 55l-52 -55h-157l146 120h140l94 -120h-143z" />
    <glyph glyph-name="scircumflex" unicode="&#x15d;" horiz-adv-x="520" 
d="M247 211q-81 9 -134.5 45t-53.5 105q0 79 58.5 126.5t172.5 47.5q102 0 151.5 -41.5t49.5 -97.5v-6h-125v3q0 52 -80 52q-52 0 -77.5 -18.5t-25.5 -46.5q0 -22 16.5 -35t68.5 -18q196 -19 196 -150q0 -90 -65 -141t-191 -51q-100 0 -157 42.5t-57 105.5q0 5 1 12h124v-6
q0 -64 93 -64q127 0 127 82q0 24 -20 36t-72 18zM366 580l-28 55l-52 -55h-157l146 120h140l94 -120h-143z" />
    <glyph glyph-name="Scedilla" unicode="&#x15e;" horiz-adv-x="652" 
d="M138 -140h69q2 -20 30 -20q20 0 32.5 12.5t12.5 28.5q0 12 -8 20.5t-21 8.5q-14 0 -27 -11l-38 48l48 40q-109 9 -167.5 59.5t-58.5 125.5q0 11 1 23h130v-8q0 -97 141 -97q92 0 141 35.5t49 84.5t-29 66t-106 27q-122 15 -183.5 60.5t-61.5 141.5q0 87 80 148.5
t220 61.5q128 0 189.5 -54.5t61.5 -131.5v-9h-132q2 90 -124 90q-73 0 -119 -28.5t-46 -76.5q0 -38 30 -56t105 -24q133 -11 189 -62.5t56 -142.5t-71.5 -155.5t-196.5 -76.5l-40 -33q27 -1 42.5 -21.5t15.5 -48.5q0 -45 -34 -75t-82 -30q-41 0 -69.5 23t-28.5 57z" />
    <glyph glyph-name="scedilla" unicode="&#x15f;" horiz-adv-x="520" 
d="M62 -140h69q2 -20 30 -20q20 0 32.5 12.5t12.5 28.5q0 12 -8 20.5t-21 8.5q-14 0 -27 -11l-38 48l49 41q-79 9 -123 49.5t-44 95.5q0 5 1 12h124v-6q0 -64 93 -64q127 0 127 82q0 24 -20 36t-72 18q-81 9 -134.5 45t-53.5 105q0 79 58.5 126.5t172.5 47.5
q102 0 151.5 -41.5t49.5 -97.5v-6h-125v3q0 52 -80 52q-52 0 -77.5 -18.5t-25.5 -46.5q0 -22 16.5 -35t68.5 -18q196 -19 196 -150q0 -80 -52.5 -130t-154.5 -60l-39 -32q27 -1 42.5 -21.5t15.5 -48.5q0 -45 -34 -75t-82 -30q-41 0 -69.5 23t-28.5 57z" />
    <glyph glyph-name="Scaron" unicode="&#x160;" horiz-adv-x="652" 
d="M337 303q-122 15 -183.5 60.5t-61.5 141.5q0 87 80 148.5t220 61.5q128 0 189.5 -54.5t61.5 -131.5v-9h-132q2 90 -124 90q-73 0 -119 -28.5t-46 -76.5q0 -38 30 -56t105 -24q133 -11 189 -62.5t56 -142.5q0 -101 -88 -168t-237 -67q-128 0 -197.5 52.5t-69.5 134.5
q0 11 1 23h130v-8q0 -97 141 -97q92 0 141 35.5t49 84.5t-29 66t-106 27zM402 880l28 -55l52 55h157l-146 -120h-140l-94 120h143z" />
    <glyph glyph-name="scaron" unicode="&#x161;" horiz-adv-x="520" 
d="M247 211q-81 9 -134.5 45t-53.5 105q0 79 58.5 126.5t172.5 47.5q102 0 151.5 -41.5t49.5 -97.5v-6h-125v3q0 52 -80 52q-52 0 -77.5 -18.5t-25.5 -46.5q0 -22 16.5 -35t68.5 -18q196 -19 196 -150q0 -90 -65 -141t-191 -51q-100 0 -157 42.5t-57 105.5q0 5 1 12h124v-6
q0 -64 93 -64q127 0 127 82q0 24 -20 36t-72 18zM298 700l28 -55l52 55h157l-146 -120h-140l-94 120h143z" />
    <glyph glyph-name="Tcommaaccent" unicode="&#x162;" horiz-adv-x="629" 
d="M694 700l-23 -110h-228l-125 -590h-133l125 590h-229l23 110h590zM155 -155l23 105h127l-23 -105l-92 -105h-52l67 105h-50z" />
    <glyph glyph-name="tcommaaccent" unicode="&#x163;" horiz-adv-x="413" 
d="M282 420l-61 -285q-2 -12 -2 -16q0 -24 34 -24h95l-58 -95h-62q-138 0 -138 101q0 16 5 39l60 280h-125l21 100h125l26 120h127l-26 -120h135l-21 -100h-135zM82 -155l23 105h127l-23 -105l-92 -105h-52l67 105h-50z" />
    <glyph glyph-name="Tcaron" unicode="&#x164;" horiz-adv-x="629" 
d="M694 700l-23 -110h-228l-125 -590h-133l125 590h-229l23 110h590zM391 880l28 -55l52 55h157l-146 -120h-140l-94 120h143z" />
    <glyph glyph-name="tcaron" unicode="&#x165;" horiz-adv-x="413" 
d="M349 580l73 200h132l-103 -200h-102zM282 420l-61 -285q-2 -12 -2 -16q0 -24 34 -24h95l-58 -95h-62q-138 0 -138 101q0 16 5 39l60 280h-125l21 100h125l26 120h127l-26 -120h135l-21 -100h-135z" />
    <glyph glyph-name="Tbar" unicode="&#x166;" horiz-adv-x="638" 
d="M536 310h-149l-65 -310h-133l65 310h-149l23 105h149l37 175h-229l23 110h590l-23 -110h-228l-37 -175h149z" />
    <glyph glyph-name="tbar" unicode="&#x167;" horiz-adv-x="415" 
d="M283 420l-16 -75h108l-19 -90h-108l-26 -120q-2 -12 -2 -16q0 -24 34 -24h95l-58 -95h-62q-138 0 -138 101q0 16 5 39l25 115h-90l19 90h90l16 75h-125l21 100h125l26 120h127l-26 -120h135l-21 -100h-135z" />
    <glyph glyph-name="Utilde" unicode="&#x168;" horiz-adv-x="727" 
d="M65 260l93 440h133l-95 -450q-6 -26 -6 -47q0 -52 31 -80t89 -28q77 0 132 45t71 120l93 440h133l-95 -450q-25 -116 -116.5 -190.5t-222.5 -74.5q-117 0 -182 60t-65 155q0 25 7 60zM357 765h-85q13 60 49.5 95t88.5 35q30 0 58 -15t49 -30t35 -15q30 0 38 40h85
q-13 -61 -49 -95.5t-88 -34.5q-30 0 -58 15t-49 30t-35 15q-31 0 -39 -40z" />
    <glyph glyph-name="utilde" unicode="&#x169;" horiz-adv-x="608" 
d="M352 0l11 52q-52 -67 -154 -67q-83 0 -129.5 45t-46.5 121q0 30 8 64l65 305h127l-67 -315q-6 -24 -6 -45q0 -70 86 -70q58 0 99.5 37.5t56.5 107.5l61 285h127l-111 -520h-127zM256 585h-85q13 60 49.5 95t88.5 35q30 0 58 -15t49 -30t35 -15q30 0 38 40h85
q-13 -61 -49 -95.5t-88 -34.5q-30 0 -58 15t-49 30t-35 15q-31 0 -39 -40z" />
    <glyph glyph-name="Umacron" unicode="&#x16a;" horiz-adv-x="727" 
d="M65 260l93 440h133l-95 -450q-6 -26 -6 -47q0 -52 31 -80t89 -28q77 0 132 45t71 120l93 440h133l-95 -450q-25 -116 -116.5 -190.5t-222.5 -74.5q-117 0 -182 60t-65 155q0 25 7 60zM291 780l19 90h350l-19 -90h-350z" />
    <glyph glyph-name="umacron" unicode="&#x16b;" horiz-adv-x="608" 
d="M352 0l11 52q-52 -67 -154 -67q-83 0 -129.5 45t-46.5 121q0 30 8 64l65 305h127l-67 -315q-6 -24 -6 -45q0 -70 86 -70q58 0 99.5 37.5t56.5 107.5l61 285h127l-111 -520h-127zM190 600l19 90h350l-19 -90h-350z" />
    <glyph glyph-name="Ubreve" unicode="&#x16c;" horiz-adv-x="727" 
d="M65 260l93 440h133l-95 -450q-6 -26 -6 -47q0 -52 31 -80t89 -28q77 0 132 45t71 120l93 440h133l-95 -450q-25 -116 -116.5 -190.5t-222.5 -74.5q-117 0 -182 60t-65 155q0 25 7 60zM473 750q-69 0 -111 39.5t-42 94.5v11h86q0 -28 20.5 -41.5t50.5 -13.5q63 0 89 55h94
q-22 -64 -68 -104.5t-119 -40.5z" />
    <glyph glyph-name="ubreve" unicode="&#x16d;" horiz-adv-x="608" 
d="M352 0l11 52q-52 -67 -154 -67q-83 0 -129.5 45t-46.5 121q0 30 8 64l65 305h127l-67 -315q-6 -24 -6 -45q0 -70 86 -70q58 0 99.5 37.5t56.5 107.5l61 285h127l-111 -520h-127zM372 570q-69 0 -111 39.5t-42 94.5v11h86q0 -28 20.5 -41.5t50.5 -13.5q63 0 89 55h94
q-22 -64 -68 -104.5t-119 -40.5z" />
    <glyph glyph-name="Uring" unicode="&#x16e;" horiz-adv-x="727" 
d="M65 260l93 440h133l-95 -450q-6 -26 -6 -47q0 -52 31 -80t89 -28q77 0 132 45t71 120l93 440h133l-95 -450q-25 -116 -116.5 -190.5t-222.5 -74.5q-117 0 -182 60t-65 155q0 25 7 60zM448 720q33 0 55.5 19t22.5 45q0 20 -15 33t-40 13q-33 0 -55.5 -19t-22.5 -45
q0 -20 15 -33t40 -13zM439 655q-54 0 -88 31.5t-34 74.5q0 56 46 95t117 39q54 0 88 -31t34 -75q0 -56 -46 -95t-117 -39z" />
    <glyph glyph-name="uring" unicode="&#x16f;" horiz-adv-x="608" 
d="M352 0l11 52q-52 -67 -154 -67q-83 0 -129.5 45t-46.5 121q0 30 8 64l65 305h127l-67 -315q-6 -24 -6 -45q0 -70 86 -70q58 0 99.5 37.5t56.5 107.5l61 285h127l-111 -520h-127zM371 630q33 0 55.5 19t22.5 45q0 20 -15 33t-40 13q-33 0 -55.5 -19t-22.5 -45
q0 -20 15 -33t40 -13zM362 565q-54 0 -88 31.5t-34 74.5q0 56 46 95t117 39q54 0 88 -31t34 -75q0 -56 -46 -95t-117 -39z" />
    <glyph glyph-name="Uhungarumlaut" unicode="&#x170;" horiz-adv-x="727" 
d="M65 260l93 440h133l-95 -450q-6 -26 -6 -47q0 -52 31 -80t89 -28q77 0 132 45t71 120l93 440h133l-95 -450q-25 -116 -116.5 -190.5t-222.5 -74.5q-117 0 -182 60t-65 155q0 25 7 60zM286 760l91 120h145l-116 -120h-120zM466 760l91 120h145l-116 -120h-120z" />
    <glyph glyph-name="uhungarumlaut" unicode="&#x171;" horiz-adv-x="608" 
d="M352 0l11 52q-52 -67 -154 -67q-83 0 -129.5 45t-46.5 121q0 30 8 64l65 305h127l-67 -315q-6 -24 -6 -45q0 -70 86 -70q58 0 99.5 37.5t56.5 107.5l61 285h127l-111 -520h-127zM185 580l91 120h145l-116 -120h-120zM365 580l91 120h145l-116 -120h-120z" />
    <glyph glyph-name="Uogonek" unicode="&#x172;" horiz-adv-x="728" 
d="M411 -135q27 0 52 7l-52 -86q-30 -6 -58 -6q-45 0 -74.5 30t-29.5 71q0 66 62 104h-5q-117 0 -182 60t-65 155q0 25 7 60l93 440h133l-95 -450q-6 -26 -6 -47q0 -52 31 -80t89 -28q77 0 132 45t71 120l93 440h133l-95 -450q-11 -53 -37.5 -98.5t-57 -74t-64 -54.5
t-60.5 -43.5t-44.5 -38.5t-17.5 -42q0 -34 47 -34z" />
    <glyph glyph-name="uogonek" unicode="&#x173;" horiz-adv-x="608" 
d="M353 5l10 47q-52 -67 -154 -67q-83 0 -129.5 45t-46.5 121q0 30 8 64l65 305h127l-67 -315q-6 -24 -6 -45q0 -70 86 -70q58 0 99.5 37.5t56.5 107.5l61 285h127l-111 -520q-60 -26 -89.5 -50t-29.5 -51q0 -34 47 -34q27 0 52 7l-52 -86q-30 -6 -58 -6q-45 0 -74.5 30
t-29.5 71q0 89 108 124z" />
    <glyph glyph-name="Wcircumflex" unicode="&#x174;" horiz-adv-x="972" 
d="M537 530h-2q-33 -87 -83 -186l-169 -344h-130l-51 700h125l19 -332q5 -86 1 -198h2q42 105 89 199l162 331h132l22 -331q6 -95 3 -199h2q50 125 85 198l160 332h138l-349 -700h-130l-23 344q-7 99 -3 186zM631 760l-28 55l-52 -55h-157l146 120h140l94 -120h-143z" />
    <glyph glyph-name="wcircumflex" unicode="&#x175;" horiz-adv-x="798" 
d="M418 380h-2q-31 -81 -85 -184l-102 -196h-120l-44 520h122l8 -204q3 -106 -3 -186h2q41 102 83 185l105 205h120l18 -205q8 -96 4 -185h2q30 88 75 186l94 204h134l-266 -520h-119l-19 196q-9 86 -7 184zM506 580l-28 55l-52 -55h-157l146 120h140l94 -120h-143z" />
    <glyph glyph-name="Ycircumflex" unicode="&#x176;" horiz-adv-x="614" 
d="M178 0l59 279l-145 421h131l94 -310l226 310h149l-322 -421l-59 -279h-133zM452 760l-28 55l-52 -55h-157l146 120h140l94 -120h-143z" />
    <glyph glyph-name="ycircumflex" unicode="&#x177;" horiz-adv-x="536" 
d="M143 11l-83 509h125l29 -200q11 -73 13 -175h1q32 75 89 175l114 200h139l-323 -552q-41 -70 -86.5 -101.5t-133.5 -31.5h-47l-18 95h65q43 0 65.5 16.5t50.5 64.5zM374 580l-28 55l-52 -55h-157l146 120h140l94 -120h-143z" />
    <glyph glyph-name="Ydieresis" unicode="&#x178;" horiz-adv-x="614" 
d="M178 0l59 279l-145 421h131l94 -310l226 310h149l-322 -421l-59 -279h-133zM235 770l23 110h127l-23 -110h-127zM454 770l23 110h127l-23 -110h-127z" />
    <glyph glyph-name="Zacute" unicode="&#x179;" horiz-adv-x="618" 
d="M546 110l-23 -110h-550l23 110l464 480h-352l23 110h525l-23 -110l-464 -480h377zM304 760l106 120h170l-146 -120h-130z" />
    <glyph glyph-name="zacute" unicode="&#x17a;" horiz-adv-x="528" 
d="M163 100h289l-21 -100h-460l21 100l347 320h-269l22 100h440l-22 -100zM219 580l106 120h170l-146 -120h-130z" />
    <glyph glyph-name="Zdotaccent" unicode="&#x17b;" horiz-adv-x="618" 
d="M546 110l-23 -110h-550l23 110l464 480h-352l23 110h525l-23 -110l-464 -480h377zM348 770l23 110h127l-23 -110h-127z" />
    <glyph glyph-name="zdotaccent" unicode="&#x17c;" horiz-adv-x="528" 
d="M163 100h289l-21 -100h-460l21 100l347 320h-269l22 100h440l-22 -100zM263 590l23 110h127l-23 -110h-127z" />
    <glyph glyph-name="Zcaron" unicode="&#x17d;" horiz-adv-x="618" 
d="M546 110l-23 -110h-550l23 110l464 480h-352l23 110h525l-23 -110l-464 -480h377zM388 880l28 -55l52 55h157l-146 -120h-140l-94 120h143z" />
    <glyph glyph-name="zcaron" unicode="&#x17e;" horiz-adv-x="528" 
d="M163 100h289l-21 -100h-460l21 100l347 320h-269l22 100h440l-22 -100zM303 700l28 -55l52 55h157l-146 -120h-140l-94 120h143z" />
    <glyph glyph-name="longs" unicode="&#x17f;" horiz-adv-x="325" 
d="M39 420l21 100h104l11 50q15 70 56 100t114 30h81l17 -95h-98q-39 0 -49 -45l-119 -560h-123l89 420h-104z" />
    <glyph glyph-name="uni018F" unicode="&#x18f;" horiz-adv-x="751" 
d="M245 515h-152q115 200 337 200q136 0 218 -79.5t82 -208.5q0 -186 -117 -314t-298 -128q-135 0 -209 79t-74 206q0 51 16 130h549q9 89 -35.5 147t-136.5 58q-60 0 -108.5 -25.5t-71.5 -64.5zM320 95q86 0 154.5 55.5t97.5 139.5h-410q-8 -86 32 -140.5t126 -54.5z" />
    <glyph glyph-name="florin" unicode="&#x192;" horiz-adv-x="480" 
d="M6 -45l181 465h-119l22 100h134l23 57q29 72 69.5 97.5t111.5 25.5h72l18 -95h-87q-23 0 -35.5 -9t-20.5 -31l-17 -45h142l-22 -100h-159l-187 -480q-28 -72 -67.5 -96t-111.5 -24h-69l-18 95h84q23 0 35.5 9t20.5 31z" />
    <glyph glyph-name="uni01B5" unicode="&#x1b5;" horiz-adv-x="619" 
d="M68 305l22 105h196l174 180h-352l23 110h525l-23 -110l-174 -180h121l-22 -105h-201l-188 -195h377l-23 -110h-550l23 110l188 195h-116z" />
    <glyph glyph-name="uni01B6" unicode="&#x1b6;" horiz-adv-x="528" 
d="M163 100h289l-21 -100h-460l21 100l130 120h-79l19 90h158l119 110h-269l22 100h440l-22 -100l-120 -110h87l-19 -90h-165z" />
    <glyph glyph-name="Aringacute" unicode="&#x1fa;" horiz-adv-x="699" 
d="M507 0l-28 155h-305l-94 -155h-144l349 563q-10 19 -10 43q0 56 46 95t117 39q54 0 88 -31t34 -75q0 -47 -32 -81l108 -553h-129zM397 500q-9 0 -17 1q-23 -43 -68 -119l-71 -117h217l-21 117q-10 50 -17 119q-10 -1 -23 -1zM343 760l106 120h170l-146 -120h-130z
M406 565q33 0 55.5 19t22.5 45q0 20 -15 33t-40 13q-33 0 -55.5 -19t-22.5 -45q0 -20 15 -33t40 -13z" />
    <glyph glyph-name="aringacute" unicode="&#x1fb;" horiz-adv-x="580" 
d="M208 385h-132q41 115 165 142q-25 27 -25 64q0 56 46 95t117 39q54 0 88 -31t34 -75q0 -66 -59 -104q92 -38 92 -134q0 -25 -7 -55l-69 -326h-126l12 55q-56 -70 -171 -70q-71 0 -122.5 42t-51.5 108q0 88 54.5 132t163.5 53l187 16l2 9q4 22 4 31q0 64 -91 64
q-86 0 -111 -55zM198 80q67 0 117.5 38t64.5 107l4 19l-167 -15q-45 -4 -69.5 -27t-24.5 -62q0 -60 75 -60zM286 760l106 120h170l-146 -120h-130zM347 550q33 0 55.5 19t22.5 45q0 20 -15 33t-40 13q-33 0 -55.5 -19t-22.5 -45q0 -20 15 -33t40 -13z" />
    <glyph glyph-name="AEacute" unicode="&#x1fc;" horiz-adv-x="1077" 
d="M964 0h-490l33 155h-283l-130 -155h-160l599 700h580l-24 -110h-357l-37 -175h337l-23 -110h-337l-42 -195h357zM590 590l-273 -325h213l69 325h-9zM720 760l106 120h170l-146 -120h-130z" />
    <glyph glyph-name="aeacute" unicode="&#x1fd;" horiz-adv-x="946" 
d="M433 580l106 120h170l-146 -120h-130zM404 336l2 9q4 22 4 31q0 64 -92 64q-86 0 -111 -55h-132q55 150 248 150q123 0 180 -64q82 64 191 64q100 0 162 -52t62 -149q0 -44 -15 -119h-400q-7 -53 22 -91.5t93 -38.5q68 0 111 50h147q-90 -150 -264 -150q-129 0 -193 97
q-35 -39 -96.5 -68t-140.5 -29q-78 0 -131 41.5t-53 108.5q0 88 55 132t165 53zM196 80q67 0 119 38t66 107l4 19l-167 -15q-45 -4 -70.5 -27t-25.5 -62q0 -60 74 -60zM689 440q-57 0 -101.5 -37t-64.5 -93h270q9 55 -18.5 92.5t-85.5 37.5z" />
    <glyph glyph-name="Oslashacute" unicode="&#x1fe;" horiz-adv-x="786" 
d="M344 -15q-105 0 -183 54l-40 -39h-147l116 114q-46 74 -46 171q0 177 122.5 303.5t297.5 126.5q106 0 182 -54l40 39h147l-116 -114q47 -75 47 -171q0 -177 -122.5 -303.5t-297.5 -126.5zM349 95q80 0 146.5 46.5t102.5 118.5t36 150q0 46 -13 81l-374 -367
q41 -29 102 -29zM174 290q0 -45 12 -81l374 367q-44 29 -101 29q-80 0 -146.5 -46.5t-102.5 -118.5t-36 -150zM385 760l106 120h170l-146 -120h-130z" />
    <glyph glyph-name="oslashacute" unicode="&#x1ff;" 
d="M266 580l106 120h170l-146 -120h-130zM260 -15q-76 0 -132 36l-22 -21h-128l85 85q-40 58 -40 135q0 132 92 223.5t230 91.5q74 0 133 -38l23 23h128l-87 -86q40 -58 40 -134q0 -132 -92 -223.5t-230 -91.5zM147 220q0 -25 5 -47l248 247q-27 15 -60 15q-90 0 -141.5 -67
t-51.5 -148zM265 85q90 0 141.5 67t51.5 148q0 20 -5 45l-247 -246q25 -14 59 -14z" />
    <glyph glyph-name="Scommaaccent" unicode="&#x218;" horiz-adv-x="652" 
d="M337 303q-122 15 -183.5 60.5t-61.5 141.5q0 87 80 148.5t220 61.5q128 0 189.5 -54.5t61.5 -131.5v-9h-132q2 90 -124 90q-73 0 -119 -28.5t-46 -76.5q0 -38 30 -56t105 -24q133 -11 189 -62.5t56 -142.5q0 -101 -88 -168t-237 -67q-128 0 -197.5 52.5t-69.5 134.5
q0 11 1 23h130v-8q0 -97 141 -97q92 0 141 35.5t49 84.5t-29 66t-106 27zM180 -155l23 105h127l-23 -105l-92 -105h-52l67 105h-50z" />
    <glyph glyph-name="scommaaccent" unicode="&#x219;" horiz-adv-x="520" 
d="M247 211q-81 9 -134.5 45t-53.5 105q0 79 58.5 126.5t172.5 47.5q102 0 151.5 -41.5t49.5 -97.5v-6h-125v3q0 52 -80 52q-52 0 -77.5 -18.5t-25.5 -46.5q0 -22 16.5 -35t68.5 -18q196 -19 196 -150q0 -90 -65 -141t-191 -51q-100 0 -157 42.5t-57 105.5q0 5 1 12h124v-6
q0 -64 93 -64q127 0 127 82q0 24 -20 36t-72 18zM105 -155l23 105h127l-23 -105l-92 -105h-52l67 105h-50z" />
    <glyph glyph-name="uni021A" unicode="&#x21a;" horiz-adv-x="629" 
d="M694 700l-23 -110h-228l-125 -590h-133l125 590h-229l23 110h590zM155 -155l23 105h127l-23 -105l-92 -105h-52l67 105h-50z" />
    <glyph glyph-name="uni021B" unicode="&#x21b;" horiz-adv-x="413" 
d="M282 420l-61 -285q-2 -12 -2 -16q0 -24 34 -24h95l-58 -95h-62q-138 0 -138 101q0 16 5 39l60 280h-125l21 100h125l26 120h127l-26 -120h135l-21 -100h-135zM82 -155l23 105h127l-23 -105l-92 -105h-52l67 105h-50z" />
    <glyph glyph-name="dotlessj" unicode="&#x237;" horiz-adv-x="260" 
d="M-5 -45l120 565h127l-122 -574q-30 -141 -189 -141h-51l-19 100h73q50 0 61 50z" />
    <glyph glyph-name="uni0259" unicode="&#x259;" horiz-adv-x="591" 
d="M202 385h-147q90 150 264 150q107 0 170.5 -66.5t63.5 -163.5q0 -133 -89 -226.5t-227 -93.5q-100 0 -162 52t-62 149q0 44 15 119h400q7 53 -22 91.5t-93 38.5q-68 0 -111 -50zM242 80q57 0 101.5 37t64.5 93h-270q-8 -55 19 -92.5t85 -37.5z" />
    <glyph glyph-name="circumflex" unicode="&#x2c6;" horiz-adv-x="410" 
d="M257 580l-28 55l-52 -55h-157l146 120h140l94 -120h-143z" />
    <glyph glyph-name="caron" unicode="&#x2c7;" horiz-adv-x="410" 
d="M189 700l28 -55l52 55h157l-146 -120h-140l-94 120h143z" />
    <glyph glyph-name="breve" unicode="&#x2d8;" horiz-adv-x="390" 
d="M212 570q-69 0 -111 39.5t-42 94.5v11h86q0 -28 20.5 -41.5t50.5 -13.5q63 0 89 55h94q-22 -64 -68 -104.5t-119 -40.5z" />
    <glyph glyph-name="dotaccent" unicode="&#x2d9;" horiz-adv-x="210" 
d="M49 590l23 110h127l-23 -110h-127z" />
    <glyph glyph-name="ring" unicode="&#x2da;" horiz-adv-x="320" 
d="M176 630q33 0 55.5 19t22.5 45q0 20 -15 33t-40 13q-33 0 -55.5 -19t-22.5 -45q0 -20 15 -33t40 -13zM167 565q-54 0 -88 31.5t-34 74.5q0 56 46 95t117 39q54 0 88 -31t34 -75q0 -56 -46 -95t-117 -39z" />
    <glyph glyph-name="ogonek" unicode="&#x2db;" horiz-adv-x="240" 
d="M33 -135q27 0 52 7l-52 -86q-30 -6 -58 -6q-45 0 -74.5 30t-29.5 71q0 84 102 124l132 -5q-60 -26 -89.5 -50t-29.5 -51q0 -34 47 -34z" />
    <glyph glyph-name="tilde" unicode="&#x2dc;" horiz-adv-x="440" 
d="M121 585h-85q13 60 49.5 95t88.5 35q30 0 58 -15t49 -30t35 -15q30 0 38 40h85q-13 -61 -49 -95.5t-88 -34.5q-30 0 -58 15t-49 30t-35 15q-31 0 -39 -40z" />
    <glyph glyph-name="hungarumlaut" unicode="&#x2dd;" horiz-adv-x="490" 
d="M55 580l91 120h145l-116 -120h-120zM235 580l91 120h145l-116 -120h-120z" />
    <glyph glyph-name="Delta" unicode="&#x394;" 
d="M-26 0l21 100l338 600h124l82 -600l-21 -100h-544zM364 531l-235 -431h286z" />
    <glyph glyph-name="Omega" unicode="&#x3a9;" 
d="M373 615q-105 0 -170.5 -80.5t-65.5 -194.5q0 -67 30 -110t83 -55l-37 -175h-262l21 100h177l1 5q-65 30 -101 97.5t-36 147.5q0 157 105 261t260 104q124 0 199.5 -74t75.5 -188q0 -118 -69 -214t-179 -134l-1 -5h162l-21 -100h-262l37 175q91 19 149 91.5t58 180.5
q0 75 -41 121.5t-113 46.5z" />
    <glyph glyph-name="mu" unicode="&#x3bc;" 
d="M364 0l8 33q-47 -48 -123 -48q-77 0 -110 55l-47 -220h-127l149 700h127l-66 -310q-5 -20 -5 -40q0 -85 95 -85q56 0 93.5 33t49.5 87l67 315h127l-111 -520h-127z" />
    <glyph glyph-name="pi" unicode="&#x3c0;" 
d="M319 0l89 420h-142l-89 -420h-127l89 420h-65l22 100h526l-22 -100h-65l-89 -420h-127z" />
    <glyph glyph-name="Wgrave" unicode="&#x1e80;" horiz-adv-x="972" 
d="M537 530h-2q-33 -87 -83 -186l-169 -344h-130l-51 700h125l19 -332q5 -86 1 -198h2q42 105 89 199l162 331h132l22 -331q6 -95 3 -199h2q50 125 85 198l160 332h138l-349 -700h-130l-23 344q-7 99 -3 186zM625 880l54 -120h-110l-94 120h150z" />
    <glyph glyph-name="wgrave" unicode="&#x1e81;" horiz-adv-x="798" 
d="M418 380h-2q-31 -81 -85 -184l-102 -196h-120l-44 520h122l8 -204q3 -106 -3 -186h2q41 102 83 185l105 205h120l18 -205q8 -96 4 -185h2q30 88 75 186l94 204h134l-266 -520h-119l-19 196q-9 86 -7 184zM500 700l54 -120h-110l-94 120h150z" />
    <glyph glyph-name="Wacute" unicode="&#x1e82;" horiz-adv-x="972" 
d="M537 530h-2q-33 -87 -83 -186l-169 -344h-130l-51 700h125l19 -332q5 -86 1 -198h2q42 105 89 199l162 331h132l22 -331q6 -95 3 -199h2q50 125 85 198l160 332h138l-349 -700h-130l-23 344q-7 99 -3 186zM479 760l106 120h170l-146 -120h-130z" />
    <glyph glyph-name="wacute" unicode="&#x1e83;" horiz-adv-x="798" 
d="M418 380h-2q-31 -81 -85 -184l-102 -196h-120l-44 520h122l8 -204q3 -106 -3 -186h2q41 102 83 185l105 205h120l18 -205q8 -96 4 -185h2q30 88 75 186l94 204h134l-266 -520h-119l-19 196q-9 86 -7 184zM354 580l106 120h170l-146 -120h-130z" />
    <glyph glyph-name="Wdieresis" unicode="&#x1e84;" horiz-adv-x="972" 
d="M537 530h-2q-33 -87 -83 -186l-169 -344h-130l-51 700h125l19 -332q5 -86 1 -198h2q42 105 89 199l162 331h132l22 -331q6 -95 3 -199h2q50 125 85 198l160 332h138l-349 -700h-130l-23 344q-7 99 -3 186zM413 770l23 110h127l-23 -110h-127zM632 770l23 110h127
l-23 -110h-127z" />
    <glyph glyph-name="wdieresis" unicode="&#x1e85;" horiz-adv-x="798" 
d="M418 380h-2q-31 -81 -85 -184l-102 -196h-120l-44 520h122l8 -204q3 -106 -3 -186h2q41 102 83 185l105 205h120l18 -205q8 -96 4 -185h2q30 88 75 186l94 204h134l-266 -520h-119l-19 196q-9 86 -7 184zM288 590l23 110h127l-23 -110h-127zM507 590l23 110h127l-23 -110
h-127z" />
    <glyph glyph-name="uni1E8A" unicode="&#x1e8a;" horiz-adv-x="649" 
d="M716 700l-304 -338l181 -362h-141l-128 263l-231 -263h-160l336 375l-163 325h141l110 -227l199 227h160zM363 770l23 110h127l-23 -110h-127z" />
    <glyph glyph-name="uni1E8B" unicode="&#x1e8b;" horiz-adv-x="531" 
d="M331 0l-85 173l-153 -173h-152l252 276l-126 244h133l75 -153l135 153h151l-234 -256l138 -264h-134zM265 590l23 110h127l-23 -110h-127z" />
    <glyph glyph-name="Ygrave" unicode="&#x1ef2;" horiz-adv-x="614" 
d="M178 0l59 279l-145 421h131l94 -310l226 310h149l-322 -421l-59 -279h-133zM446 880l54 -120h-110l-94 120h150z" />
    <glyph glyph-name="ygrave" unicode="&#x1ef3;" horiz-adv-x="536" 
d="M143 11l-83 509h125l29 -200q11 -73 13 -175h1q32 75 89 175l114 200h139l-323 -552q-41 -70 -86.5 -101.5t-133.5 -31.5h-47l-18 95h65q43 0 65.5 16.5t50.5 64.5zM366 700l54 -120h-110l-94 120h150z" />
    <glyph glyph-name="enspace" unicode="&#x2002;" horiz-adv-x="540" 
 />
    <glyph glyph-name="emspace" unicode="&#x2003;" horiz-adv-x="1080" 
 />
    <glyph glyph-name="threeperemspace" unicode="&#x2004;" horiz-adv-x="360" 
 />
    <glyph glyph-name="fourperemspace" unicode="&#x2005;" horiz-adv-x="270" 
 />
    <glyph glyph-name="thinspace" unicode="&#x2009;" horiz-adv-x="120" 
 />
    <glyph glyph-name="hairspace" unicode="&#x200a;" horiz-adv-x="60" 
 />
    <glyph glyph-name="endash" unicode="&#x2013;" horiz-adv-x="636" 
d="M40 210l21 100h520l-21 -100h-520z" />
    <glyph glyph-name="emdash" unicode="&#x2014;" horiz-adv-x="1156" 
d="M40 210l21 100h1040l-21 -100h-1040z" />
    <glyph glyph-name="quoteleft" unicode="&#x2018;" horiz-adv-x="271" 
d="M263 550l-32 -150h-153l32 150l122 150h63l-92 -150h60z" />
    <glyph glyph-name="quoteright" unicode="&#x2019;" horiz-adv-x="261" 
d="M116 550l32 150h153l-32 -150l-122 -150h-63l92 150h-60z" />
    <glyph glyph-name="quotesinglbase" unicode="&#x201a;" horiz-adv-x="271" 
d="M-3 0l32 150h153l-32 -150l-122 -150h-63l92 150h-60z" />
    <glyph glyph-name="quotedblleft" unicode="&#x201c;" horiz-adv-x="491" 
d="M263 550l-32 -150h-153l32 150l122 150h63l-92 -150h60zM483 550l-32 -150h-153l32 150l122 150h63l-92 -150h60z" />
    <glyph glyph-name="quotedblright" unicode="&#x201d;" horiz-adv-x="481" 
d="M116 550l32 150h153l-32 -150l-122 -150h-63l92 150h-60zM336 550l32 150h153l-32 -150l-122 -150h-63l92 150h-60z" />
    <glyph glyph-name="quotedblbase" unicode="&#x201e;" horiz-adv-x="491" 
d="M-3 0l32 150h153l-32 -150l-122 -150h-63l92 150h-60zM217 0l32 150h153l-32 -150l-122 -150h-63l92 150h-60z" />
    <glyph glyph-name="dagger" unicode="&#x2020;" horiz-adv-x="596" 
d="M260 -180h-127l128 600h-202l21 100h202l39 180h127l-39 -180h201l-21 -100h-201z" />
    <glyph glyph-name="daggerdbl" unicode="&#x2021;" horiz-adv-x="631" 
d="M278 -180h-125l38 180h-202l21 100h202l68 320h-202l22 100h202l38 180h127l-38 -180h201l-22 -100h-201l-68 -320h201l-21 -100h-201z" />
    <glyph glyph-name="bullet" unicode="&#x2022;" horiz-adv-x="429" 
d="M32 260q0 73 51 124t124 51t124 -51t51 -124t-51 -124t-124 -51t-124 51t-51 124z" />
    <glyph glyph-name="ellipsis" unicode="&#x2026;" horiz-adv-x="769" 
d="M-3 0l32 150h153l-32 -150h-153zM246 0l32 150h153l-32 -150h-153zM495 0l32 150h153l-32 -150h-153z" />
    <glyph glyph-name="perthousand" unicode="&#x2030;" horiz-adv-x="1293" 
d="M154 0l533 700h106l-533 -700h-106zM229 355q39 0 66 32.5t37 74.5t10 88q0 85 -63 85q-39 0 -66 -32.5t-37 -74.5t-10 -88q0 -85 63 -85zM224 280q-67 0 -108 40.5t-41 119.5q0 132 58.5 201t150.5 69q67 0 108 -40.5t41 -119.5q0 -132 -58.5 -201t-150.5 -69zM667 65
q39 0 66 32.5t37 74.5t10 88q0 85 -63 85q-39 0 -66 -32.5t-37 -74.5t-10 -88q0 -85 63 -85zM662 -10q-67 0 -108 40.5t-41 119.5q0 132 58.5 201t150.5 69q67 0 108 -40.5t41 -119.5q0 -132 -58.5 -201t-150.5 -69zM1037 65q39 0 66 32.5t37 74.5t10 88q0 85 -63 85
q-39 0 -66 -32.5t-37 -74.5t-10 -88q0 -85 63 -85zM1032 -10q-67 0 -108 40.5t-41 119.5q0 132 58.5 201t150.5 69q67 0 108 -40.5t41 -119.5q0 -132 -58.5 -201t-150.5 -69z" />
    <glyph glyph-name="guilsinglleft" unicode="&#x2039;" horiz-adv-x="390" 
d="M9 260l201 170h155l-216 -175l144 -165h-140z" />
    <glyph glyph-name="guilsinglright" unicode="&#x203a;" horiz-adv-x="392" 
d="M367 260l-201 -170h-155l216 175l-144 165h140z" />
    <glyph glyph-name="fraction" unicode="&#x2044;" horiz-adv-x="180" 
d="M-218 0l533 700h106l-533 -700h-106z" />
    <glyph glyph-name="uni2070" unicode="&#x2070;" horiz-adv-x="433" 
d="M234 355q39 0 66 32.5t37 74.5t10 88q0 85 -63 85q-39 0 -66 -32.5t-37 -74.5t-10 -88q0 -85 63 -85zM229 280q-67 0 -108 40.5t-41 119.5q0 132 58.5 201t150.5 69q67 0 108 -40.5t41 -119.5q0 -132 -58.5 -201t-150.5 -69z" />
    <glyph glyph-name="uni2074" unicode="&#x2074;" horiz-adv-x="402" 
d="M55 440l240 260h102l-55 -260h58l-16 -75h-58l-16 -75h-93l16 75h-194zM148 440h101l14 65q12 53 29 100h-1q-26 -39 -70 -86z" />
    <glyph glyph-name="uni2075" unicode="&#x2075;" horiz-adv-x="389" 
d="M60 400h91v-5q0 -19 13.5 -30.5t40.5 -11.5q37 0 60.5 27.5t23.5 70.5q0 56 -52 56q-49 0 -71 -52l-78 35l59 210h262l-16 -75h-174l-20 -71q28 21 63 21q58 0 88 -35t30 -87q0 -77 -48 -125t-132 -48q-68 0 -104 33t-36 81v6z" />
    <glyph glyph-name="uni2076" unicode="&#x2076;" horiz-adv-x="416" 
d="M295 710q59 0 92.5 -25t37.5 -70h-92q-6 27 -43 27q-36 0 -61.5 -27.5t-34.5 -71.5q34 29 86 29q61 0 95 -37t34 -87q0 -73 -53.5 -120.5t-132.5 -47.5q-70 0 -106.5 44t-36.5 118q0 134 63.5 201t151.5 67zM228 350q37 0 63 29.5t26 64.5q0 26 -14 43.5t-42 17.5
q-42 0 -65.5 -30t-23.5 -66q0 -26 14.5 -42.5t41.5 -16.5z" />
    <glyph glyph-name="uni2077" unicode="&#x2077;" horiz-adv-x="341" 
d="M386 625l-241 -335h-100l241 335h-190l16 75h290z" />
    <glyph glyph-name="uni2078" unicode="&#x2078;" horiz-adv-x="406" 
d="M204 578q0 -18 13 -30.5t37 -12.5q33 0 52.5 18.5t19.5 43.5q0 19 -12.5 31t-37.5 12q-32 0 -52 -18.5t-20 -43.5zM299 420q0 21 -15 35.5t-44 14.5q-38 0 -61 -21.5t-23 -48.5q0 -21 15 -35.5t44 -14.5q38 0 61 21.5t23 48.5zM342 505q48 -23 48 -83q0 -64 -51 -103
t-129 -39q-65 0 -105.5 33.5t-40.5 82.5q0 83 92 117q-19 9 -30.5 30.5t-11.5 41.5q0 53 45 89t122 36q64 0 101 -31t37 -77q0 -29 -21 -56t-56 -41z" />
    <glyph glyph-name="uni2079" unicode="&#x2079;" horiz-adv-x="417" 
d="M206 280q-57 0 -93 25.5t-37 69.5h91q5 -27 43 -27q36 0 61.5 27.5t34.5 71.5q-32 -29 -86 -29q-57 0 -92.5 37.5t-35.5 86.5q0 73 53.5 120.5t131.5 47.5q71 0 107.5 -42.5t36.5 -115.5q0 -138 -61 -205t-154 -67zM272 640q-37 0 -62.5 -29.5t-25.5 -64.5
q0 -26 13.5 -43.5t41.5 -17.5q42 0 65.5 30t23.5 66q0 26 -14.5 42.5t-41.5 16.5z" />
    <glyph glyph-name="uni2080" unicode="&#x2080;" horiz-adv-x="434" 
d="M173 65q39 0 66 32.5t37 74.5t10 88q0 85 -63 85q-39 0 -66 -32.5t-37 -74.5t-10 -88q0 -85 63 -85zM168 -10q-67 0 -108 40.5t-41 119.5q0 132 58.5 201t150.5 69q67 0 108 -40.5t41 -119.5q0 -132 -58.5 -201t-150.5 -69z" />
    <glyph glyph-name="uni2081" unicode="&#x2081;" horiz-adv-x="307" 
d="M165 0h-93l63 295l-120 -105l25 120l120 100h93z" />
    <glyph glyph-name="uni2082" unicode="&#x2082;" horiz-adv-x="383" 
d="M138 305h-94q34 115 153 115q66 0 102 -32t36 -78t-24.5 -80.5t-72.5 -69.5l-114 -85h171l-16 -75h-300l16 75l186 145q36 28 49 46t13 39q0 40 -46 40t-59 -40z" />
    <glyph glyph-name="uni2083" unicode="&#x2083;" horiz-adv-x="387" 
d="M-6 110h90q0 -45 55 -45q38 0 58 19t20 47q0 19 -13.5 31.5t-40.5 12.5h-35l15 70h35q30 0 48 18t18 41q0 17 -11.5 29t-33.5 12q-47 0 -58 -40h-96q11 51 53 83t107 32q61 0 96.5 -32t35.5 -78q0 -37 -22.5 -63t-54.5 -37q22 -9 35 -31t13 -51q0 -64 -48.5 -101
t-126.5 -37q-63 0 -101 32.5t-38 80.5v7z" />
    <glyph glyph-name="uni2084" unicode="&#x2084;" horiz-adv-x="402" 
d="M-7 150l240 260h102l-55 -260h58l-16 -75h-58l-16 -75h-93l16 75h-194zM86 150h101l14 65q12 53 29 100h-1q-26 -39 -70 -86z" />
    <glyph glyph-name="uni2085" unicode="&#x2085;" horiz-adv-x="390" 
d="M-1 110h91v-5q0 -19 13.5 -30.5t40.5 -11.5q37 0 60.5 27.5t23.5 70.5q0 56 -52 56q-49 0 -71 -52l-78 35l59 210h262l-16 -75h-174l-20 -71q28 21 63 21q58 0 88 -35t30 -87q0 -77 -48 -125t-132 -48q-68 0 -104 33t-36 81v6z" />
    <glyph glyph-name="uni2086" unicode="&#x2086;" horiz-adv-x="416" 
d="M233 420q59 0 92.5 -25t37.5 -70h-92q-6 27 -43 27q-36 0 -61.5 -27.5t-34.5 -71.5q34 29 86 29q61 0 95 -37t34 -87q0 -73 -53.5 -120.5t-132.5 -47.5q-70 0 -106.5 44t-36.5 118q0 134 63.5 201t151.5 67zM166 60q37 0 63 29.5t26 64.5q0 26 -14 43.5t-42 17.5
q-42 0 -65.5 -30t-23.5 -66q0 -26 14.5 -42.5t41.5 -16.5z" />
    <glyph glyph-name="uni2087" unicode="&#x2087;" horiz-adv-x="342" 
d="M325 335l-241 -335h-100l241 335h-190l16 75h290z" />
    <glyph glyph-name="uni2088" unicode="&#x2088;" horiz-adv-x="407" 
d="M143 288q0 -18 13 -30.5t37 -12.5q33 0 52.5 18.5t19.5 43.5q0 19 -12.5 31t-37.5 12q-32 0 -52 -18.5t-20 -43.5zM238 130q0 21 -15 35.5t-44 14.5q-38 0 -61 -21.5t-23 -48.5q0 -21 15 -35.5t44 -14.5q38 0 61 21.5t23 48.5zM281 215q48 -23 48 -83q0 -64 -51 -103
t-129 -39q-65 0 -105.5 33.5t-40.5 82.5q0 83 92 117q-19 9 -30.5 30.5t-11.5 41.5q0 53 45 89t122 36q64 0 101 -31t37 -77q0 -29 -21 -56t-56 -41z" />
    <glyph glyph-name="uni2089" unicode="&#x2089;" horiz-adv-x="416" 
d="M144 -10q-57 0 -93 25.5t-37 69.5h91q5 -27 43 -27q36 0 61.5 27.5t34.5 71.5q-32 -29 -86 -29q-57 0 -92.5 37.5t-35.5 86.5q0 73 53.5 120.5t131.5 47.5q71 0 107.5 -42.5t36.5 -115.5q0 -138 -61 -205t-154 -67zM210 350q-37 0 -62.5 -29.5t-25.5 -64.5
q0 -26 13.5 -43.5t41.5 -17.5q42 0 65.5 30t23.5 66q0 26 -14.5 42.5t-41.5 16.5z" />
    <glyph glyph-name="Euro" unicode="&#x20ac;" horiz-adv-x="694" 
d="M391 215h-149q8 -62 38 -93.5t78 -31.5q87 0 125 70h140q-39 -87 -110 -131t-162 -44q-98 0 -161 59t-74 171h-96l21 100h75q2 31 6 60h-68l21 100h72q42 121 130 180.5t199 59.5q93 0 159 -45t69 -130h-127q-4 32 -32 51t-76 19q-59 0 -107.5 -35.5t-79.5 -99.5h266
l-60 -100h-238q-6 -26 -9 -60h210z" />
    <glyph glyph-name="uni2117" unicode="&#x2117;" horiz-adv-x="823" 
d="M58 350q0 151 107 258t258 107t258 -107t107 -258t-107 -258t-258 -107t-258 107t-107 258zM489 309h-136v-164h-70v410h206q59 0 94 -34t35 -89t-35 -89t-94 -34zM353 371h136q29 0 44 17t15 44t-15 44t-44 17h-136v-122zM123 350q0 -126 88 -215.5t212 -89.5t212 89.5
t88 215.5t-88 215.5t-212 89.5t-212 -89.5t-88 -215.5z" />
    <glyph glyph-name="trademark" unicode="&#x2122;" horiz-adv-x="989" 
d="M482 700l-16 -75h-135l-71 -335h-93l71 335h-134l16 75h362zM683 290l-58 165q-16 44 -27 105h-2q-5 -54 -16 -110l-34 -160h-93l87 410h93l50 -156q20 -60 26 -99q19 34 68 99l116 156h107l-87 -410h-93l34 160q8 38 30 110h-2q-29 -50 -71 -105z" />
    <glyph glyph-name="uni2126" unicode="&#x2126;" 
d="M373 615q-105 0 -170.5 -80.5t-65.5 -194.5q0 -67 30 -110t83 -55l-37 -175h-262l21 100h177l1 5q-65 30 -101 97.5t-36 147.5q0 157 105 261t260 104q124 0 199.5 -74t75.5 -188q0 -118 -69 -214t-179 -134l-1 -5h162l-21 -100h-262l37 175q91 19 149 91.5t58 180.5
q0 75 -41 121.5t-113 46.5z" />
    <glyph glyph-name="onethird" unicode="&#x2153;" horiz-adv-x="850" 
d="M97 0l533 700h106l-533 -700h-106zM224 290h-93l63 295l-120 -105l25 120l120 100h93zM461 110h90q0 -45 55 -45q38 0 58 19t20 47q0 19 -13.5 31.5t-40.5 12.5h-35l15 70h35q30 0 48 18t18 41q0 17 -11.5 29t-33.5 12q-47 0 -58 -40h-96q11 51 53 83t107 32
q61 0 96.5 -32t35.5 -78q0 -37 -22.5 -63t-54.5 -37q22 -9 35 -31t13 -51q0 -64 -48.5 -101t-126.5 -37q-63 0 -101 32.5t-38 80.5v7z" />
    <glyph glyph-name="twothirds" unicode="&#x2154;" horiz-adv-x="917" 
d="M165 0l533 700h106l-533 -700h-106zM201 595h-94q35 115 153 115q66 0 102 -32t36 -78t-24.5 -80.5t-72.5 -69.5l-114 -85h171l-16 -75h-300l16 75l186 145q36 28 49 46t13 39q0 40 -46 40t-59 -40zM529 110h90q0 -45 55 -45q38 0 58 19t20 47q0 19 -13.5 31.5
t-40.5 12.5h-35l15 70h35q30 0 48 18t18 41q0 17 -11.5 29t-33.5 12q-47 0 -58 -40h-96q11 51 53 83t107 32q61 0 96.5 -32t35.5 -78q0 -37 -22.5 -63t-54.5 -37q22 -9 35 -31t13 -51q0 -64 -48.5 -101t-126.5 -37q-63 0 -101 32.5t-38 80.5v7z" />
    <glyph glyph-name="uni2155" unicode="&#x2155;" horiz-adv-x="877" 
d="M97 0l533 700h106l-533 -700h-106zM224 290h-93l63 295l-120 -105l25 120l120 100h93zM487 110h91v-5q0 -19 13.5 -30.5t40.5 -11.5q37 0 60.5 27.5t23.5 70.5q0 56 -52 56q-49 0 -71 -52l-78 35l59 210h262l-16 -75h-174l-20 -71q28 21 63 21q58 0 88 -35t30 -87
q0 -77 -48 -125t-132 -48q-68 0 -104 33t-36 81v6z" />
    <glyph glyph-name="uni2156" unicode="&#x2156;" horiz-adv-x="943" 
d="M164 0l533 700h106l-533 -700h-106zM200 595h-94q34 115 153 115q66 0 102 -32t36 -78t-24.5 -80.5t-72.5 -69.5l-114 -85h171l-16 -75h-300l16 75l186 145q36 28 49 46t13 39q0 40 -46 40t-59 -40zM554 110h91v-5q0 -19 13.5 -30.5t40.5 -11.5q37 0 60.5 27.5t23.5 70.5
q0 56 -52 56q-49 0 -71 -52l-78 35l59 210h262l-16 -75h-174l-20 -71q28 21 63 21q58 0 88 -35t30 -87q0 -77 -48 -125t-132 -48q-68 0 -104 33t-36 81v6z" />
    <glyph glyph-name="uni2157" unicode="&#x2157;" horiz-adv-x="916" 
d="M137 0l533 700h106l-533 -700h-106zM527 110h91q-2 -20 12 -33.5t42 -13.5q37 0 60.5 27.5t23.5 70.5q0 56 -52 56q-49 0 -71 -52l-78 35l59 210h262l-16 -75h-174l-20 -71q28 21 63 21q58 0 88 -35t30 -87q0 -77 -48 -125t-132 -48q-71 0 -106.5 35.5t-33.5 84.5z
M57 400h90q0 -45 55 -45q38 0 58 19t20 47q0 19 -13.5 31.5t-40.5 12.5h-35l15 70h35q30 0 48 18t18 41q0 17 -11.5 29t-33.5 12q-47 0 -58 -40h-96q11 51 53 83t107 32q61 0 96.5 -32t35.5 -78q0 -37 -22.5 -63t-54.5 -37q22 -9 35 -31t13 -51q0 -64 -48.5 -101t-126.5 -37
q-63 0 -101 32.5t-38 80.5v7z" />
    <glyph glyph-name="uni2158" unicode="&#x2158;" horiz-adv-x="966" 
d="M185 0l533 700h106l-533 -700h-106zM64 440l240 260h102l-55 -260h58l-16 -75h-58l-16 -75h-93l16 75h-194zM157 440h101l14 65q12 53 29 100h-1q-26 -39 -70 -86zM575 110h91v-5q0 -19 13.5 -30.5t40.5 -11.5q37 0 60.5 27.5t23.5 70.5q0 56 -52 56q-49 0 -71 -52
l-78 35l59 210h262l-16 -75h-174l-20 -71q28 21 63 21q58 0 88 -35t30 -87q0 -77 -48 -125t-132 -48q-68 0 -104 33t-36 81v6z" />
    <glyph glyph-name="uni2159" unicode="&#x2159;" horiz-adv-x="866" 
d="M98 0l533 700h106l-533 -700h-106zM225 290h-93l63 295l-120 -105l25 120l120 100h93zM684 420q59 0 92.5 -25t37.5 -70h-92q-6 27 -43 27q-36 0 -61.5 -27.5t-34.5 -71.5q34 29 86 29q61 0 95 -37t34 -87q0 -73 -53.5 -120.5t-132.5 -47.5q-70 0 -106.5 44t-36.5 118
q0 134 63.5 201t151.5 67zM617 60q37 0 63 29.5t26 64.5q0 26 -14 43.5t-42 17.5q-42 0 -65.5 -30t-23.5 -66q0 -26 14.5 -42.5t41.5 -16.5z" />
    <glyph glyph-name="uni215A" unicode="&#x215a;" horiz-adv-x="906" 
d="M139 0l533 700h106l-533 -700h-106zM725 420q59 0 92.5 -25t37.5 -70h-92q-6 27 -43 27q-36 0 -61.5 -27.5t-34.5 -71.5q34 29 86 29q61 0 95 -37t34 -87q0 -73 -53.5 -120.5t-132.5 -47.5q-70 0 -106.5 44t-36.5 118q0 134 63.5 201t151.5 67zM658 60q37 0 63 29.5
t26 64.5q0 26 -14 43.5t-42 17.5q-42 0 -65.5 -30t-23.5 -66q0 -26 14.5 -42.5t41.5 -16.5zM59 400h91v-5q0 -19 13.5 -30.5t40.5 -11.5q37 0 60.5 27.5t23.5 70.5q0 56 -52 56q-49 0 -71 -52l-78 35l59 210h262l-16 -75h-174l-20 -71q28 21 63 21q58 0 88 -35t30 -87
q0 -77 -48 -125t-132 -48q-68 0 -104 33t-36 81v6z" />
    <glyph glyph-name="oneeighth" unicode="&#x215b;" horiz-adv-x="864" 
d="M97 0l533 700h106l-533 -700h-106zM224 290h-93l63 295l-120 -105l25 120l120 100h93zM604 288q0 -18 13 -30.5t37 -12.5q33 0 52.5 18.5t19.5 43.5q0 19 -12.5 31t-37.5 12q-32 0 -52 -18.5t-20 -43.5zM699 130q0 21 -15 35.5t-44 14.5q-38 0 -61 -21.5t-23 -48.5
q0 -21 15 -35.5t44 -14.5q38 0 61 21.5t23 48.5zM742 215q48 -23 48 -83q0 -64 -51 -103t-129 -39q-65 0 -105.5 33.5t-40.5 82.5q0 83 92 117q-19 9 -30.5 30.5t-11.5 41.5q0 53 45 89t122 36q64 0 101 -31t37 -77q0 -29 -21 -56t-56 -41z" />
    <glyph glyph-name="threeeighths" unicode="&#x215c;" horiz-adv-x="904" 
d="M139 0l533 700h106l-533 -700h-106zM645 288q0 -18 13 -30.5t37 -12.5q33 0 52.5 18.5t19.5 43.5q0 19 -12.5 31t-37.5 12q-32 0 -52 -18.5t-20 -43.5zM740 130q0 21 -15 35.5t-44 14.5q-38 0 -61 -21.5t-23 -48.5q0 -21 15 -35.5t44 -14.5q38 0 61 21.5t23 48.5z
M783 215q48 -23 48 -83q0 -64 -51 -103t-129 -39q-65 0 -105.5 33.5t-40.5 82.5q0 83 92 117q-19 9 -30.5 30.5t-11.5 41.5q0 53 45 89t122 36q64 0 101 -31t37 -77q0 -29 -21 -56t-56 -41zM58 400h90q0 -45 55 -45q38 0 58 19t20 47q0 19 -13.5 31.5t-40.5 12.5h-35l15 70
h35q30 0 48 18t18 41q0 17 -11.5 29t-33.5 12q-47 0 -58 -40h-96q11 51 53 83t107 32q61 0 96.5 -32t35.5 -78q0 -37 -22.5 -63t-54.5 -37q22 -9 35 -31t13 -51q0 -64 -48.5 -101t-126.5 -37q-63 0 -101 32.5t-38 80.5v7z" />
    <glyph glyph-name="fiveeighths" unicode="&#x215d;" horiz-adv-x="904" 
d="M138 0l533 700h106l-533 -700h-106zM645 288q0 -18 13 -30.5t37 -12.5q33 0 52.5 18.5t19.5 43.5q0 19 -12.5 31t-37.5 12q-32 0 -52 -18.5t-20 -43.5zM740 130q0 21 -15 35.5t-44 14.5q-38 0 -61 -21.5t-23 -48.5q0 -21 15 -35.5t44 -14.5q38 0 61 21.5t23 48.5z
M783 215q48 -23 48 -83q0 -64 -51 -103t-129 -39q-65 0 -105.5 33.5t-40.5 82.5q0 83 92 117q-19 9 -30.5 30.5t-11.5 41.5q0 53 45 89t122 36q64 0 101 -31t37 -77q0 -29 -21 -56t-56 -41zM58 400h91v-5q0 -19 13.5 -30.5t40.5 -11.5q37 0 60.5 27.5t23.5 70.5q0 56 -52 56
q-49 0 -71 -52l-78 35l59 210h262l-16 -75h-174l-20 -71q28 21 63 21q58 0 88 -35t30 -87q0 -77 -48 -125t-132 -48q-68 0 -104 33t-36 81v6z" />
    <glyph glyph-name="seveneighths" unicode="&#x215e;" horiz-adv-x="829" 
d="M63 0l533 700h106l-533 -700h-106zM396 625l-241 -335h-100l241 335h-190l16 75h290zM570 288q0 -18 13 -30.5t37 -12.5q33 0 52.5 18.5t19.5 43.5q0 19 -12.5 31t-37.5 12q-32 0 -52 -18.5t-20 -43.5zM665 130q0 21 -15 35.5t-44 14.5q-38 0 -61 -21.5t-23 -48.5
q0 -21 15 -35.5t44 -14.5q38 0 61 21.5t23 48.5zM708 215q48 -23 48 -83q0 -64 -51 -103t-129 -39q-65 0 -105.5 33.5t-40.5 82.5q0 83 92 117q-19 9 -30.5 30.5t-11.5 41.5q0 53 45 89t122 36q64 0 101 -31t37 -77q0 -29 -21 -56t-56 -41z" />
    <glyph glyph-name="arrowleft" unicode="&#x2190;" horiz-adv-x="825" 
d="M387 520l-215 -200h525v-120h-525l215 -200h-145l-260 260l260 260h145z" />
    <glyph glyph-name="arrowup" unicode="&#x2191;" horiz-adv-x="650" 
d="M222 525l-200 -215v145l260 260l260 -260v-145l-200 215v-525h-120v525z" />
    <glyph glyph-name="arrowright" unicode="&#x2192;" horiz-adv-x="825" 
d="M527 320l-215 200h145l260 -260l-260 -260h-145l215 200h-525v120h525z" />
    <glyph glyph-name="arrowdown" unicode="&#x2193;" horiz-adv-x="650" 
d="M12 390l200 -215v525h120v-525l200 215v-145l-260 -260l-260 260v145z" />
    <glyph glyph-name="arrowboth" unicode="&#x2194;" horiz-adv-x="1000" 
d="M702 320l-215 200h145l260 -260l-260 -260h-145l215 200h-530l215 -200h-145l-260 260l260 260h145l-215 -200h530z" />
    <glyph glyph-name="arrowupdn" unicode="&#x2195;" horiz-adv-x="650" 
d="M202 525l-200 -215v145l260 260l260 -260v-145l-200 215v-530l200 215v-145l-260 -260l-260 260v145l200 -215v530z" />
    <glyph glyph-name="uni2196" unicode="&#x2196;" horiz-adv-x="658" 
d="M124 523l10 -293l-102 102v368h368l102 -102l-293 10l371 -371l-85 -85z" />
    <glyph glyph-name="uni2197" unicode="&#x2197;" horiz-adv-x="658" 
d="M438 230l10 293l-371 -371l-85 85l371 371l-293 -10l102 102h368v-368z" />
    <glyph glyph-name="uni2198" unicode="&#x2198;" horiz-adv-x="658" 
d="M438 177l-10 293l102 -102v-368h-368l-102 102l293 -10l-371 371l85 85z" />
    <glyph glyph-name="uni2199" unicode="&#x2199;" horiz-adv-x="658" 
d="M124 470l-10 -293l371 371l85 -85l-371 -371l293 10l-102 -102h-368v368z" />
    <glyph glyph-name="partialdiff" unicode="&#x2202;" 
d="M219 85q82 0 143 71t61 145q0 36 -20 60t-60 24q-82 0 -143 -71t-61 -145q0 -36 20 -60t60 -24zM378 620q-55 0 -136 -30l36 100q67 25 125 25q98 0 151 -55t53 -145q0 -65 -15 -136t-47 -141.5t-77 -126.5t-111.5 -91t-143.5 -35q-90 0 -144 53.5t-54 129.5
q0 122 96 219.5t228 97.5q94 0 132 -58q15 41 15 88q0 105 -108 105z" />
    <glyph glyph-name="uni2206" unicode="&#x2206;" 
d="M-24 0l21 100l338 600h124l82 -600l-21 -100h-544zM366 531l-235 -431h286z" />
    <glyph glyph-name="product" unicode="&#x220f;" 
d="M361 0l128 600h-228l-128 -600h-127l149 700h482l-149 -700h-127z" />
    <glyph glyph-name="summation" unicode="&#x2211;" 
d="M494 -75l-22 -105h-525l22 105l327 335l-184 335l22 105h515l-22 -105h-374l167 -302l-22 -105l-258 -263h354z" />
    <glyph glyph-name="minus" unicode="&#x2212;" horiz-adv-x="616" 
d="M40 210l21 100h500l-21 -100h-500z" />
    <glyph glyph-name="radical" unicode="&#x221a;" 
d="M111 0l-34 520h124l16 -341l253 521h207l-21 -100h-106l-293 -600h-146z" />
    <glyph glyph-name="infinity" unicode="&#x221e;" horiz-adv-x="762" 
d="M28 231q0 80 57.5 132t136.5 52q75 0 123 -60l33 -42l56 47q66 55 138 55q58 0 101 -43.5t43 -102.5q0 -80 -57.5 -132t-136.5 -52q-40 0 -75.5 16.5t-56.5 43.5l-29 37l-51 -42q-66 -55 -138 -55q-58 0 -101 43.5t-43 102.5zM485 285l-52 -43l26 -32q23 -30 68 -30
q37 0 62 25.5t25 57.5q0 23 -15 40t-42 17q-29 0 -72 -35zM130 237q0 -23 15 -40t42 -17q29 0 72 35l46 38l-29 37q-24 30 -59 30q-37 0 -62 -25.5t-25 -57.5z" />
    <glyph glyph-name="integral" unicode="&#x222b;" horiz-adv-x="488" 
d="M414 565l-233 -610q-28 -73 -76 -104t-122 -31h-75l21 100h65q41 0 55 35l233 610q28 73 75.5 104t121.5 31h86l-21 -100h-75q-41 0 -55 -35z" />
    <glyph glyph-name="approxequal" unicode="&#x2248;" horiz-adv-x="610" 
d="M146 300h-90q15 73 62 116.5t117 43.5q43 0 79 -21.5t63.5 -42.5t49.5 -21q24 0 43 16.5t26 48.5h90q-15 -73 -62 -116.5t-117 -43.5q-43 0 -79 21.5t-63.5 42.5t-49.5 21q-24 0 -43 -16.5t-26 -48.5zM99 80h-90q15 73 62 116.5t117 43.5q34 0 64.5 -13.5t48.5 -29
t39.5 -29t39.5 -13.5q24 0 43 16.5t26 48.5h90q-15 -73 -62 -116.5t-117 -43.5q-34 0 -64.5 13.5t-48.5 29t-39.5 29t-39.5 13.5q-24 0 -43 -16.5t-26 -48.5z" />
    <glyph glyph-name="notequal" unicode="&#x2260;" horiz-adv-x="542" 
d="M46 320l21 100h256l73 100h114l-73 -100h90l-21 -100h-142l-88 -120h204l-21 -100h-256l-73 -100h-114l73 100h-90l21 100h142l88 120h-204z" />
    <glyph glyph-name="lessequal" unicode="&#x2264;" horiz-adv-x="568" 
d="M-11 0l21 100h460l-21 -100h-460zM71 385l489 135l-24 -109l-343 -85l307 -85l-21 -101l-432 135z" />
    <glyph glyph-name="greaterequal" unicode="&#x2265;" horiz-adv-x="564" 
d="M512 275l-489 -135l24 109l343 85l-307 85l21 101l432 -135zM475 100l-21 -100h-460l21 100h460z" />
    <glyph glyph-name="lozenge" unicode="&#x25ca;" 
d="M59 302l20 96l259 302h116l129 -302l-20 -96l-258 -302h-116zM462 366l-84 205l-199 -237l85 -205z" />
    <glyph glyph-name="zero.zero" horiz-adv-x="652" 
d="M400 715q104 0 167 -59t63 -181q0 -64 -11.5 -129.5t-39 -131t-67 -116t-101 -82t-136.5 -31.5q-104 0 -167 59t-63 181q0 64 11.5 129.5t39 131t67 116t101 82t136.5 31.5zM395 605q-56 0 -100.5 -37.5t-69 -96t-37.5 -120t-13 -118.5l283 353q-25 19 -63 19zM280 95
q45 0 82.5 24.5t62 63.5t41.5 88.5t25 97t9 92.5l-280 -349q23 -17 60 -17z" />
    <glyph glyph-name="commaaccent" horiz-adv-x="290" 
d="M-64 -155l23 105h127l-23 -105l-92 -105h-52l67 105h-50z" />
    <glyph glyph-name="i.latn_TRK" horiz-adv-x="254" 
d="M-53 0l111 520h127l-111 -520h-127zM73 590l23 110h127l-23 -110h-127z" />
    <glyph glyph-name="zero.tf.zero" 
d="M261 -15q-102 0 -164 67t-62 196q0 230 98.5 348.5t247.5 118.5q102 0 164 -67t62 -196q0 -230 -98.5 -348.5t-247.5 -118.5zM266 95q69 0 118.5 52.5t71 131.5t21.5 174l-274 -336q23 -22 63 -22zM376 605q-69 0 -118.5 -52.5t-71 -131t-21.5 -173.5l273 335
q-23 22 -62 22z" />
    <glyph glyph-name="zero.tf" 
d="M266 95q69 0 118.5 52.5t71 131t21.5 173.5q0 153 -101 153q-69 0 -118.5 -52.5t-71 -131t-21.5 -173.5q0 -153 101 -153zM261 -15q-102 0 -164 67t-62 196q0 230 98.5 348.5t247.5 118.5q102 0 164 -67t62 -196q0 -230 -98.5 -348.5t-247.5 -118.5z" />
    <glyph glyph-name="one.tf" 
d="M21 110h212l60 282q21 94 38 150h-2q-52 -55 -119 -112l-80 -68l38 178l191 160h133l-126 -590h175l-23 -110h-520z" />
    <glyph glyph-name="two.tf" 
d="M253 520h-138q26 91 95.5 143t169.5 52q104 0 157 -51t53 -134q0 -63 -34.5 -120t-125.5 -130l-212 -170h300l-23 -110h-490l23 110l321 260q65 52 88 85.5t23 74.5q0 36 -21 58t-64 22q-45 0 -79 -24.5t-43 -65.5z" />
    <glyph glyph-name="three.tf" 
d="M251 320l22 105h55q57 0 93.5 30.5t36.5 79.5q0 35 -22 55t-63 20q-45 0 -75.5 -22.5t-40.5 -52.5h-140q24 77 92.5 128.5t168.5 51.5q93 0 151.5 -47.5t58.5 -116.5q0 -114 -119 -171q38 -20 58.5 -59.5t20.5 -85.5q0 -111 -79.5 -180.5t-215.5 -69.5q-111 0 -172 51.5
t-61 125.5q0 10 1 18h129q0 -90 108 -90q75 0 117.5 41.5t42.5 98.5q0 41 -26.5 65.5t-80.5 24.5h-60z" />
    <glyph glyph-name="four.tf" 
d="M12 240l423 460h140l-98 -460h100l-23 -110h-100l-28 -130h-133l28 130h-332zM158 240h186l18 85q29 139 54 220h-2q-58 -89 -169 -210z" />
    <glyph glyph-name="five.tf" 
d="M27 180h130q0 -40 25.5 -62.5t76.5 -22.5q80 0 127.5 53t47.5 132q0 49 -26 77t-74 28q-98 0 -145 -95l-116 50l100 360h435l-23 -110h-312l-43 -155q53 55 139 55q90 0 142.5 -59.5t52.5 -145.5q0 -130 -85 -215t-225 -85q-102 0 -164.5 52t-62.5 136v7z" />
    <glyph glyph-name="six.tf" 
d="M395 715q97 0 154 -44t59 -116h-129q-9 55 -89 55q-136 0 -185 -205q26 34 69.5 54.5t95.5 20.5q94 0 149.5 -59.5t55.5 -145.5q0 -123 -85.5 -206.5t-209.5 -83.5q-113 0 -171.5 72.5t-58.5 182.5q0 121 27.5 214t76 149t109.5 84t132 28zM285 90q66 0 113 52t47 123
q0 48 -26 79t-74 31q-68 0 -116.5 -48.5t-48.5 -121.5q0 -50 28 -82.5t77 -32.5z" />
    <glyph glyph-name="seven.tf" 
d="M621 590l-432 -590h-148l432 590h-342l24 110h490z" />
    <glyph glyph-name="eight.tf" 
d="M263 -15q-102 0 -171 55t-69 135q0 153 155 205q-65 36 -65 115q0 95 75.5 157.5t194.5 62.5q97 0 158.5 -47.5t61.5 -122.5q0 -113 -125 -170q80 -41 80 -140q0 -108 -82.5 -179t-212.5 -71zM153 185q0 -43 31.5 -69t83.5 -26q69 0 114.5 38t45.5 97q0 42 -31.5 68.5
t-83.5 26.5q-68 0 -114 -39t-46 -96zM238 498q0 -36 27.5 -57t71.5 -21q58 0 99.5 32t41.5 83q0 36 -27 55.5t-73 19.5q-61 0 -100.5 -31t-39.5 -81z" />
    <glyph glyph-name="nine.tf" 
d="M248 -15q-90 0 -149 44.5t-60 115.5h131q9 -55 83 -55q136 0 183 205q-63 -75 -163 -75q-94 0 -149.5 60t-55.5 150q0 126 83 205.5t212 79.5q117 0 173.5 -68t56.5 -177q0 -239 -96.5 -362t-248.5 -123zM358 610q-67 0 -113.5 -51.5t-46.5 -123.5q0 -49 25.5 -79.5
t73.5 -30.5q67 0 116.5 51t49.5 124q0 49 -28 79.5t-77 30.5z" />
    <glyph glyph-name="percent.tf" 
d="M142 308l376 170l-18 -86l-376 -170zM260 650q-36 0 -60.5 -35t-24.5 -92q0 -63 45 -63q36 0 60.5 35t24.5 92q0 63 -45 63zM214 400q-52 0 -83 31.5t-31 84.5q0 87 44 140.5t122 53.5q52 0 83 -31.5t31 -84.5q0 -87 -44 -140.5t-122 -53.5zM423 240q-36 0 -60.5 -35
t-24.5 -92q0 -63 45 -63q36 0 60.5 35t24.5 92q0 63 -45 63zM377 -10q-52 0 -83 31.5t-31 84.5q0 87 44 140.5t122 53.5q52 0 83 -31.5t31 -84.5q0 -87 -44 -140.5t-122 -53.5z" />
    <glyph glyph-name="perthousand.tf" 
d="M425 -10q-60 0 -88 41q-41 -41 -107 -41q-52 0 -83 31.5t-31 84.5q0 87 44 140.5t122 53.5q60 0 87 -41q41 41 108 41q52 0 83 -31.5t31 -84.5q0 -87 -44 -140.5t-122 -53.5zM177 400q-52 0 -83 31.5t-31 84.5q0 87 44 140.5t122 53.5q52 0 83 -31.5t31 -84.5
q0 -87 -44 -140.5t-122 -53.5zM50 308l376 170l-18 -86l-376 -170zM223 650q-36 0 -60.5 -35t-24.5 -92q0 -63 45 -63q36 0 60.5 35t24.5 92q0 63 -45 63zM276 240q-36 0 -60.5 -35t-24.5 -92q0 -63 45 -63q36 0 60.5 35t24.5 92q0 63 -45 63zM471 240q-36 0 -60.5 -35
t-24.5 -92q0 -63 45 -63q36 0 60.5 35t24.5 92q0 63 -45 63z" />
    <glyph glyph-name="dollar.tf" 
d="M175 -90l17 79q-93 13 -141.5 59t-48.5 111q0 12 1 21h126v-6q0 -71 84 -85l47 221q-74 20 -123.5 66t-49.5 121q0 91 65 150t194 67l16 76h103l-17 -80q82 -14 124 -57t42 -102q0 -9 -1 -16h-125v4q0 57 -61 71l-42 -196q81 -17 133 -63.5t52 -127.5
q0 -104 -68.5 -166.5t-207.5 -70.5l-16 -76h-103zM445 211q0 33 -19.5 52t-66.5 29l-43 -204q129 18 129 123zM212 506q0 -56 74 -75l38 180q-57 -10 -84.5 -39t-27.5 -66z" />
    <glyph glyph-name="sterling.tf" 
d="M51 250l21 100h78q-21 63 -21 114q0 116 79.5 183.5t191.5 67.5q98 0 154.5 -50t56.5 -122v-8h-126q0 37 -25 56t-68 19q-57 0 -97 -36.5t-40 -104.5q0 -35 26 -119h231l-21 -100h-192q0 -93 -81 -145h312l-22 -105h-479l-19 105q71 0 119.5 39.5t46.5 105.5h-125z" />
    <glyph glyph-name="yen.tf" 
d="M468 150h-128l-32 -150h-128l32 150h-129l21 100h129l7 31l-10 29h-163l21 100h111l-94 290h127l83 -290h15l207 290h143l-217 -290h110l-21 -100h-164l-19 -26l-8 -34h128z" />
    <glyph glyph-name="Euro.tf" 
d="M354 215h-149q8 -62 38 -93.5t78 -31.5q87 0 125 70h140q-39 -87 -110 -131t-162 -44q-98 0 -161 59t-74 171h-96l21 100h75q1 31 6 60h-68l21 100h72q42 121 130 180.5t199 59.5q93 0 159 -45t69 -130h-127q-4 32 -32 51t-76 19q-59 0 -107.5 -35.5t-79.5 -99.5h266
l-60 -100h-238q-6 -26 -9 -60h210z" />
    <glyph glyph-name="florin.tf" 
d="M76 -45l181 465h-119l22 100h134l23 57q29 72 69.5 97.5t111.5 25.5h72l18 -95h-87q-23 0 -35.5 -9t-20.5 -31l-17 -45h142l-22 -100h-159l-187 -480q-28 -72 -67.5 -96t-111.5 -24h-69l-18 95h84q23 0 35.5 9t20.5 31z" />
    <glyph glyph-name="cent.tf" 
d="M192 -80l16 74q-78 20 -122.5 81t-44.5 141q0 126 77 215t204 102l14 67h102l-15 -70q72 -13 115.5 -57t49.5 -108h-126q-9 50 -60 64l-72 -337q45 16 73 63h140q-77 -155 -235 -169l-14 -66h-102zM165 219q0 -92 64 -123l70 329q-63 -21 -98.5 -81.5t-35.5 -124.5z" />
    <glyph glyph-name="currency.tf" 
d="M277 40q-65 0 -117 35l-90 -75l-67 83l87 72q-19 41 -19 83q0 86 61 152l-62 78l83 67l64 -81q52 26 110 26q65 0 117 -35l91 75l67 -83l-88 -73q19 -40 19 -82q0 -84 -60 -152l62 -78l-83 -67l-64 81q-54 -26 -111 -26zM278 150q55 0 93.5 39.5t38.5 92.5q0 38 -22.5 63
t-61.5 25q-55 0 -93.5 -39.5t-38.5 -92.5q0 -38 22.5 -63t61.5 -25z" />
    <glyph glyph-name="section.tf" 
d="M228 -195q-104 0 -165 44.5t-61 120.5q0 6 1 15h125q-2 -39 23.5 -59.5t82.5 -20.5q62 0 97.5 24t35.5 63q0 35 -28 50t-95 27q-226 39 -226 182q0 63 34.5 108t88.5 70q-28 37 -28 91q0 91 69.5 143t190.5 52q104 0 166 -44.5t62 -120.5q0 -6 -1 -15h-125
q2 39 -23.5 59.5t-83.5 20.5q-61 0 -96 -24t-35 -63q0 -34 28 -49.5t93 -27.5q229 -40 229 -182q0 -64 -35 -109.5t-89 -69.5q28 -40 28 -90q0 -90 -70 -142.5t-193 -52.5zM298 181q50 -11 80 -25q33 11 59 35.5t26 61.5q0 14 -4 25t-14 19t-18.5 13.5t-26 10t-28 6.5t-33 6
t-32.5 6q-47 8 -82 25q-33 -11 -58 -36t-25 -61q0 -14 4 -25t13.5 -19t18.5 -13t26 -9.5t28.5 -7t33 -6.5t32.5 -6z" />
    <glyph glyph-name="numbersign.tf" 
d="M214 0l83 180h-109l-83 -180h-127l83 180h-88l46 100h88l65 140h-88l46 100h88l84 180h127l-84 -180h109l84 180h127l-84 -180h88l-46 -100h-88l-65 -140h88l-46 -100h-88l-83 -180h-127zM299 420l-65 -140h109l65 140h-109z" />
    <glyph glyph-name="degree.tf" 
d="M324 375q62 0 108.5 43t46.5 107q0 45 -28.5 72.5t-71.5 27.5q-62 0 -108.5 -43t-46.5 -107q0 -45 28.5 -72.5t71.5 -27.5zM319 285q-90 0 -142.5 55.5t-52.5 134.5q0 102 76 171t184 69q90 0 142.5 -55.5t52.5 -134.5q0 -102 -76 -171t-184 -69z" />
    <glyph glyph-name="plus.tf" 
d="M32 210l21 100h208l45 210h104l-45 -210h208l-21 -100h-208l-45 -210h-104l45 210h-208z" />
    <glyph glyph-name="minus.tf" 
d="M42 210l21 100h500l-21 -100h-500z" />
    <glyph glyph-name="multiply.tf" 
d="M432 15l-138 174l-212 -174l-62 77l212 175l-138 175l78 63l138 -175l212 175l62 -77l-213 -175l139 -175z" />
    <glyph glyph-name="divide.tf" 
d="M41 210l21 100h501l-21 -100h-501zM251 380l30 140h153l-30 -140h-153zM170 0l30 140h153l-30 -140h-153z" />
    <glyph glyph-name="equal.tf" 
d="M86 320l21 100h460l-21 -100h-460zM39 100l21 100h460l-21 -100h-460z" />
    <glyph glyph-name="notequal.tf" 
d="M85 320l21 100h256l73 100h114l-73 -100h90l-21 -100h-142l-88 -120h204l-21 -100h-256l-73 -100h-114l73 100h-90l21 100h142l88 120h-204z" />
    <glyph glyph-name="approxequal.tf" 
d="M151 300h-90q15 73 62 116.5t117 43.5q43 0 79 -21.5t63.5 -42.5t49.5 -21q24 0 43 16.5t26 48.5h90q-15 -73 -62 -116.5t-117 -43.5q-43 0 -79 21.5t-63.5 42.5t-49.5 21q-24 0 -43 -16.5t-26 -48.5zM104 80h-90q15 73 62 116.5t117 43.5q34 0 64.5 -13.5t48.5 -29
t39.5 -29t39.5 -13.5q24 0 43 16.5t26 48.5h90q-15 -73 -62 -116.5t-117 -43.5q-34 0 -64.5 13.5t-48.5 29t-39.5 29t-39.5 13.5q-24 0 -43 -16.5t-26 -48.5z" />
    <glyph glyph-name="asciitilde.tf" 
d="M127 190h-90q15 73 62 116.5t117 43.5q43 0 79 -21.5t63.5 -42.5t49.5 -21q24 0 43 16.5t26 48.5h90q-15 -73 -62 -116.5t-117 -43.5q-34 0 -64.5 13.5t-48.5 29t-39.5 29t-39.5 13.5q-24 0 -43 -16.5t-26 -48.5z" />
    <glyph glyph-name="less.tf" 
d="M73 310l505 210l-24 -116l-377 -150l313 -150l-23 -104l-415 210z" />
    <glyph glyph-name="greater.tf" 
d="M532 210l-505 -210l25 118l377 150l-313 150l22 102l415 -210z" />
    <glyph glyph-name="lessequal.tf" 
d="M15 0l21 100h460l-21 -100h-460zM97 385l489 135l-24 -109l-343 -85l307 -85l-21 -101l-432 135z" />
    <glyph glyph-name="greaterequal.tf" 
d="M539 275l-489 -135l24 109l343 85l-307 85l21 101l432 -135zM502 100l-21 -100h-460l21 100h460z" />
    <glyph glyph-name="plusminus.tf" 
d="M83 300l21 100h179l26 120h103l-26 -120h178l-21 -100h-178l-26 -120h-103l26 120h-179zM19 0l21 100h460l-21 -100h-460z" />
    <glyph glyph-name="periodcentered.tf" 
d="M210 185l32 150h153l-32 -150h-153z" />
    <glyph glyph-name="logicalnot.tf" 
d="M421 140l30 140h-397l21 100h500l-51 -240h-103z" />
    <glyph glyph-name="asciicircum.tf" 
d="M7 260l284 440h100l96 -440h-104l-62 320l-198 -320h-116z" />
    <glyph glyph-name="plus.tf.case" 
d="M51 300l21 100h208l45 210h104l-45 -210h208l-21 -100h-208l-45 -210h-104l45 210h-208z" />
    <glyph glyph-name="minus.tf.case" 
d="M60 300l21 100h500l-21 -100h-500z" />
    <glyph glyph-name="multiply.tf.case" 
d="M451 105l-138 174l-212 -174l-62 77l212 175l-138 175l78 63l138 -175l212 175l62 -77l-213 -175l139 -175z" />
    <glyph glyph-name="divide.tf.case" 
d="M60 300l21 100h501l-21 -100h-501zM270 470l30 140h153l-30 -140h-153zM189 90l30 140h153l-30 -140h-153z" />
    <glyph glyph-name="equal.tf.case" 
d="M104 410l21 100h460l-21 -100h-460zM57 190l21 100h460l-21 -100h-460z" />
    <glyph glyph-name="notequal.tf.case" 
d="M104 410l21 100h256l73 100h114l-73 -100h90l-21 -100h-142l-88 -120h204l-21 -100h-256l-73 -100h-114l73 100h-90l21 100h142l88 120h-204z" />
    <glyph glyph-name="approxequal.tf.case" 
d="M172 390h-90q15 73 62 116.5t117 43.5q43 0 79 -21.5t63.5 -42.5t49.5 -21q24 0 43 16.5t26 48.5h90q-15 -73 -62 -116.5t-117 -43.5q-43 0 -79 21.5t-63.5 42.5t-49.5 21q-24 0 -43 -16.5t-26 -48.5zM125 170h-90q15 73 62 116.5t117 43.5q43 0 79 -21.5t63.5 -42.5
t49.5 -21q24 0 43 16.5t26 48.5h90q-15 -73 -62 -116.5t-117 -43.5q-34 0 -64.5 13.5t-48.5 29t-39.5 29t-39.5 13.5q-24 0 -43 -16.5t-26 -48.5z" />
    <glyph glyph-name="asciitilde.tf.case" 
d="M148 280h-90q15 73 62 116.5t117 43.5q43 0 79 -21.5t63.5 -42.5t49.5 -21q24 0 43 16.5t26 48.5h90q-15 -73 -62 -116.5t-117 -43.5q-43 0 -79 21.5t-63.5 42.5t-49.5 21q-24 0 -43 -16.5t-26 -48.5z" />
    <glyph glyph-name="less.tf.case" 
d="M86 400l505 210l-24 -116l-377 -150l313 -150l-23 -104l-415 210z" />
    <glyph glyph-name="greater.tf.case" 
d="M557 300l-505 -210l25 118l377 150l-313 150l22 102l415 -210z" />
    <glyph glyph-name="lessequal.tf.case" 
d="M32 90l21 100h460l-21 -100h-460zM114 475l489 135l-24 -109l-343 -85l307 -85l-21 -101l-432 135z" />
    <glyph glyph-name="greaterequal.tf.case" 
d="M559 365l-489 -135l24 109l343 85l-307 85l21 101l432 -135zM522 190l-21 -100h-460l21 100h460z" />
    <glyph glyph-name="plusminus.tf.case" 
d="M102 390l21 100h179l26 120h103l-26 -120h178l-21 -100h-178l-26 -120h-103l26 120h-179zM38 90l21 100h460l-21 -100h-460z" />
    <glyph glyph-name="periodcentered.tf.case" 
d="M228 275l32 150h153l-32 -150h-153z" />
    <glyph glyph-name="logicalnot.tf.case" 
d="M436 230l30 140h-397l21 100h500l-51 -240h-103z" />
    <glyph glyph-name="plus.case" horiz-adv-x="595" 
d="M38 300l21 100h208l45 210h104l-45 -210h208l-21 -100h-208l-45 -210h-104l45 210h-208z" />
    <glyph glyph-name="minus.case" horiz-adv-x="625" 
d="M62 300l21 100h500l-21 -100h-500z" />
    <glyph glyph-name="multiply.case" horiz-adv-x="589" 
d="M435 105l-138 174l-212 -174l-62 77l212 175l-138 175l78 63l138 -175l212 175l62 -77l-213 -175l139 -175z" />
    <glyph glyph-name="divide.case" horiz-adv-x="593" 
d="M47 300l21 100h501l-21 -100h-501zM257 470l30 140h153l-30 -140h-153zM176 90l30 140h153l-30 -140h-153z" />
    <glyph glyph-name="equal.case" horiz-adv-x="584" 
d="M86 410l21 100h460l-21 -100h-460zM39 190l21 100h460l-21 -100h-460z" />
    <glyph glyph-name="notequal.case" horiz-adv-x="584" 
d="M86 410l21 100h256l73 100h114l-73 -100h90l-21 -100h-142l-88 -120h204l-21 -100h-256l-73 -100h-114l73 100h-90l21 100h142l88 120h-204z" />
    <glyph glyph-name="approxequal.case" horiz-adv-x="617" 
d="M170 390h-90q15 73 62 116.5t117 43.5q43 0 79 -21.5t63.5 -42.5t49.5 -21q24 0 43 16.5t26 48.5h90q-15 -73 -62 -116.5t-117 -43.5q-43 0 -79 21.5t-63.5 42.5t-49.5 21q-24 0 -43 -16.5t-26 -48.5zM123 170h-90q15 73 62 116.5t117 43.5q43 0 79 -21.5t63.5 -42.5
t49.5 -21q24 0 43 16.5t26 48.5h90q-15 -73 -62 -116.5t-117 -43.5q-34 0 -64.5 13.5t-48.5 29t-39.5 29t-39.5 13.5q-24 0 -43 -16.5t-26 -48.5z" />
    <glyph glyph-name="asciitilde.case" horiz-adv-x="621" 
d="M149 280h-90q15 73 62 116.5t117 43.5q43 0 79 -21.5t63.5 -42.5t49.5 -21q24 0 43 16.5t26 48.5h90q-15 -73 -62 -116.5t-117 -43.5q-43 0 -79 21.5t-63.5 42.5t-49.5 21q-24 0 -43 -16.5t-26 -48.5z" />
    <glyph glyph-name="less.case" horiz-adv-x="564" 
d="M58 400l505 210l-24 -116l-377 -150l313 -150l-23 -104l-415 210z" />
    <glyph glyph-name="greater.case" horiz-adv-x="564" 
d="M529 300l-505 -210l25 118l377 150l-313 150l22 102l415 -210z" />
    <glyph glyph-name="lessequal.case" horiz-adv-x="597" 
d="M21 90l21 100h460l-21 -100h-460zM103 475l489 135l-24 -109l-343 -85l307 -85l-21 -101l-432 135z" />
    <glyph glyph-name="greaterequal.case" horiz-adv-x="593" 
d="M546 365l-489 -135l24 109l343 85l-307 85l21 101l432 -135zM509 190l-21 -100h-460l21 100h460z" />
    <glyph glyph-name="plusminus.case" horiz-adv-x="598" 
d="M91 390l21 100h179l26 120h103l-26 -120h178l-21 -100h-178l-26 -120h-103l26 120h-179zM27 90l21 100h460l-21 -100h-460z" />
    <glyph glyph-name="logicalnot.case" horiz-adv-x="619" 
d="M435 230l30 140h-397l21 100h500l-51 -240h-103z" />
    <glyph glyph-name="guillemotleft.case" horiz-adv-x="666" 
d="M42 350l201 170h155l-216 -175l144 -165h-140zM297 350l201 170h155l-216 -175l144 -165h-140z" />
    <glyph glyph-name="guillemotright.case" horiz-adv-x="663" 
d="M644 350l-201 -170h-155l216 175l-144 165h140zM389 350l-201 -170h-155l216 175l-144 165h140z" />
    <glyph glyph-name="guilsinglleft.case" horiz-adv-x="411" 
d="M42 350l201 170h155l-216 -175l144 -165h-140z" />
    <glyph glyph-name="guilsinglright.case" horiz-adv-x="408" 
d="M389 350l-201 -170h-155l216 175l-144 165h140z" />
    <glyph glyph-name="periodcentered.case" horiz-adv-x="276" 
d="M56 275l32 150h153l-32 -150h-153z" />
    <glyph glyph-name="bullet.case" horiz-adv-x="478" 
d="M74 350q0 73 51 124t124 51t124 -51t51 -124t-51 -124t-124 -51t-124 51t-51 124z" />
    <glyph glyph-name="infinity.case" horiz-adv-x="772" 
d="M50 321q0 80 57.5 132t136.5 52q75 0 123 -60l33 -42l56 47q66 55 138 55q58 0 101 -43.5t43 -102.5q0 -80 -57.5 -132t-136.5 -52q-40 0 -75.5 16.5t-56.5 43.5l-29 37l-51 -42q-66 -55 -138 -55q-58 0 -101 43.5t-43 102.5zM507 375l-52 -43l26 -32q23 -30 68 -30
q37 0 62 25.5t25 57.5q0 23 -15 40t-42 17q-29 0 -72 -35zM152 327q0 -23 15 -40t42 -17q29 0 72 35l46 38l-29 37q-24 30 -59 30q-37 0 -62 -25.5t-25 -57.5z" />
    <glyph glyph-name="uni00AD.case" horiz-adv-x="415" 
d="M62 300l21 100h290l-21 -100h-290z" />
    <glyph glyph-name="hyphen.case" horiz-adv-x="425" 
d="M62 300l21 100h300l-21 -100h-300z" />
    <glyph glyph-name="endash.case" horiz-adv-x="645" 
d="M62 300l21 100h520l-21 -100h-520z" />
    <glyph glyph-name="emdash.case" horiz-adv-x="1165" 
d="M62 300l21 100h1040l-21 -100h-1040z" />
    <glyph glyph-name="underscore.case" horiz-adv-x="645" 
d="M1 0l17 80h520l-17 -80h-520z" />
    <glyph glyph-name="parenleft.case" horiz-adv-x="329" 
d="M174 270q0 -89 21 -235l18 -125h-105l-26 125q-37 174 -37 245q0 94 32 171t122 214l82 125h116l-100 -170q-40 -68 -55.5 -95.5t-35.5 -74t-26 -87t-6 -93.5z" />
    <glyph glyph-name="parenright.case" horiz-adv-x="329" 
d="M178 430q0 90 -21 235l-18 125h105l26 -125q37 -174 37 -245q0 -94 -32 -171t-122 -214l-82 -125h-116l100 170q40 68 55.5 95.5t35.5 74t26 87t6 93.5z" />
    <glyph glyph-name="bracketleft.case" horiz-adv-x="378" 
d="M12 -90l187 880h247l-21 -100h-120l-145 -680h120l-21 -100h-247z" />
    <glyph glyph-name="bracketright.case" horiz-adv-x="378" 
d="M388 790l-187 -880h-247l21 100h120l145 680h-120l21 100h247z" />
    <glyph glyph-name="braceleft.case" horiz-adv-x="393" 
d="M54 400h15q43 0 66.5 16t30.5 64l23 159q12 84 60 117.5t125 33.5h65l9 -100h-58q-35 0 -54 -14.5t-24 -50.5l-24 -165q-8 -53 -35.5 -76.5t-79.5 -33.5q42 -11 59 -50t1 -95l-37 -130q-10 -36 2 -50.5t47 -14.5h58l-51 -100h-35q-76 0 -121.5 47.5t-21.5 131.5l37 131
q14 48 -3 64t-60 16h-15z" />
    <glyph glyph-name="braceright.case" horiz-adv-x="394" 
d="M363 300h-15q-43 0 -66.5 -16t-30.5 -64l-23 -159q-12 -84 -60 -117.5t-125 -33.5h-65l-9 100h58q35 0 54 14.5t24 50.5l24 165q8 53 35.5 76.5t79.5 33.5q-42 11 -59 50t-1 95l37 130q10 36 -2 50.5t-47 14.5h-58l51 100h35q76 0 121.5 -47.5t21.5 -131.5l-37 -131
q-14 -48 3 -64t60 -16h15z" />
    <glyph glyph-name="bar.case" horiz-adv-x="316" 
d="M12 -90l187 880h127l-187 -880h-127z" />
    <glyph glyph-name="brokenbar.case" horiz-adv-x="311" 
d="M10 -90l74 350h127l-74 -350h-127zM123 440l74 350h127l-74 -350h-127z" />
    <glyph glyph-name="at.case" horiz-adv-x="933" 
d="M393 -70q-144 0 -242 106t-98 254q0 132 68 242.5t184 174t253 63.5q161 0 258 -100.5t97 -249.5q0 -144 -58.5 -214.5t-148.5 -70.5q-81 0 -100 65q-66 -70 -170 -70q-77 0 -127.5 54t-50.5 136q0 111 71 180.5t174 69.5q47 0 78.5 -18.5t45.5 -39.5l10 43h112l-57 -270
q-7 -34 -0.5 -47t29.5 -13q42 0 69.5 57.5t27.5 137.5q0 113 -72 186.5t-193 73.5q-165 0 -285 -117t-120 -273q0 -115 72.5 -192.5t192.5 -77.5q87 0 165 25l-58 -97q-64 -18 -127 -18zM455 220q62 0 102 47.5t40 114.5q0 44 -22 71t-64 27q-60 0 -101.5 -45t-41.5 -115
q0 -46 23.5 -73t63.5 -27z" />
    <glyph glyph-name="questiondown.case" horiz-adv-x="526" 
d="M448 715l-32 -150h-153l32 150h153zM338 180h130q-21 -81 -87 -130.5t-161 -49.5q-92 0 -147.5 51t-55.5 121q0 48 16.5 83.5t41 54.5t55 38t57.5 34t49.5 41.5t29.5 61.5h113q-10 -48 -32.5 -85t-47.5 -56.5t-52.5 -39t-49.5 -34t-36 -39.5t-14 -57q0 -30 20.5 -49.5
t59.5 -19.5q42 0 71 21t40 54z" />
    <glyph glyph-name="exclamdown.case" horiz-adv-x="316" 
d="M82 250l72 220h83l-22 -220l-53 -250h-133zM321 700l-32 -150h-153l32 150h153z" />
    <glyph glyph-name="arrowleft.case" horiz-adv-x="825" 
d="M406 610l-215 -200h525v-120h-525l215 -200h-145l-260 260l260 260h145z" />
    <glyph glyph-name="arrowright.case" horiz-adv-x="825" 
d="M547 410l-215 200h145l260 -260l-260 -260h-145l215 200h-525v120h525z" />
    <glyph glyph-name="uni2196.case" horiz-adv-x="658" 
d="M119 448l10 -293l-102 102v368h368l102 -102l-293 10l371 -371l-85 -85z" />
    <glyph glyph-name="uni2197.case" horiz-adv-x="658" 
d="M438 155l10 293l-371 -371l-85 85l371 371l-293 -10l102 102h368v-368z" />
    <glyph glyph-name="uni2198.case" horiz-adv-x="658" 
d="M448 252l-10 293l102 -102v-368h-368l-102 102l293 -10l-371 371l85 85z" />
    <glyph glyph-name="uni2199.case" horiz-adv-x="658" 
d="M129 545l-10 -293l371 371l85 -85l-371 -371l293 10l-102 -102h-368v368z" />
    <glyph glyph-name="arrowupdn.case" horiz-adv-x="650" 
d="M221 615l-200 -215v145l260 260l260 -260v-145l-200 215v-530l200 215v-145l-260 -260l-260 260v145l200 -215v530z" />
    <glyph glyph-name="arrowboth.case" horiz-adv-x="1000" 
d="M721 410l-215 200h145l260 -260l-260 -260h-145l215 200h-530l215 -200h-145l-260 260l260 260h145l-215 -200h530z" />
    <glyph glyph-name="orn01" horiz-adv-x="680" 
d="M537 0h-520v520h520v-520zM57 480v-440h440v440h-440z" />
    <glyph glyph-name="orn01.case" horiz-adv-x="680" 
d="M557 90h-520v520h520v-520zM77 570v-440h440v440h-440z" />
    <glyph glyph-name="orn01.ss01" horiz-adv-x="860" 
d="M737 0h-700v700h700v-700zM77 660v-620h620v620h-620z" />
    <glyph glyph-name="orn02" horiz-adv-x="680" 
d="M17 520h520v-520h-520v520zM57 68l192 192l-192 192v-384zM469 40l-192 192l-192 -192h384zM469 480h-384l192 -192zM497 452l-192 -192l192 -192v384z" />
    <glyph glyph-name="orn02.case" horiz-adv-x="680" 
d="M37 610h520v-520h-520v520zM77 158l192 192l-192 192v-384zM489 130l-192 192l-192 -192h384zM489 570h-384l192 -192zM517 542l-192 -192l192 -192v384z" />
    <glyph glyph-name="orn02.ss01" horiz-adv-x="860" 
d="M37 700h700v-700h-700v700zM77 68l282 282l-282 282v-564zM669 40l-282 282l-282 -282h564zM669 660h-564l282 -282zM697 632l-282 -282l282 -282v564z" />
    <glyph glyph-name="orn03" horiz-adv-x="680" 
d="M17 0v520h520v-520h-520z" />
    <glyph glyph-name="orn03.case" horiz-adv-x="680" 
d="M37 90v520h520v-520h-520z" />
    <glyph glyph-name="orn03.ss01" horiz-adv-x="860" 
d="M737 0h-700v700h700v-700z" />
    <glyph glyph-name="orn04" horiz-adv-x="600" 
d="M-23 260q0 108 76 184t184 76t184 -76t76 -184t-76 -184t-184 -76t-184 76t-76 184zM17 260q0 -91 64.5 -155.5t155.5 -64.5t155.5 64.5t64.5 155.5t-64.5 155.5t-155.5 64.5t-155.5 -64.5t-64.5 -155.5z" />
    <glyph glyph-name="orn04.case" horiz-adv-x="600" 
d="M-3 350q0 108 76 184t184 76t184 -76t76 -184t-76 -184t-184 -76t-184 76t-76 184zM37 350q0 -91 64.5 -155.5t155.5 -64.5t155.5 64.5t64.5 155.5t-64.5 155.5t-155.5 64.5t-155.5 -64.5t-64.5 -155.5z" />
    <glyph glyph-name="orn04.ss01" horiz-adv-x="780" 
d="M-3 350q0 145 102.5 247.5t247.5 102.5t247.5 -102.5t102.5 -247.5t-102.5 -247.5t-247.5 -102.5t-247.5 102.5t-102.5 247.5zM37 350q0 -128 91 -219t219 -91t219 91t91 219t-91 219t-219 91t-219 -91t-91 -219z" />
    <glyph glyph-name="orn05" horiz-adv-x="600" 
d="M117 260q0 50 35.5 85t84.5 35t84.5 -35t35.5 -85t-35.5 -85t-84.5 -35t-84.5 35t-35.5 85zM-23 260q0 108 76 184t184 76t184 -76t76 -184t-76 -184t-184 -76t-184 76t-76 184zM17 260q0 -91 64.5 -155.5t155.5 -64.5t155.5 64.5t64.5 155.5t-64.5 155.5t-155.5 64.5
t-155.5 -64.5t-64.5 -155.5z" />
    <glyph glyph-name="orn05.case" horiz-adv-x="600" 
d="M137 350q0 50 35.5 85t84.5 35t84.5 -35t35.5 -85t-35.5 -85t-84.5 -35t-84.5 35t-35.5 85zM-3 350q0 108 76 184t184 76t184 -76t76 -184t-76 -184t-184 -76t-184 76t-76 184zM37 350q0 -91 64.5 -155.5t155.5 -64.5t155.5 64.5t64.5 155.5t-64.5 155.5t-155.5 64.5
t-155.5 -64.5t-64.5 -155.5z" />
    <glyph glyph-name="orn05.ss01" horiz-adv-x="780" 
d="M172 350q0 73 51 124t124 51t124 -51t51 -124t-51 -124t-124 -51t-124 51t-51 124zM-3 350q0 145 102.5 247.5t247.5 102.5t247.5 -102.5t102.5 -247.5t-102.5 -247.5t-247.5 -102.5t-247.5 102.5t-102.5 247.5zM37 350q0 -128 91 -219t219 -91t219 91t91 219t-91 219
t-219 91t-219 -91t-91 -219z" />
    <glyph glyph-name="orn06" horiz-adv-x="600" 
d="M-23 260q0 108 76 184t184 76t184 -76t76 -184t-76 -184t-184 -76t-184 76t-76 184z" />
    <glyph glyph-name="orn06.case" horiz-adv-x="600" 
d="M-3 350q0 108 76 184t184 76t184 -76t76 -184t-76 -184t-184 -76t-184 76t-76 184z" />
    <glyph glyph-name="orn06.ss01" horiz-adv-x="780" 
d="M-3 350q0 145 102.5 247.5t247.5 102.5t247.5 -102.5t102.5 -247.5t-102.5 -247.5t-247.5 -102.5t-247.5 102.5t-102.5 247.5z" />
    <glyph glyph-name="orn07" horiz-adv-x="580" 
d="M227 0l-260 260l260 260l260 -260zM23 260l204 -204l204 204l-204 204z" />
    <glyph glyph-name="orn07.case" horiz-adv-x="580" 
d="M247 90l-260 260l260 260l260 -260zM43 350l204 -204l204 204l-204 204z" />
    <glyph glyph-name="orn07.ss01" horiz-adv-x="760" 
d="M337 0l-350 350l350 350l350 -350zM43 350l294 -294l294 294l-294 294z" />
    <glyph glyph-name="orn08" horiz-adv-x="580" 
d="M227 520l260 -260l-260 -260l-260 260z" />
    <glyph glyph-name="orn08.case" horiz-adv-x="580" 
d="M247 610l260 -260l-260 -260l-260 260z" />
    <glyph glyph-name="orn08.ss01" horiz-adv-x="760" 
d="M337 0l-350 350l350 350l350 -350z" />
    <glyph glyph-name="orn09" horiz-adv-x="680" 
d="M45 0l-28 28l232 232l-232 232l28 28l232 -232l232 232l28 -28l-232 -232l232 -232l-28 -28l-232 232z" />
    <glyph glyph-name="orn09.case" horiz-adv-x="680" 
d="M65 90l-28 28l232 232l-232 232l28 28l232 -232l232 232l28 -28l-232 -232l232 -232l-28 -28l-232 232z" />
    <glyph glyph-name="orn09.ss01" horiz-adv-x="860" 
d="M65 0l-28 28l322 322l-322 322l28 28l322 -322l322 322l28 -28l-322 -322l322 -322l-28 -28l-322 322z" />
    <glyph glyph-name="orn10" horiz-adv-x="600" 
d="M67 458l150 -150v212h40v-212l150 150l28 -28l-150 -150h212v-40h-212l150 -150l-28 -28l-150 150v-212h-40v212l-150 -150l-28 28l150 150h-212v40h212l-150 150z" />
    <glyph glyph-name="orn10.case" horiz-adv-x="600" 
d="M87 548l150 -150v212h40v-212l150 150l28 -28l-150 -150h212v-40h-212l150 -150l-28 -28l-150 150v-212h-40v212l-150 -150l-28 28l150 150h-212v40h212l-150 150z" />
    <glyph glyph-name="orn10.ss01" horiz-adv-x="780" 
d="M114 611l213 -213v302h40v-302l213 213l28 -28l-213 -213h302v-40h-302l213 -213l-28 -28l-213 213v-302h-40v302l-213 -213l-28 28l213 213h-302v40h302l-213 213z" />
    <glyph glyph-name="orn11" horiz-adv-x="520" 
d="M-23 0h-40v520h40v-240h480v-40h-480v-240z" />
    <glyph glyph-name="orn11.case" horiz-adv-x="520" 
d="M-23 90h-40v520h40v-240h480v-40h-480v-240z" />
    <glyph glyph-name="orn11.ss01" horiz-adv-x="700" 
d="M-23 0h-40v700h40v-330h660v-40h-660v-330z" />
    <glyph glyph-name="orn12" horiz-adv-x="520" 
d="M457 0h-40v240h-480v40h480v240h40v-520z" />
    <glyph glyph-name="orn12.case" horiz-adv-x="520" 
d="M457 90h-40v240h-480v40h480v240h40v-520z" />
    <glyph glyph-name="orn12.ss01" horiz-adv-x="700" 
d="M637 0h-40v330h-660v40h660v330h40v-700z" />
    <glyph glyph-name="orn13" horiz-adv-x="40" 
d="M-23 0h-40v520h40v-520z" />
    <glyph glyph-name="orn13.case" horiz-adv-x="40" 
d="M-23 90h-40v520h40v-520z" />
    <glyph glyph-name="orn13.ss01" horiz-adv-x="40" 
d="M-23 0h-40v700h40v-700z" />
    <glyph glyph-name="orn14" horiz-adv-x="20" 
d="M-43 0h-40v520h40v-520z" />
    <glyph glyph-name="orn14.case" horiz-adv-x="20" 
d="M-43 90h-40v520h40v-520z" />
    <glyph glyph-name="orn14.ss01" horiz-adv-x="20" 
d="M-43 0h-40v700h40v-700z" />
    <glyph glyph-name="orn15" horiz-adv-x="20" 
d="M-23 0h-40v520h40v-520z" />
    <glyph glyph-name="orn15.case" horiz-adv-x="20" 
d="M-23 90h-40v520h40v-520z" />
    <glyph glyph-name="orn15.ss01" horiz-adv-x="20" 
d="M-23 0h-40v700h40v-700z" />
    <glyph glyph-name="orn16" horiz-adv-x="520" 
d="M-238 260q0 73 51 124t124 51q67 0 116.5 -44.5t57.5 -110.5h346v-40h-346q-8 -66 -57.5 -110.5t-116.5 -44.5q-73 0 -124 51t-51 124z" />
    <glyph glyph-name="orn16.case" horiz-adv-x="520" 
d="M-238 350q0 73 51 124t124 51q67 0 116.5 -44.5t57.5 -110.5h346v-40h-346q-8 -66 -57.5 -110.5t-116.5 -44.5q-73 0 -124 51t-51 124z" />
    <glyph glyph-name="orn16.ss01" horiz-adv-x="700" 
d="M-238 350q0 73 51 124t124 51q67 0 116.5 -44.5t57.5 -110.5h526v-40h-526q-8 -66 -57.5 -110.5t-116.5 -44.5q-73 0 -124 51t-51 124z" />
    <glyph glyph-name="orn17" horiz-adv-x="520" 
d="M632 260q0 -73 -51 -124t-124 -51q-67 0 -116.5 44.5t-57.5 110.5h-346v40h346q8 66 57.5 110.5t116.5 44.5q73 0 124 -51t51 -124z" />
    <glyph glyph-name="orn17.case" horiz-adv-x="520" 
d="M632 350q0 -73 -51 -124t-124 -51q-67 0 -116.5 44.5t-57.5 110.5h-346v40h346q8 66 57.5 110.5t116.5 44.5q73 0 124 -51t51 -124z" />
    <glyph glyph-name="orn17.ss01" horiz-adv-x="700" 
d="M812 350q0 -73 -51 -124t-124 -51q-67 0 -116.5 44.5t-57.5 110.5h-526v40h526q8 66 57.5 110.5t116.5 44.5q73 0 124 -51t51 -124z" />
    <glyph glyph-name="orn18" horiz-adv-x="175" 
d="M-238 260q0 73 51 124t124 51t124 -51t51 -124t-51 -124t-124 -51t-124 51t-51 124z" />
    <glyph glyph-name="orn18.case" horiz-adv-x="175" 
d="M-238 350q0 73 51 124t124 51t124 -51t51 -124t-51 -124t-124 -51t-124 51t-51 124z" />
    <glyph glyph-name="orn19" horiz-adv-x="175" 
d="M-63 260q0 73 51 124t124 51t124 -51t51 -124t-51 -124t-124 -51t-124 51t-51 124z" />
    <glyph glyph-name="orn19.case" horiz-adv-x="175" 
d="M-63 350q0 73 51 124t124 51t124 -51t51 -124t-51 -124t-124 -51t-124 51t-51 124z" />
    <glyph glyph-name="orn20" horiz-adv-x="440" 
d="M377 260l260 -260l-700 260l700 260z" />
    <glyph glyph-name="orn20.case" horiz-adv-x="440" 
d="M377 350l260 -260l-700 260l700 260z" />
    <glyph glyph-name="orn21" horiz-adv-x="440" 
d="M-323 0l260 260l-260 260l700 -260z" />
    <glyph glyph-name="orn21.case" horiz-adv-x="440" 
d="M-323 90l260 260l-260 260l700 -260z" />
    <glyph glyph-name="orn22" horiz-adv-x="860" 
d="M237 0h-200v200h200v-200zM737 0h-200v700h200v-700zM537 0h-220l-280 700h220z" />
    <glyph glyph-name="orn23" horiz-adv-x="860" 
d="M237 0h-200v200h200v-200zM637 0h-320l-280 700h320zM737 0h-100v700h100v-700z" />
    <glyph glyph-name="uni2196.ss01" horiz-adv-x="830" 
d="M148 502l11 -414l-117 117v495h495l117 -117l-414 11l502 -502l-92 -92z" />
    <glyph glyph-name="uni2197.ss01" horiz-adv-x="830" 
d="M595 88l11 414l-502 -502l-92 92l502 502l-414 -11l117 117h495v-495z" />
    <glyph glyph-name="uni2198.ss01" horiz-adv-x="830" 
d="M606 198l-11 414l117 -117v-495h-495l-117 117l414 -11l-502 502l92 92z" />
    <glyph glyph-name="uni2199.ss01" horiz-adv-x="830" 
d="M159 612l-11 -414l502 502l92 -92l-502 -502l414 11l-117 -117h-495v495z" />
    <glyph glyph-name="arrowleft.ss01" horiz-adv-x="1055" 
d="M521 700l-300 -285h710v-130h-710l300 -285h-165l-350 350l350 350h165z" />
    <glyph glyph-name="arrowup.ss01" horiz-adv-x="860" 
d="M772 410l-285 300v-710h-130v710l-285 -300v165l350 350l350 -350v-165z" />
    <glyph glyph-name="arrowright.ss01" horiz-adv-x="1055" 
d="M747 415l-300 285h165l350 -350l-350 -350h-165l300 285h-710v130h710z" />
    <glyph glyph-name="arrowdown.ss01" horiz-adv-x="860" 
d="M427 -10l285 300v-165l-350 -350l-350 350v165l285 -300v710h130v-710z" />
    </font>
</defs>
</svg>
